<svg width="55" height="55" viewBox="0 0 55 55" fill="none" xmlns="http://www.w3.org/2000/svg">
<g clip-path="url(#clip0_9_167)">
<path d="M8.75137 46.1989C19.0973 56.5449 35.8714 56.5449 46.2173 46.1989C56.5633 35.853 56.5633 19.0789 46.2173 8.73297C35.8714 -1.61297 19.0973 -1.61294 8.75138 8.733C-1.59457 19.0789 -1.59457 35.853 8.75137 46.1989Z" fill="white" fill-opacity="0.5"/>
<path d="M28.9814 22.7607L28.7447 23.3523L29.2902 23.6815L34.9439 27.0936C34.9441 27.0938 34.9444 27.0939 34.9446 27.0941C35.0219 27.1412 35.0904 27.2081 35.1429 27.2916C35.1957 27.3755 35.2301 27.4731 35.2417 27.5766C35.2534 27.6801 35.2416 27.7847 35.208 27.8814C35.1746 27.9778 35.121 28.0622 35.0539 28.1289C35.0537 28.1291 35.0535 28.1293 35.0533 28.1295L25.0531 37.9903L25.0505 37.9929C24.9517 38.0912 24.8284 38.1467 24.703 38.1571C24.5778 38.1675 24.4499 38.1333 24.3403 38.0546C24.2301 37.9755 24.1435 37.8547 24.1024 37.7081C24.0612 37.5613 24.0701 37.4039 24.1266 37.2643L24.1276 37.2616L27.0121 30.0544L27.2488 29.463L26.7035 29.1337L21.0483 25.7187C21.0481 25.7186 21.0479 25.7184 21.0476 25.7183C20.9703 25.6711 20.9017 25.6042 20.8491 25.5205C20.7964 25.4365 20.762 25.3389 20.7504 25.2353C20.7388 25.1317 20.7507 25.027 20.7844 24.9303C20.818 24.8337 20.8718 24.7493 20.9392 24.6825C20.9393 24.6824 20.9394 24.6823 20.9395 24.6822L30.9271 14.8366L30.9919 14.7788C31.0938 14.6993 31.2136 14.659 31.3331 14.6589C31.4262 14.6599 31.5192 14.6852 31.6039 14.7347C31.6893 14.7847 31.7646 14.8584 31.8201 14.9518C31.8758 15.0454 31.9089 15.1544 31.9143 15.2684C31.9198 15.3825 31.8972 15.495 31.8502 15.5951L31.8408 15.615L31.8326 15.6355L28.9814 22.7607Z" stroke="white" stroke-width="1.5"/>
</g>
<defs>
<clipPath id="clip0_9_167">
<rect width="55" height="55" fill="white"/>
</clipPath>
</defs>
</svg>
