<svg width="55" height="55" viewBox="0 0 55 55" fill="none" xmlns="http://www.w3.org/2000/svg">
<g clip-path="url(#clip0_9_161)">
<path d="M9.02481 46.1989C19.3707 56.5449 36.1448 56.5449 46.4908 46.1989C56.8367 35.853 56.8367 19.0789 46.4908 8.73297C36.1448 -1.61297 19.3708 -1.61294 9.02481 8.733C-1.32113 19.0789 -1.32113 35.853 9.02481 46.1989Z" fill="white" fill-opacity="0.5"/>
<path d="M0.696045 27.4585C0.696046 12.5495 12.8375 0.408079 27.7464 0.40808C42.6554 0.408081 54.7969 12.5495 54.7969 27.4585C54.7969 42.3674 42.6554 54.5089 27.7464 54.5089C12.8375 54.5089 0.696045 42.3674 0.696045 27.4585ZM53.6809 27.4585C53.6809 13.1521 42.0528 1.52402 27.7464 1.52402C13.4401 1.52402 1.81199 13.1521 1.81199 27.4585C1.81199 41.7648 13.4401 53.3929 27.7464 53.3929C42.0528 53.3929 53.6809 41.7648 53.6809 27.4585Z" fill="white"/>
<path fill-rule="evenodd" clip-rule="evenodd" d="M17.4346 30.9154L23.2051 36.6859L38.7511 21.1557C38.9091 20.9977 39.1234 20.9089 39.3469 20.9089C39.5704 20.9089 39.7847 20.9977 39.9428 21.1557C40.1008 21.3138 40.1896 21.5281 40.1896 21.7516C40.1896 21.9751 40.1008 22.1894 39.9428 22.3474L23.8089 38.4813C23.4788 38.8114 22.9472 38.8114 22.6172 38.4813L16.2429 32.1071C16.1647 32.0288 16.1026 31.9359 16.0602 31.8337C16.0179 31.7315 15.9961 31.6219 15.9961 31.5112C15.9961 31.2877 16.0849 31.0734 16.2429 30.9154C16.4009 30.7574 16.6153 30.6686 16.8387 30.6686C17.0622 30.6686 17.2766 30.7574 17.4346 30.9154Z" fill="white"/>
</g>
<defs>
<clipPath id="clip0_9_161">
<rect width="55" height="55" fill="white"/>
</clipPath>
</defs>
</svg>
