<svg width="51" height="50" viewBox="0 0 51 50" fill="none" xmlns="http://www.w3.org/2000/svg">
<path d="M1.9326 25.0322C1.9326 38.5545 12.9167 49.5165 26.4663 49.5165C40.0159 49.5165 51 38.5545 51 25.0322C51 11.5098 40.0159 0.547851 26.4663 0.54785C12.9167 0.54785 1.9326 11.5098 1.9326 25.0322Z" fill="white" fill-opacity="0.5"/>
<path d="M0.899169 25C0.89917 11.2211 12.1429 -1.69508e-06 25.9496 -1.09279e-06C39.7562 -4.90492e-07 51 11.2211 51 25C51 38.7789 39.7562 50 25.9496 50C12.1429 50 0.899169 38.7789 0.899169 25ZM49.9666 25C49.9666 11.778 39.1982 1.03135 25.9496 1.03135C12.701 1.03135 1.9326 11.778 1.9326 25C1.9326 38.2219 12.701 48.9686 25.9496 48.9686C39.1982 48.9686 49.9666 38.2219 49.9666 25Z" fill="white"/>
<path d="M26.003 18.7981L27.1869 19.9665L23.0762 24.0689L33.4023 24.0689L33.4023 25.7756L23.0762 25.7756L27.1869 29.8714L26.003 31.0464L19.8665 24.9222L26.003 18.7981Z" fill="white"/>
</svg>
