<svg width="83" height="83" viewBox="0 0 83 83" fill="none" xmlns="http://www.w3.org/2000/svg">
<g clip-path="url(#clip0_9_157)">
<path d="M15.1725 67.8296C29.6848 82.3418 53.2137 82.3418 67.7259 67.8296C82.2381 53.3174 82.2381 29.7885 67.7259 15.2763C53.2137 0.764092 29.6848 0.76409 15.1726 15.2763C0.660346 29.7885 0.660341 53.3174 15.1725 67.8296Z" fill="white"/>
<path d="M0.345572 41.5495C0.345573 18.8959 18.7809 0.460569 41.4345 0.460569C64.0881 0.46057 82.5234 18.8959 82.5234 41.5495C82.5234 64.2031 64.0881 82.6385 41.4345 82.6385C18.7809 82.6385 0.345571 64.2031 0.345572 41.5495ZM81.4298 41.5495C81.4298 19.4985 63.4855 1.57651 41.4568 1.57651C19.4281 1.57651 1.48385 19.5208 1.48385 41.5495C1.48385 63.5782 19.4281 81.5225 41.4568 81.5225C63.4855 81.5225 81.4298 63.5782 81.4298 41.5495Z" fill="white"/>
</g>
<defs>
<clipPath id="clip0_9_157">
<rect width="83" height="83" fill="white" transform="translate(83) rotate(90)"/>
</clipPath>
</defs>
</svg>
