<svg width="99" height="101" viewBox="0 0 99 101" fill="none" xmlns="http://www.w3.org/2000/svg">
<g clip-path="url(#clip0_12_294)">
<path d="M15.2485 84.8011C34.1737 103.726 64.8574 103.726 83.7826 84.8011C102.708 65.876 102.708 35.1922 83.7826 16.267C64.8575 -2.65814 34.1737 -2.65809 15.2485 16.2671C-3.67662 35.1922 -3.67662 65.876 15.2485 84.8011Z" fill="white" fill-opacity="0.5"/>
<path d="M0.0680749 51.4815C0.0680761 24.2095 22.2776 2 49.5496 2C76.8217 2 99.0312 24.2095 99.0312 51.4816C99.0312 78.7536 76.8217 100.963 49.5496 100.963C22.2776 100.963 0.0680737 78.7536 0.0680749 51.4815ZM96.9899 51.4816C96.9899 25.3118 75.7193 4.04132 49.5496 4.04132C23.3799 4.04132 2.1094 25.3118 2.1094 51.4815C2.10939 77.6513 23.3799 98.9218 49.5496 98.9218C75.7193 98.9218 96.9899 77.6513 96.9899 51.4816Z" fill="white"/>
<path fill-rule="evenodd" clip-rule="evenodd" d="M51.6936 52.1171L69.0094 69.5103L69.017 69.5177C69.1942 69.6895 69.3351 69.8951 69.4313 70.1223C69.5275 70.3496 69.5771 70.5938 69.5771 70.8405C69.5771 71.0872 69.5275 71.3314 69.4313 71.5586C69.3351 71.7859 69.1942 71.9915 69.017 72.1632L68.9966 72.183L68.9772 72.2037C68.8106 72.3813 68.609 72.5225 68.3851 72.6184C68.1612 72.7143 67.9199 72.7629 67.6763 72.7611L67.6717 72.7611C67.4242 72.7602 67.1796 72.7095 66.9522 72.612C66.7248 72.5146 66.5193 72.3724 66.3481 72.194L66.3385 72.184L48.9389 54.8711L31.5346 72.1887L31.5205 72.2037C31.3539 72.3813 31.1524 72.5225 30.9285 72.6184C30.7046 72.7143 30.4633 72.7629 30.2197 72.7611L30.215 72.7611C29.9676 72.7602 29.7229 72.7095 29.4955 72.612C29.2681 72.5146 29.0627 72.3724 28.8915 72.194L28.8765 72.1783L28.8609 72.1632C28.6837 71.9915 28.5428 71.7859 28.4466 71.5586C28.3504 71.3314 28.3008 71.0872 28.3008 70.8405C28.3008 70.5938 28.3504 70.3496 28.4466 70.1223C28.5428 69.8951 28.6837 69.6895 28.8609 69.5177L28.8685 69.5103L46.1843 52.1171L28.9424 34.7982C28.6942 34.4394 28.5752 34.0062 28.6062 33.5697C28.639 33.1086 28.837 32.6748 29.164 32.3479C29.4911 32.0209 29.9251 31.8229 30.3865 31.7901C30.8234 31.759 31.2569 31.8781 31.6159 32.1263L48.9389 49.3632L66.3902 31.9988L66.4422 31.9295C66.6073 31.7094 66.8179 31.5272 67.0596 31.3955C67.3013 31.2638 67.5685 31.1855 67.8432 31.166C68.1178 31.1465 68.3934 31.1862 68.6514 31.2824C68.9093 31.3787 69.1435 31.5292 69.3381 31.7238C69.5328 31.9184 69.6833 32.1525 69.7795 32.4102C69.8758 32.668 69.9155 32.9434 69.896 33.2178C69.8764 33.4922 69.7982 33.7593 69.6664 34.0009C69.5347 34.2424 69.3526 34.4529 69.1324 34.6181L69.063 34.6701L51.6936 52.1171Z" fill="white"/>
</g>
<defs>
<clipPath id="clip0_12_294">
<rect width="99" height="101" fill="white"/>
</clipPath>
</defs>
</svg>
