<svg width="256" height="256" viewBox="0 0 256 256" xml:space="preserve">

	<defs>
	</defs>
	<g style="stroke: none; stroke-width: 0; stroke-dasharray: none; stroke-linecap: butt; stroke-linejoin: miter; stroke-miterlimit: 10; fill: none; fill-rule: nonzero; opacity: 1;"
		transform="translate(209.979766536965 209.97976653696495) rotate(180) scale(1.83 1.83) matrix(1 0 0 -1 0 90)">
		<path
			d="M 82.191 20.415 h -5.059 c -0.498 -7.697 -6.659 -13.858 -14.355 -14.356 V 1 c 0 -0.552 -0.447 -1 -1 -1 c -0.553 0 -1 0.448 -1 1 v 5.059 c -7.696 0.498 -13.858 6.659 -14.356 14.356 h -5.059 c -0.552 0 -1 0.448 -1 1 c 0 0.552 0.448 1 1 1 h 5.042 c 0.052 0.815 0.175 1.621 0.354 2.413 L 21.623 43.235 l 0.156 -8.225 c 0.035 -1.853 -0.669 -3.569 -1.984 -4.831 c -1.362 -1.307 -3.196 -1.961 -5.159 -1.843 c -3.926 0.237 -7.179 3.549 -7.252 7.385 L 6.816 65.667 c -0.121 5.355 1.436 10.4 4.504 14.588 c 3.952 5.396 9.973 8.798 16.954 9.577 C 29.282 89.944 30.291 90 31.3 90 c 5.939 0 11.805 -1.935 16.786 -5.583 l 13.351 -9.777 c 1.57 -1.15 2.638 -2.806 3.005 -4.661 c 0.374 -1.887 -0.02 -3.743 -1.107 -5.228 c -1.084 -1.48 -2.727 -2.413 -4.629 -2.631 l 0.303 -0.222 c 3.28 -2.402 4.132 -6.839 1.897 -9.889 c -1.328 -1.813 -3.45 -2.726 -5.641 -2.672 c 1.404 -2.374 1.425 -5.339 -0.207 -7.567 c -1.12 -1.53 -2.807 -2.425 -4.625 -2.634 l 5.034 -3.686 c 1.684 0.759 3.462 1.198 5.309 1.316 v 5.065 c 0 0.552 0.447 1 1 1 c 0.553 0 1 -0.448 1 -1 V 36.77 c 7.696 -0.498 13.857 -6.659 14.355 -14.356 h 5.059 c 0.553 0 1 -0.448 1 -1 C 83.191 20.863 82.744 20.415 82.191 20.415 z M 53.446 42.951 c 1.582 2.161 0.925 5.344 -1.466 7.094 l -1.071 0.784 c -0.001 0.001 -0.003 0.002 -0.004 0.003 l -7.906 5.79 c -0.446 0.326 -0.542 0.952 -0.216 1.397 c 0.091 0.124 0.208 0.214 0.335 0.283 c 0.041 0.022 0.084 0.03 0.127 0.046 c 0.092 0.034 0.183 0.059 0.281 0.066 c 0.022 0.001 0.042 0.015 0.064 0.015 c 0.05 0 0.099 -0.016 0.15 -0.023 c 0.037 -0.006 0.073 -0.007 0.11 -0.017 c 0.115 -0.031 0.228 -0.078 0.33 -0.153 l 7.908 -5.791 c 2.389 -1.748 5.622 -1.415 7.204 0.746 c 1.582 2.161 0.925 5.344 -1.466 7.094 l -4.491 3.289 c -0.001 0.001 -0.002 0.001 -0.003 0.002 c 0 0 0 0 -0.001 0.001 l -3.258 2.386 c -0.445 0.326 -0.542 0.952 -0.216 1.397 c 0.195 0.268 0.499 0.409 0.808 0.409 c 0.205 0 0.412 -0.063 0.59 -0.193 l 3.26 -2.388 c 1.165 -0.854 2.563 -1.239 3.946 -1.083 c 1.348 0.15 2.506 0.8 3.259 1.828 c 0.753 1.028 1.022 2.328 0.759 3.659 c -0.27 1.362 -1.06 2.582 -2.225 3.435 l -13.351 9.777 c -5.421 3.971 -11.956 5.762 -18.409 5.04 c -6.418 -0.716 -11.945 -3.83 -15.562 -8.77 c -2.805 -3.83 -4.229 -8.45 -4.118 -13.366 l 0.569 -29.949 c 0.053 -2.817 2.463 -5.251 5.373 -5.427 c 1.399 -0.081 2.698 0.374 3.653 1.29 c 0.908 0.871 1.394 2.06 1.369 3.35 l -0.194 10.244 c -0.007 0.38 0.202 0.731 0.539 0.906 c 0.338 0.175 0.745 0.145 1.052 -0.08 l 33.493 -24.528 c 2.39 -1.751 5.623 -1.416 7.207 0.744 c 0.753 1.029 1.022 2.328 0.759 3.659 c -0.27 1.362 -1.06 2.582 -2.226 3.435 L 45.058 40.593 l -8.98 6.577 c -0.446 0.326 -0.542 0.952 -0.216 1.397 c 0.326 0.445 0.951 0.543 1.397 0.216 l 8.978 -6.576 c 0.001 -0.001 0.002 -0.001 0.003 -0.001 l 0.004 -0.003 C 48.635 40.456 51.864 40.791 53.446 42.951 z M 61.777 34.821 c -1.53 0 -3.01 -0.257 -4.424 -0.753 l 4.237 -3.103 c 1.571 -1.15 2.639 -2.805 3.006 -4.66 c 0.374 -1.887 -0.02 -3.744 -1.107 -5.229 c -2.235 -3.05 -6.719 -3.579 -10.002 -1.176 l -4.946 3.622 c -0.109 -0.694 -0.171 -1.398 -0.171 -2.107 c 0 -7.392 6.014 -13.407 13.407 -13.407 s 13.406 6.014 13.406 13.407 S 69.169 34.821 61.777 34.821 z"
			style="stroke: none; stroke-width: 1; stroke-dasharray: none; stroke-linecap: butt; stroke-linejoin: miter; stroke-miterlimit: 10; fill: rgb(255,125,79); fill-rule: nonzero; opacity: 1;"
			transform=" matrix(1 0 0 1 0 0) " stroke-linecap="round" />
	</g>
</svg>