<?xml version="1.0" encoding="utf-8"?>
<svg viewBox="164.267 185.95 99.84 90.4479" width="200" height="200" :stroke="var(--ion-color-primary)" :fill="var(--ion-color-primary)">
  <path d="M 181.987 231.38 L 181.987 207.07 L 198.787 207.07 L 198.787 212.39 L 188.477 212.39 L 188.477 216.57 L 197.757 216.57 L 197.757 221.88 L 188.477 221.88 L 188.477 231.38 L 181.987 231.38 Z M 180.937 185.95 L 247.437 185.95 C 256.637 185.967 264.09 193.421 264.107 202.62 L 264.107 237.31 C 264.074 246.499 256.625 253.934 247.437 253.95 L 209.727 253.95 L 184.427 275.73 C 182.775 277.128 180.231 276.213 179.847 274.084 C 179.807 273.865 179.794 273.643 179.807 273.42 L 181.157 253.95 L 180.937 253.95 C 171.749 253.934 164.3 246.499 164.267 237.31 L 164.267 202.62 C 164.283 193.421 171.737 185.967 180.937 185.95 Z M 247.477 191.6 L 180.937 191.6 C 174.865 191.655 169.964 196.578 169.937 202.65 L 169.937 237.31 C 169.992 243.382 174.915 248.283 180.987 248.31 L 184.407 248.31 C 185.955 248.417 187.121 249.763 187.007 251.31 L 185.867 267.12 L 206.737 249.12 C 207.268 248.593 207.989 248.301 208.737 248.31 L 247.427 248.31 C 253.479 248.256 258.373 243.363 258.427 237.31 L 258.427 202.62 C 258.373 196.568 253.479 191.675 247.427 191.62 L 247.477 191.6 Z M 204.477 231.41 L 197.477 231.41 L 205.267 207.07 L 214.137 207.07 L 222.017 231.38 L 215.017 231.38 L 209.797 213.77 L 209.607 213.77 L 204.387 231.38 L 204.477 231.41 Z M 203.167 221.82 L 216.267 221.82 L 216.267 226.76 L 203.077 226.76 L 203.077 221.79 L 203.167 221.82 Z M 232.517 222.39 L 237.517 222.39 L 239.267 224.69 L 242.347 228.24 L 246.347 233.24 L 240.637 233.24 L 237.797 229.87 L 235.877 227.06 L 232.427 222.41 L 232.517 222.39 Z M 246.427 219.26 C 246.503 221.637 245.966 223.992 244.867 226.1 C 243.911 227.883 242.455 229.346 240.677 230.31 C 236.987 232.225 232.597 232.225 228.907 230.31 C 227.133 229.335 225.681 227.866 224.727 226.08 C 223.64 223.98 223.109 221.635 223.187 219.27 C 223.107 216.896 223.637 214.541 224.727 212.43 C 225.681 210.648 227.134 209.182 228.907 208.21 C 232.598 206.303 236.985 206.303 240.677 208.21 C 242.453 209.182 243.908 210.648 244.867 212.43 C 245.968 214.538 246.506 216.894 246.427 219.27 L 246.427 219.26 Z M 239.747 219.26 C 239.781 218.009 239.588 216.763 239.177 215.58 C 238.869 214.666 238.29 213.868 237.517 213.29 C 235.853 212.263 233.751 212.263 232.087 213.29 C 231.314 213.87 230.732 214.667 230.417 215.58 C 230.014 216.764 229.825 218.01 229.857 219.26 C 229.795 220.509 229.955 221.758 230.327 222.95 C 230.642 223.861 231.224 224.655 231.997 225.23 C 233.658 226.269 235.766 226.269 237.427 225.23 C 238.2 224.657 238.779 223.862 239.087 222.95 C 239.497 221.768 239.69 220.521 239.657 219.27 L 239.747 219.26 Z" />
</svg>
