<svg width="20" height="20" viewBox="0 0 20 20" fill="none" xmlns="http://www.w3.org/2000/svg">
<path d="M8 9C8.55228 9 9 8.55228 9 8V4C9 3.44772 8.55228 3 8 3H4C3.44772 3 3 3.44772 3 4V8C3 8.55228 3.44772 9 4 9H8ZM16 9C16.5523 9 17 8.55228 17 8V4C17 3.44772 16.5523 3 16 3H12C11.4477 3 11 3.44772 11 4V8C11 8.55228 11.4477 9 12 9H16ZM8 17C8.55228 17 9 16.5523 9 16V12C9 11.4477 8.55228 11 8 11H4C3.44772 11 3 11.4477 3 12V16C3 16.5523 3.44772 17 4 17H8ZM16 17C16.5523 17 17 16.5523 17 16V12C17 11.4477 16.5523 11 16 11H12C11.4477 11 11 11.4477 11 12V16C11 16.5523 11.4477 17 12 17H16Z" fill="url(#paint0_linear_138_250)"/>
<path d="M8 9C8.55228 9 9 8.55228 9 8V4C9 3.44772 8.55228 3 8 3H4C3.44772 3 3 3.44772 3 4V8C3 8.55228 3.44772 9 4 9H8Z" fill="white"/>
<defs>
<linearGradient id="paint0_linear_138_250" x1="4" y1="1" x2="15.5" y2="22" gradientUnits="userSpaceOnUse">
<stop offset="0.149361" stop-color="white"/>
<stop offset="1" stop-color="white" stop-opacity="0"/>
</linearGradient>
</defs>
</svg>
