<svg width="14" height="21" viewBox="0 0 14 21" fill="none" xmlns="http://www.w3.org/2000/svg">
<path d="M1 3.11111C1 2.55121 1.21071 2.01424 1.58579 1.61833C1.96086 1.22242 2.46957 1 3 1H11C11.5304 1 12.0391 1.22242 12.4142 1.61833C12.7893 2.01424 13 2.55121 13 3.11111V17.8889C13 18.4488 12.7893 18.9858 12.4142 19.3817C12.0391 19.7776 11.5304 20 11 20H3C2.46957 20 1.96086 19.7776 1.58579 19.3817C1.21071 18.9858 1 18.4488 1 17.8889V3.11111ZM6 2.05556H8H6ZM7 15.7778V15.7883V15.7778Z" fill="url(#paint0_linear_138_246)" fill-opacity="0.5"/>
<path d="M6 2.05556H8M7 15.7778V15.7883M1 3.11111C1 2.55121 1.21071 2.01424 1.58579 1.61833C1.96086 1.22242 2.46957 1 3 1H11C11.5304 1 12.0391 1.22242 12.4142 1.61833C12.7893 2.01424 13 2.55121 13 3.11111V17.8889C13 18.4488 12.7893 18.9858 12.4142 19.3817C12.0391 19.7776 11.5304 20 11 20H3C2.46957 20 1.96086 19.7776 1.58579 19.3817C1.21071 18.9858 1 18.4488 1 17.8889V3.11111Z" stroke="white" stroke-linecap="round" stroke-linejoin="round"/>
<defs>
<linearGradient id="paint0_linear_138_246" x1="7" y1="1" x2="7" y2="20" gradientUnits="userSpaceOnUse">
<stop stop-color="white" stop-opacity="0"/>
<stop offset="1" stop-color="white"/>
</linearGradient>
</defs>
</svg>
