<svg width="97" height="33" viewBox="0 0 97 33" fill="none" xmlns="http://www.w3.org/2000/svg">
<g clip-path="url(#clip0_153_615)">
<path d="M20.9388 12.5675V14.828C20.4209 14.3895 19.7766 14.1257 19.0986 14.0745C18.8256 14.0765 18.5566 14.1398 18.3116 14.2598C18.0666 14.3798 17.8521 14.5534 17.6839 14.7675C17.2938 15.2265 17.096 15.8173 17.1313 16.4175C17.1153 16.9614 17.2532 17.4988 17.5292 17.9685C17.7303 18.2825 17.9557 18.5804 18.2034 18.8595C18.5184 19.2225 18.9218 19.6625 19.4191 20.174C20.1641 20.9049 20.7922 21.7452 21.2814 22.6655C21.635 23.4457 21.8051 24.2959 21.7788 25.1515C21.8236 26.3483 21.431 27.5208 20.6736 28.4515C20.337 28.8538 19.9141 29.1758 19.4359 29.3938C18.9577 29.6118 18.4364 29.7202 17.9105 29.711C17.0236 29.7353 16.1565 29.447 15.4624 28.897V26.5485C16.0704 27.0766 16.8348 27.3932 17.6397 27.4505C17.9108 27.4634 18.1812 27.4135 18.4295 27.3047C18.6779 27.1959 18.8975 27.0312 19.071 26.8235C19.4416 26.3322 19.6256 25.7263 19.5904 25.113C19.6005 24.5278 19.4637 23.9493 19.1926 23.43C19.0301 23.1429 18.8454 22.8689 18.6399 22.6105C18.3399 22.2492 18.0208 21.9041 17.6839 21.5765C17.1313 21.0265 16.645 20.4765 16.2692 20.042C15.9574 19.6757 15.6799 19.2817 15.4403 18.865C15.0745 18.1017 14.8965 17.2628 14.9209 16.4175C14.8592 15.264 15.2183 14.1272 15.9321 13.2165C16.2712 12.8215 16.6963 12.5087 17.1751 12.3019C17.6539 12.0951 18.1738 11.9997 18.6952 12.023C19.4771 12.0149 20.2485 12.2021 20.9388 12.5675Z" fill="white"/>
<path d="M23.1367 12.2321H25.3748V18.9696H28.6628V12.2321H30.9064V29.4471H28.6628V20.9276H25.3748V29.4471H23.1367V12.2321Z" fill="white"/>
<path d="M41.3121 21.263C41.3121 24.3063 40.986 26.466 40.3339 27.742C40.0395 28.3556 39.5663 28.8668 38.9759 29.2092C38.3856 29.5515 37.7054 29.7091 37.0238 29.6615C36.3107 29.7081 35.6004 29.5352 34.9894 29.1662C34.3785 28.7973 33.8964 28.2501 33.6086 27.599C32.9566 26.2533 32.6287 23.87 32.625 20.449C32.625 17.3873 32.9492 15.2203 33.5976 13.948C33.895 13.3359 34.3698 12.8265 34.9608 12.4854C35.5517 12.1442 36.2318 11.987 36.9133 12.034C37.5153 11.992 38.118 12.1063 38.6624 12.3656C39.2068 12.625 39.6742 13.0205 40.0189 13.5135C40.5323 14.378 40.8615 15.3384 40.986 16.335C41.2284 17.9662 41.3375 19.6143 41.3121 21.263ZM38.9635 21.5215C38.9635 18.5368 38.8345 16.5568 38.5766 15.5815C38.3169 14.597 37.7864 14.1075 36.9906 14.1075C36.1949 14.1075 35.6644 14.5585 35.3991 15.455C35.1339 16.3515 35.0068 18.205 35.0068 20.955C35.0068 23.496 35.1449 25.2468 35.4212 26.2075C35.6975 27.1315 36.2225 27.5935 36.9906 27.5935C37.7588 27.5935 38.2616 27.159 38.5435 26.2955C38.8253 25.432 38.9635 23.8315 38.9635 21.5215Z" fill="white"/>
<path d="M43.0469 12.2321H49.004V14.2176H45.3126V19.6681H48.6283V21.6316H45.3126V27.4891H49.0317V29.4471H43.0469V12.2321Z" fill="white"/>
<path d="M64.6055 12.2209H66.8159V29.3204H64.6055V12.2209Z" fill="white"/>
<path d="M67.5579 12.2209H74.7419V14.2174H72.2662V29.3204H70.0999V14.2174H67.5469L67.5579 12.2209Z" fill="white"/>
<path d="M74.1891 12.2209H81.3731V14.2174H78.8974V29.3204H76.7311V14.2174H74.1836L74.1891 12.2209Z" fill="white"/>
<path d="M82.1172 12.2209H87.9914V14.1679H84.3276V19.5854H87.577V21.5324H84.3276V27.3679H87.9914V29.3204H82.1172V12.2209Z" fill="white"/>
<path d="M89.5234 12.221H92.4302C92.9199 12.1789 93.4132 12.2367 93.8797 12.3908C94.3462 12.545 94.7763 12.7922 95.1435 13.1175C95.884 13.893 96.2487 15.0755 96.2487 16.6705C96.291 17.686 96.0883 18.6969 95.6574 19.6185C95.4959 19.9584 95.2611 20.2588 94.9698 20.4983C94.6785 20.7379 94.3379 20.9107 93.972 21.0045L96.9892 29.3205H94.7456L91.7339 20.944V29.3205H89.5234V12.221ZM91.7339 19.7945C92.0672 19.8313 92.4046 19.7941 92.7219 19.6857C93.0391 19.5773 93.3282 19.4003 93.5686 19.1675C93.9877 18.5543 94.1828 17.8166 94.1212 17.0775C94.1296 16.6203 94.0926 16.1634 94.0106 15.7135C93.9586 15.3869 93.8401 15.0744 93.6625 14.795C93.5117 14.5646 93.2966 14.383 93.0436 14.2725C92.7599 14.1562 92.455 14.1 92.1483 14.1075H91.7339V19.7945Z" fill="white"/>
<path d="M0 20.911H1.51968V21.9505C1.65254 21.6161 1.87974 21.3271 2.17388 21.1182C2.46803 20.9094 2.81657 20.7897 3.17752 20.7735C3.53143 20.7628 3.87818 20.8741 4.15913 21.0886C4.44007 21.3031 4.63796 21.6075 4.71931 21.9505C4.85527 21.6073 5.09077 21.3121 5.39584 21.1025C5.70091 20.8929 6.06174 20.7784 6.4324 20.7735C6.6739 20.7563 6.91637 20.7889 7.1446 20.8694C7.37283 20.9498 7.58189 21.0764 7.75867 21.241C8.08682 21.6215 8.2498 22.116 8.21181 22.616V29.315H6.70318V23.7875C6.73603 23.3549 6.67768 22.9203 6.53187 22.5115C6.46845 22.3979 6.37273 22.3055 6.25673 22.2458C6.14073 22.1861 6.0096 22.1618 5.87979 22.176C5.73522 22.1596 5.58887 22.1826 5.45647 22.2427C5.32406 22.3028 5.21059 22.3976 5.12824 22.517C4.97113 22.9213 4.90693 23.3554 4.94035 23.7875V29.315H3.36541V23.7875C3.36577 23.53 3.34916 23.2728 3.31567 23.0175C3.29756 22.8447 3.24694 22.6767 3.16647 22.5225C3.10742 22.4062 3.01253 22.3118 2.89569 22.253C2.76894 22.19 2.62832 22.1598 2.48675 22.165C2.33952 22.1514 2.19138 22.1787 2.05873 22.2437C1.92609 22.3088 1.81411 22.4091 1.7352 22.5335C1.55695 22.9225 1.48089 23.3502 1.51416 23.7765V29.315H0V20.911Z" fill="white"/>
<path d="M8.79688 20.911H10.4989L11.7091 26.774L13.1238 20.911H14.6656L11.3168 32.7635H9.71974L10.9852 28.644L8.79688 20.911Z" fill="white"/>
<path d="M56.8391 3.21174C57.0419 1.67507 56.2191 0.300339 55.0015 0.141201C53.7838 -0.0179375 52.6323 1.09878 52.4296 2.63545C52.2269 4.17213 53.0496 5.54685 54.2673 5.70599C55.4849 5.86513 56.6364 4.74842 56.8391 3.21174Z" fill="#CC3300"/>
<path d="M51.3073 4.38897C51.4292 3.43068 50.9194 2.57709 50.1685 2.48241C49.4176 2.38774 48.71 3.08783 48.588 4.04612C48.4661 5.0044 48.9759 5.858 49.7268 5.95268C50.4777 6.04735 51.1853 5.34726 51.3073 4.38897Z" fill="#CC3300"/>
<path d="M48.1706 5.85997C48.2646 5.12167 47.872 4.46405 47.2937 4.39113C46.7154 4.31822 46.1704 4.85762 46.0764 5.59592C45.9824 6.33422 46.3751 6.99185 46.9534 7.06477C47.5317 7.13768 48.0767 6.59828 48.1706 5.85997Z" fill="#CC3300"/>
<path d="M46.0516 7.8195C46.1245 7.24694 45.8203 6.73699 45.3722 6.68048C44.9241 6.62398 44.5017 7.04233 44.4288 7.6149C44.356 8.18746 44.6601 8.69741 45.1083 8.75391C45.5564 8.81041 45.9787 8.39206 46.0516 7.8195Z" fill="#CC3300"/>
<path d="M44.5178 9.7639C44.5827 9.25462 44.3112 8.80092 43.9115 8.75052C43.5119 8.70013 43.1353 9.07213 43.0705 9.58141C43.0057 10.0907 43.2771 10.5444 43.6768 10.5948C44.0765 10.6452 44.453 10.2732 44.5178 9.7639Z" fill="#CC3300"/>
<path d="M44.5352 11.7205C44.5352 11.7205 48.5692 6.64946 53.1062 8.22796C55.3166 8.98696 55.3166 11.715 53.3217 13.9865C52.548 14.861 49.4921 17.0335 51.8462 22C54.2003 26.9665 55.7145 30.25 52.3546 31.713C49.6413 32.8845 47.8011 29.9145 47.8011 29.9145C47.8011 29.9145 48.7792 33.088 51.2328 33C53.6864 32.912 55.4161 31.504 55.1011 28.6C54.6701 24.5245 50.7244 20.9 51.7854 17.4625C52.1623 16.4476 52.8193 15.5592 53.6809 14.8995C55.4382 13.5135 56.4937 10.912 55.7035 8.84946C54.974 6.98496 52.7636 5.64296 48.7405 7.55696C46.0714 8.86596 44.5352 11.7205 44.5352 11.7205Z" fill="#CC3300"/>
<path d="M63.7149 12.2321H57.4648V14.1901H63.7149V12.2321Z" fill="#CC3300"/>
<path d="M63.3115 19.635H57.4648V21.593H63.3115V19.635Z" fill="#CC3300"/>
<path d="M59.8151 14.9821H57.4609V15.7796H59.8151V14.9821Z" fill="#CC3300"/>
<path d="M59.8151 16.5825H57.4609V17.38H59.8151V16.5825Z" fill="#CC3300"/>
<path d="M59.8151 18.172H57.4609V18.9695H59.8151V18.172Z" fill="#CC3300"/>
<path d="M59.8151 22.2915H57.4609V23.089H59.8151V22.2915Z" fill="#CC3300"/>
<path d="M59.8151 23.8755H57.4609V24.673H59.8151V23.8755Z" fill="#CC3300"/>
<path d="M59.8151 25.4485H57.4609V26.246H59.8151V25.4485Z" fill="#CC3300"/>
<path d="M59.8151 27.038H57.4609V27.8355H59.8151V27.038Z" fill="#CC3300"/>
<path d="M59.8151 28.6605H57.4609V29.458H59.8151V28.6605Z" fill="#CC3300"/>
</g>
<defs>
<clipPath id="clip0_153_615">
<rect width="97" height="33" fill="white"/>
</clipPath>
</defs>
</svg>
