<svg width="154" height="26" viewBox="0 0 154 26" fill="none" xmlns="http://www.w3.org/2000/svg">
<path d="M14.0049 5.87751C11.067 5.5284 10.5522 3.62244 10.9127 2.52818C11.4726 0.828489 13.1647 0.625328 13.9541 0.73542C15.675 0.924571 17.3766 1.00854 19.1115 0.96126C22.4303 0.929138 24.5201 2.55827 24.8852 5.81142C25.0459 6.57595 25.471 9.67131 22.0613 9.03583C21.2927 8.91334 20.0043 7.94574 19.4562 7.47726C18.72 6.86972 17.9006 6.46646 17.5829 6.34078C16.7945 6.03217 14.9287 5.91932 14.0049 5.87751Z" fill="#FF7D4F"/>
<path d="M10.9877 19.1016C13.9256 19.4507 14.4404 21.3567 14.0799 22.4509C13.5199 24.1506 11.8278 24.3538 11.0385 24.2437C9.31753 24.0545 7.61594 23.9706 5.88106 24.0178C2.56227 24.05 0.47241 22.4208 0.107325 19.1677C-0.053393 18.4032 -0.47843 15.3078 2.93129 15.9433C3.69988 16.0658 4.98827 17.0334 5.53639 17.5019C6.27258 18.1094 7.09197 18.5126 7.40964 18.6383C8.19805 18.9469 10.0639 19.0598 10.9877 19.1016Z" fill="#FF7D4F"/>
<path d="M19.1003 13.992C19.4494 11.0541 21.3554 10.5393 22.4497 10.8998C24.1494 11.4597 24.3525 13.1518 24.2424 13.9412C24.0533 15.6621 23.9693 17.3637 24.0166 19.0986C24.0487 22.4174 22.4196 24.5072 19.1664 24.8723C18.4019 25.033 15.3065 25.4581 15.942 22.0484C16.0645 21.2798 17.0321 19.9914 17.5006 19.4432C18.1081 18.7071 18.5114 17.8877 18.6371 17.57C18.9457 16.7816 19.0585 14.9158 19.1003 13.992Z" fill="#FF7D4F"/>
<path d="M5.87644 10.9877C5.52732 13.9256 3.62136 14.4404 2.5271 14.0799C0.827412 13.5199 0.62425 11.8278 0.734343 11.0385C0.923494 9.31753 1.00746 7.61594 0.960184 5.88106C0.928062 2.56227 2.5572 0.472409 5.81034 0.107325C6.57487 -0.0533931 9.67023 -0.47843 9.03476 2.93129C8.91226 3.69988 7.94466 4.98827 7.47618 5.53639C6.86864 6.27258 6.46539 7.09197 6.3397 7.40963C6.0311 8.19805 5.91824 10.0639 5.87644 10.9877Z" fill="#FF7D4F"/>
<path d="M38.1614 2.57165C38.5086 2.57165 38.8089 2.64053 39.0624 2.7783C39.3214 2.91055 39.5225 3.11445 39.6658 3.38998C39.8091 3.66 39.8807 3.99616 39.8807 4.39843V6.91957H39.4674V4.4315C39.4674 3.94656 39.3489 3.57734 39.112 3.32385C38.875 3.07036 38.5444 2.94362 38.1201 2.94362C37.7949 2.94362 37.5139 3.0125 37.2769 3.15027C37.04 3.28803 36.8581 3.48091 36.7314 3.72889C36.6046 3.97687 36.5413 4.27444 36.5413 4.62162V6.91957H36.128V4.4315C36.128 3.94656 36.0095 3.57734 35.7725 3.32385C35.5356 3.07036 35.2049 2.94362 34.7806 2.94362C34.4555 2.94362 34.1744 3.0125 33.9375 3.15027C33.7005 3.28803 33.5187 3.48091 33.3919 3.72889C33.2652 3.97687 33.2018 4.27444 33.2018 4.62162V6.91957H32.7885V2.60471H33.1853V3.79502L33.1274 3.66276C33.2542 3.32661 33.4663 3.0621 33.7639 2.86922C34.0615 2.67084 34.4197 2.57165 34.8385 2.57165C35.2683 2.57165 35.6292 2.68186 35.9213 2.90229C36.2189 3.1172 36.4063 3.43958 36.4834 3.86941L36.3429 3.81155C36.4586 3.44233 36.6763 3.14476 36.9959 2.91882C37.3155 2.68737 37.704 2.57165 38.1614 2.57165Z" fill="black"/>
<path d="M41.4074 8.55624C41.209 8.55624 41.0216 8.52317 40.8453 8.45704C40.6744 8.39092 40.5284 8.29448 40.4072 8.16774L40.6138 7.85363C40.724 7.96935 40.8425 8.05476 40.9693 8.10987C41.1015 8.16498 41.2503 8.19253 41.4156 8.19253C41.614 8.19253 41.7876 8.13743 41.9364 8.02721C42.0907 7.917 42.234 7.71586 42.3662 7.42379L42.6638 6.76251L42.7217 6.68812L44.5484 2.60471H44.97L42.7547 7.50645C42.639 7.77097 42.5122 7.97762 42.3745 8.1264C42.2422 8.2807 42.0962 8.39092 41.9364 8.45704C41.7766 8.52317 41.6002 8.55624 41.4074 8.55624ZM42.6555 7.02703L40.6552 2.60471H41.0933L42.9118 6.66332L42.6555 7.02703Z" fill="black"/>
<path d="M32.7885 21.4163L35.3344 19.5647C35.6045 20.0405 35.9066 20.4519 36.2409 20.7991C36.5752 21.1334 36.9417 21.3906 37.3403 21.5706C37.7389 21.7506 38.1504 21.8406 38.5747 21.8406C38.9862 21.8406 39.3269 21.7506 39.5969 21.5706C39.867 21.3777 40.002 21.1013 40.002 20.7413C40.002 20.4841 39.9248 20.2719 39.7705 20.1048C39.6162 19.9248 39.3462 19.7447 38.9604 19.5647C38.5876 19.3847 38.0604 19.1661 37.3789 18.909C37.0446 18.7804 36.6717 18.6132 36.2602 18.4075C35.8488 18.1889 35.4501 17.9124 35.0644 17.5781C34.6915 17.2438 34.3765 16.8323 34.1193 16.3437C33.875 15.8551 33.7529 15.2765 33.7529 14.6079C33.7529 13.7592 33.9779 13.0456 34.4279 12.467C34.878 11.8755 35.4759 11.4255 36.2216 11.1169C36.9674 10.8083 37.7968 10.654 38.7097 10.654C39.6612 10.654 40.4841 10.8083 41.1785 11.1169C41.8728 11.4126 42.445 11.7919 42.8951 12.2548C43.3451 12.7049 43.6923 13.1613 43.9366 13.6242L41.1206 15.1865C40.9278 14.865 40.7027 14.6014 40.4456 14.3957C40.2013 14.1771 39.9377 14.01 39.6548 13.8942C39.3719 13.7785 39.0826 13.7207 38.7869 13.7207C38.414 13.7207 38.1182 13.7978 37.8996 13.9521C37.6811 14.1064 37.5718 14.3121 37.5718 14.5693C37.5718 14.865 37.6939 15.1158 37.9382 15.3215C38.1954 15.5144 38.5426 15.7008 38.9797 15.8808C39.4298 16.048 39.9441 16.2344 40.5227 16.4402C41.0242 16.6202 41.4807 16.8388 41.8921 17.0959C42.3164 17.3402 42.6829 17.636 42.9915 17.9832C43.3001 18.3175 43.538 18.7032 43.7051 19.1404C43.8723 19.5776 43.9559 20.0662 43.9559 20.6062C43.9559 21.3263 43.808 21.9628 43.5123 22.5157C43.2294 23.0686 42.8372 23.5315 42.3357 23.9044C41.8471 24.2644 41.2878 24.5344 40.6577 24.7144C40.0277 24.9073 39.3848 25.0038 38.729 25.0038C37.8032 25.0038 36.9417 24.843 36.1445 24.5216C35.3601 24.213 34.6787 23.7887 34.1 23.2486C33.5214 22.6957 33.0842 22.0849 32.7885 21.4163Z" fill="black"/>
<path d="M49.8084 15.7844V11.0011H46.0666V24.5023H49.8084V19.1211H55.1317V24.5023H58.8734V11.0011H55.1317V15.7844H49.8084Z" fill="black"/>
<path fill-rule="evenodd" clip-rule="evenodd" d="M60.8719 17.7517C60.8719 18.8061 61.0519 19.7769 61.412 20.6641C61.772 21.5513 62.2799 22.3228 62.9357 22.9786C63.6043 23.6215 64.3887 24.123 65.2887 24.483C66.1888 24.8302 67.1789 25.0038 68.259 25.0038C69.3391 25.0038 70.3292 24.8302 71.2292 24.483C72.1422 24.123 72.9265 23.6215 73.5823 22.9786C74.2381 22.3228 74.746 21.5513 75.106 20.6641C75.466 19.7769 75.646 18.8061 75.646 17.7517C75.646 16.6845 75.4596 15.7201 75.0867 14.8586C74.7267 13.9842 74.2123 13.2385 73.5437 12.6213C72.8751 11.9912 72.0907 11.509 71.1907 11.1747C70.3035 10.8276 69.3262 10.654 68.259 10.654C67.2175 10.654 66.2467 10.8276 65.3466 11.1747C64.4594 11.509 63.6815 11.9912 63.0128 12.6213C62.3442 13.2385 61.817 13.9842 61.4313 14.8586C61.0584 15.7201 60.8719 16.6845 60.8719 17.7517ZM64.8258 17.7517C64.8258 17.0188 64.9673 16.3759 65.2502 15.823C65.533 15.2701 65.9316 14.8393 66.446 14.5307C66.9603 14.2093 67.5646 14.0485 68.259 14.0485C68.9919 14.0485 69.6091 14.2093 70.1106 14.5307C70.6249 14.8393 71.0171 15.2701 71.2871 15.823C71.5571 16.3759 71.6921 17.0188 71.6921 17.7517C71.6921 18.4718 71.5507 19.1147 71.2678 19.6804C70.9849 20.2334 70.5863 20.6705 70.072 20.992C69.5705 21.3006 68.9662 21.4549 68.259 21.4549C67.5646 21.4549 66.9603 21.3006 66.446 20.992C65.9316 20.6705 65.533 20.2334 65.2502 19.6804C64.9673 19.1147 64.8258 18.4718 64.8258 17.7517Z" fill="black"/>
<path d="M87.0078 24.5023H77.6534V11.0011H87.0078V14.0293H81.2409V16.0159H86.6221V18.9475H81.2409V21.4742H87.0078V24.5023Z" fill="black"/>
<path d="M89.595 11.0011V12.9833H91.4111C91.614 12.9833 91.7785 13.1456 91.7785 13.3458C91.7785 13.5461 91.614 13.7084 91.4111 13.7084H89.595V15.1588H90.6764C90.8793 15.1588 91.0438 15.3212 91.0438 15.5214C91.0438 15.7217 90.8793 15.884 90.6764 15.884H89.595V17.3344H91.4111C91.614 17.3344 91.7785 17.4968 91.7785 17.697C91.7785 17.8973 91.614 18.0596 91.4111 18.0596H89.595V19.51H90.6764C90.8793 19.51 91.0438 19.6724 91.0438 19.8726C91.0438 20.0729 90.8793 20.2352 90.6764 20.2352H89.595V21.6856H91.4111C91.614 21.6856 91.7785 21.8479 91.7785 22.0482C91.7785 22.2485 91.614 22.4108 91.4111 22.4108H89.595V24.5023H93.1825V19.4297H97.985V16.4787H93.1825V14.1836H98.1779V11.0011H89.595Z" fill="black"/>
<path d="M104.395 24.5023H100.576V11.0011H104.395V24.5023Z" fill="black"/>
<path d="M105.818 14.3378H109.599V24.5023H113.34V14.3378H117.121V11.0011H105.818V14.3378Z" fill="black"/>
<path d="M121.559 14.3378H117.779V11.0011H129.081V14.3378H125.301V24.5023H121.559V14.3378Z" fill="black"/>
<path d="M139.86 24.5023V21.4742H134.093V18.9475H139.474V16.0159H134.093V14.0293H139.86V11.0011H130.505V24.5023H139.86Z" fill="black"/>
<path fill-rule="evenodd" clip-rule="evenodd" d="M146.991 20.0276L149.641 24.5023H154L150.63 19.543C150.687 19.519 150.743 19.4941 150.798 19.4683C151.608 19.0825 152.206 18.5489 152.592 17.8674C152.991 17.1731 153.19 16.3887 153.19 15.5144C153.19 14.6272 152.991 13.8492 152.592 13.1806C152.206 12.4991 151.608 11.9655 150.798 11.5798C150.001 11.194 148.985 11.0011 147.751 11.0011H142.447V24.5023H146.189V20.0276H146.991ZM146.189 14.1643V17.1924H147.442C147.841 17.1924 148.175 17.1345 148.445 17.0188C148.715 16.9031 148.921 16.7295 149.062 16.498C149.217 16.2666 149.294 15.9901 149.294 15.6687C149.294 15.3472 149.217 15.0772 149.062 14.8586C148.921 14.6272 148.715 14.4536 148.445 14.3378C148.175 14.2221 147.841 14.1643 147.442 14.1643H146.189Z" fill="black"/>
</svg>
