<svg width="46" height="46" viewBox="0 0 46 46" fill="none" xmlns="http://www.w3.org/2000/svg">
<g clip-path="url(#clip0_173_454)">
<path d="M23 46C35.7025 46 46 35.7025 46 23C46 10.2975 35.7025 0 23 0C10.2975 0 0 10.2975 0 23C0 35.7025 10.2975 46 23 46Z" fill="#DED3F2"/>
<path d="M22.1248 7.75259L13.4688 16.4542L13.4688 38.7581L30.7809 38.7581L30.7809 16.4541L22.1248 7.75259ZM22.1248 16.0946C21.0094 16.0946 20.1051 15.1904 20.1051 14.075C20.1051 12.9596 21.0093 12.0553 22.1248 12.0553C23.2403 12.0553 24.1445 12.9595 24.1445 14.075C24.1445 15.1904 23.2402 16.0946 22.1248 16.0946Z" fill="white"/>
<path d="M22.1358 19.9808L24.1002 23.9959L28.5039 24.647L25.3091 27.7722L26.0646 32.1996L22.1358 30.1161L18.1854 32.1996L18.9409 27.7722L15.7461 24.647L20.1498 23.9959L22.1358 19.9808Z" fill="#FFD852"/>
<path d="M21.2266 4.25815L23.0234 4.25815L23.0234 13.7816L21.2266 13.7816L21.2266 4.25815Z" fill="#0773A4"/>
</g>
<defs>
<clipPath id="clip0_173_454">
<rect width="46" height="46" fill="white"/>
</clipPath>
</defs>
</svg>
