<svg width="46" height="46" viewBox="0 0 46 46" fill="none" xmlns="http://www.w3.org/2000/svg">
<g clip-path="url(#clip0_173_438)">
<path d="M23 46C35.7025 46 46 35.7025 46 23C46 10.2975 35.7025 0 23 0C10.2975 0 0 10.2975 0 23C0 35.7025 10.2975 46 23 46Z" fill="#DED3F2"/>
<path d="M26.6274 16.4772L24.9727 19.043L26.8437 19.7926L28.4725 17.2668L26.6274 16.4772Z" fill="#AFB4C8"/>
<path d="M9.03385 12.0797C9.03385 12.0797 20.8153 22.4266 23.9245 13.1537C23.9245 13.1537 31.5253 20.2046 42.423 24.7626L7.10712 24.6669C7.52768 20.9624 8.2006 15.8556 9.03385 12.0797Z" fill="#0D2589"/>
<path d="M42.4053 24.7669L42.3842 29.5225L6.59432 29.4163C6.59432 29.4163 6.77274 27.445 7.08939 24.6712L42.4053 24.7669Z" fill="#E6F9FF"/>
</g>
<defs>
<clipPath id="clip0_173_438">
<rect width="46" height="46" fill="white"/>
</clipPath>
</defs>
</svg>
