<svg width="315" height="390" viewBox="0 0 315 390" fill="none" xmlns="http://www.w3.org/2000/svg">
<path fill-rule="evenodd" clip-rule="evenodd" d="M56.3531 363.95C69.2488 374.156 85.364 383.066 106.036 389.528L120.211 257.721L74.8371 251.871L56.3531 363.95Z" fill="#FFC6DA"/>
<path d="M210.209 44H99.7911C91.6188 44 85 50.7209 85 58.9898V306.01C85 314.292 91.6188 321 99.7911 321H210.209C218.381 321 225 314.279 225 306.01V59.003C225 50.7209 218.368 44.0132 210.209 44.0132V44Z" fill="#FAFAFA"/>
<path d="M155.486 50.8961H146.448C145.649 50.8961 145 50.247 145 49.4481C145 48.6491 145.649 48 146.448 48H155.486C156.285 48 156.934 48.6491 156.934 49.4481C156.934 50.247 156.285 50.8961 155.486 50.8961ZM164.424 49.4481C164.424 48.6491 163.775 48 162.976 48H161.828C161.029 48 160.38 48.6491 160.38 49.4481C160.38 50.247 161.029 50.8961 161.828 50.8961H162.976C163.775 50.8961 164.424 50.247 164.424 49.4481Z" fill="#D9E3F7"/>
<path d="M210.552 47.8521L85.3203 306.437C85.3203 314.611 91.9403 321.231 100.114 321.231H210.552C218.726 321.231 225.346 314.598 225.346 306.437V62.6589C225.346 54.4851 218.713 47.8651 210.552 47.8651V47.8521Z" fill="#FAFAFA"/>
<path d="M202.229 53.2547H108.514C101.585 53.2547 95.9609 59.3668 95.9609 66.8831V296.854C95.9609 304.384 101.572 310.482 108.514 310.482H202.229C209.158 310.482 214.782 304.384 214.782 296.854V66.8831C214.782 59.3534 209.158 53.2547 202.229 53.2547Z" fill="#FFF3C7"/>
<path d="M148.312 301.437C151.384 304.509 156.366 304.509 159.438 301.437C162.51 298.365 162.51 293.384 159.438 290.311C156.366 287.239 151.384 287.239 148.312 290.311C145.24 293.384 145.24 298.365 148.312 301.437Z" fill="#FF7D4F"/>
<path d="M145.173 295.874C145.173 291.078 149.076 287.175 153.871 287.175C158.667 287.175 162.57 291.078 162.57 295.874C162.57 300.67 158.667 304.572 153.871 304.572C149.076 304.572 145.173 300.67 145.173 295.874ZM162.339 295.874C162.339 291.205 158.54 287.411 153.876 287.411C149.213 287.411 145.414 291.21 145.414 295.874C145.414 300.537 149.213 304.336 153.876 304.336C158.54 304.336 162.339 300.537 162.339 295.874Z" fill="#FF7D4F"/>
<path d="M203 52.9998H108C101.373 52.9998 96 58.3724 96 64.9998V211H215V64.9998C215 58.3724 209.627 52.9998 203 52.9998Z" fill="#FF7D4F"/>
<rect x="122" y="97.9998" width="68" height="94" fill="white"/>
<g filter="url(#filter0_d_138_840)">
<path d="M138 53C138 53 138.167 54.2143 138.501 55.5696C139.002 57.6093 140.003 61.6818 141.032 66.2777C142.061 70.8736 143.116 75.9928 144.037 80.1258C144.957 84.252 145.749 87.3853 146.223 89.7134C146.696 92.0415 146.859 93.5511 147.197 95.2754C147.542 96.9997 148.063 98.932 148.036 101.025C148.009 103.112 147.427 105.36 147.035 107.319C146.642 109.278 146.426 110.948 146.588 112.632C146.744 114.317 147.271 116.001 147.644 117.403C148.016 118.805 148.239 119.912 148.016 121.945C147.793 123.978 147.123 126.93 146.486 129.332C145.85 131.734 145.255 133.579 144.754 135.115C144.253 136.652 143.84 137.866 143.468 139.403C143.096 140.939 142.758 142.784 142.48 144.408C142.203 146.032 141.979 147.434 141.661 148.655C141.343 149.876 140.937 150.909 140.578 151.909C140.22 152.909 139.929 153.868 139.854 154.921C139.78 155.975 139.929 157.115 140.132 158.283C140.335 159.443 140.599 160.631 140.822 161.476C141.045 162.328 141.228 162.845 141.323 163.321C141.418 163.805 141.418 164.247 141.641 165.019C141.864 165.797 142.311 166.904 142.71 167.709C143.109 168.514 143.468 169.011 143.719 169.393C143.969 169.769 144.118 170.031 144.321 170.205C144.524 170.38 144.788 170.474 145.018 170.527C145.248 170.581 145.458 170.601 145.559 170.742C145.661 170.883 145.661 171.138 145.701 171.507C145.742 171.876 145.81 172.352 145.932 172.902C146.053 173.446 146.223 174.056 146.459 174.6C146.703 175.143 147.021 175.626 147.468 175.955C147.914 176.291 148.496 176.472 148.977 176.512C149.464 176.546 149.85 176.438 150.148 176.331C150.445 176.217 150.648 176.109 150.75 176.257C150.852 176.405 150.852 176.814 150.892 177.21C150.933 177.606 151.007 177.995 151.17 178.364C151.339 178.733 151.596 179.082 151.887 179.35C152.178 179.618 152.496 179.8 152.807 179.907C153.125 180.008 153.443 180.028 153.789 180.028C154.134 180.028 154.506 180.008 154.824 179.954C155.142 179.9 155.399 179.806 155.562 179.592C155.717 179.377 155.778 179.048 155.799 178.813C155.819 178.585 155.799 178.451 155.799 178.203C155.799 177.955 155.819 177.586 155.88 177.25C155.947 176.915 156.056 176.619 156.103 176.244C156.15 175.868 156.13 175.405 156.049 174.996C155.968 174.586 155.819 174.238 155.731 173.768C155.65 173.298 155.629 172.708 155.609 172.231C155.589 171.762 155.568 171.413 155.535 171.104C155.494 170.802 155.44 170.541 155.555 170.4C155.67 170.259 155.947 170.245 156.13 170.453C156.313 170.668 156.408 171.111 156.408 171.534C156.408 171.956 156.313 172.366 156.313 172.782C156.313 173.198 156.408 173.62 156.489 174.056C156.57 174.493 156.645 174.935 156.645 175.351C156.645 175.767 156.57 176.156 156.475 176.512C156.381 176.874 156.272 177.203 156.198 177.539C156.123 177.874 156.083 178.203 156.069 178.478C156.049 178.753 156.049 178.974 155.995 179.256C155.941 179.531 155.826 179.867 155.751 180.169C155.677 180.471 155.636 180.752 155.704 180.987C155.771 181.222 155.934 181.43 156.157 181.584C156.381 181.739 156.658 181.853 157.044 181.926C157.423 182 157.91 182.041 158.33 182.054C158.749 182.074 159.101 182.074 159.487 181.973C159.866 181.873 160.279 181.671 160.766 181.752C161.246 181.833 161.808 182.208 162.316 182.463C162.816 182.725 163.263 182.872 163.75 182.946C164.238 183.02 164.759 183.02 165.232 182.953C165.706 182.886 166.133 182.758 166.491 182.51C166.843 182.262 167.127 181.893 167.378 181.423C167.628 180.954 167.852 180.377 168.041 179.887C168.23 179.397 168.379 178.994 168.535 178.565C168.691 178.142 168.86 177.7 168.907 177.163C168.955 176.626 168.88 175.995 168.887 175.445C168.894 174.888 168.988 174.412 169.063 173.882C169.137 173.359 169.191 172.782 169.205 172.379C169.212 171.97 169.178 171.735 169.225 171.124C169.273 170.514 169.401 169.534 169.625 168.649C169.848 167.763 170.166 166.965 170.443 165.972C170.721 164.979 170.965 163.771 171.141 162.684C171.316 161.597 171.432 160.618 171.432 159.618C171.432 158.618 171.316 157.605 171.188 156.377C171.059 155.15 170.91 153.707 170.809 152.224C170.707 150.735 170.653 149.205 170.687 147.561C170.728 145.917 170.856 144.16 171.053 142.214C171.249 140.268 171.506 138.121 171.702 136.545C171.898 134.968 172.027 133.948 171.98 132.479C171.932 131.009 171.709 129.09 171.404 127.078C171.1 125.065 170.707 122.958 170.498 121.428C170.295 119.899 170.274 118.933 170.2 117.973C170.125 117.014 169.997 116.054 169.875 115.028C169.753 114.001 169.645 112.914 169.753 112.009C169.861 111.103 170.2 110.385 170.403 109.654C170.606 108.922 170.68 108.184 170.599 107.332C170.518 106.48 170.274 105.521 169.801 104.085C169.327 102.642 168.616 100.723 168.19 99.3547C167.764 97.986 167.615 97.1742 167.527 94.5642C167.445 91.9543 167.425 87.5329 167.33 83.9903C167.242 80.4478 167.08 77.7708 167.418 74.235C167.757 70.7059 168.603 66.3113 169.259 63.2048C169.916 60.0984 170.389 58.2668 170.592 56.9987C170.789 55.7306 170.592 52.9998 170.592 52.9998C170.592 52.9998 143.69 52.6951 138 53ZM150.445 168.481C150.493 168.494 150.588 168.521 150.676 168.555C150.764 168.588 150.845 168.622 150.967 168.689C151.088 168.756 151.244 168.843 151.318 169.004C151.386 169.159 151.366 169.387 151.298 169.662C151.23 169.944 151.109 170.286 151.007 170.561C150.906 170.836 150.824 171.051 150.764 171.064C150.709 171.077 150.682 170.896 150.635 170.708C150.594 170.521 150.54 170.339 150.493 170.125C150.445 169.91 150.412 169.675 150.398 169.393C150.385 169.112 150.398 168.79 150.398 168.629C150.398 168.468 150.398 168.468 150.452 168.481H150.445Z" fill="#FFC6DA"/>
</g>
<path d="M161.389 167.132C161.403 167.649 161.43 168.689 161.45 169.44C161.47 170.192 161.491 170.655 161.504 171.178C161.518 171.701 161.524 172.292 161.531 172.768C161.531 173.251 161.545 173.62 161.511 173.935C161.477 174.251 161.403 174.512 161.389 175.177C161.376 175.841 161.409 176.901 161.436 177.102C161.457 177.304 161.464 176.646 161.47 176.136C161.477 175.626 161.47 175.257 161.497 174.969C161.524 174.68 161.579 174.466 161.619 174.15C161.66 173.835 161.707 173.426 161.727 172.701C161.748 171.983 161.748 170.95 161.741 170.272C161.734 169.595 161.734 169.286 161.829 168.964C161.924 168.642 162.12 168.32 162.242 168.085C162.364 167.85 162.397 167.716 162.309 167.763C162.215 167.81 161.991 168.045 161.863 168.125C161.734 168.206 161.7 168.125 161.646 167.944C161.592 167.763 161.511 167.474 161.463 167.233C161.416 166.991 161.396 166.797 161.382 166.696C161.378 166.629 161.378 166.77 161.382 167.119L161.389 167.132Z" fill="#A06760"/>
<path d="M156.187 167.374C156.113 167.508 155.971 167.783 155.856 168.078C155.741 168.373 155.666 168.682 155.605 168.977C155.544 169.272 155.504 169.548 155.483 169.782C155.463 170.017 155.463 170.212 155.558 170.359C155.653 170.5 155.835 170.594 155.991 170.634C156.147 170.675 156.282 170.661 156.39 170.534C156.499 170.406 156.593 170.172 156.641 169.829C156.688 169.487 156.688 169.024 156.675 168.709C156.661 168.387 156.634 168.206 156.56 167.984C156.485 167.763 156.37 167.501 156.309 167.367C156.269 167.282 156.226 167.282 156.181 167.367L156.187 167.374Z" fill="#A06760"/>
<path d="M151.035 165.032C150.947 165.294 150.778 165.817 150.656 166.334C150.527 166.85 150.453 167.36 150.399 167.77C150.345 168.179 150.318 168.494 150.399 168.635C150.48 168.776 150.663 168.756 150.825 168.789C150.988 168.83 151.137 168.93 151.238 168.903C151.346 168.87 151.407 168.702 151.434 168.441C151.461 168.179 151.448 167.823 151.434 167.495C151.421 167.159 151.407 166.85 151.387 166.468C151.367 166.092 151.34 165.643 151.313 165.348C151.285 165.052 151.258 164.891 151.225 164.817C151.191 164.744 151.15 164.757 151.13 164.764C151.13 164.764 151.094 164.853 151.022 165.032H151.035Z" fill="#A06760"/>
<path d="M150.347 170.621C150.36 170.983 150.387 171.715 150.401 172.251C150.414 172.788 150.414 173.124 150.448 173.479C150.482 173.835 150.55 174.197 150.543 174.633C150.543 175.069 150.455 175.579 150.469 175.707C150.482 175.827 150.59 175.573 150.665 175.264C150.746 174.955 150.793 174.606 150.787 174.251C150.787 173.902 150.712 173.546 150.699 173.164C150.685 172.788 150.726 172.379 150.76 172.023C150.793 171.668 150.82 171.352 150.793 171.138C150.766 170.923 150.685 170.802 150.604 170.675C150.516 170.547 150.428 170.4 150.381 170.326C150.349 170.277 150.338 170.375 150.347 170.621Z" fill="#A06760"/>
<path d="M145.94 161.174C146.089 161.57 146.394 162.369 146.543 162.979C146.691 163.59 146.671 164.006 146.644 164.422C146.61 164.838 146.556 165.26 146.495 165.643C146.427 166.025 146.353 166.381 146.272 166.716C146.191 167.052 146.116 167.36 146.055 167.615C145.994 167.87 145.954 168.065 145.906 168.326C145.852 168.588 145.785 168.917 145.778 168.93C145.764 168.95 145.805 168.662 145.832 168.353C145.859 168.045 145.873 167.723 145.933 167.407C145.994 167.092 146.096 166.79 146.15 166.421C146.204 166.052 146.204 165.602 146.17 165.207C146.136 164.811 146.069 164.455 146.008 164.1C145.947 163.744 145.879 163.375 145.798 162.966C145.717 162.556 145.629 162.1 145.629 161.724C145.629 161.355 145.724 161.067 145.764 160.919C145.796 160.825 145.861 160.91 145.961 161.174H145.94Z" fill="#A06760"/>
<path d="M143.997 168.367C143.976 168.561 143.963 168.756 143.949 168.944C143.943 169.132 143.943 169.319 143.963 169.454C143.983 169.588 144.031 169.668 144.085 169.729C144.139 169.789 144.193 169.809 144.335 169.796C144.477 169.776 144.714 169.715 144.91 169.668C145.107 169.621 145.262 169.595 145.384 169.574C145.499 169.554 145.574 169.548 145.621 169.507C145.668 169.467 145.689 169.393 145.668 169.252C145.648 169.111 145.594 168.897 145.553 168.709C145.513 168.521 145.486 168.353 145.398 168.226C145.316 168.098 145.174 168.018 145.032 167.964C144.89 167.91 144.755 167.897 144.606 167.897C144.464 167.897 144.315 167.917 144.213 167.998C144.112 168.078 144.058 168.226 143.997 168.373V168.367Z" fill="#F2EBFF"/>
<path d="M147.308 175.586C147.335 175.257 147.362 174.935 147.416 174.687C147.47 174.445 147.558 174.278 147.68 174.184C147.802 174.083 147.971 174.056 148.181 174.056C148.39 174.056 148.648 174.09 148.932 174.197C149.216 174.304 149.534 174.486 149.751 174.667C149.967 174.848 150.075 175.022 150.157 175.19C150.238 175.358 150.278 175.512 150.265 175.66C150.251 175.801 150.17 175.935 150.048 176.015C149.927 176.096 149.771 176.129 149.548 176.156C149.318 176.183 149.026 176.203 148.803 176.203C148.58 176.203 148.438 176.196 148.248 176.136C148.059 176.076 147.829 175.975 147.666 175.874C147.504 175.774 147.402 175.687 147.301 175.593L147.308 175.586Z" fill="#F2EBFF"/>
<path d="M152.253 177.371C152.24 177.512 152.206 177.793 152.179 178.089C152.152 178.384 152.131 178.686 152.138 178.88C152.138 179.075 152.165 179.149 152.233 179.202C152.3 179.256 152.402 179.283 152.558 179.289C152.713 179.296 152.916 179.289 153.268 179.289C153.613 179.289 154.114 179.289 154.486 179.289C154.859 179.289 155.109 179.283 155.258 179.256C155.407 179.229 155.454 179.182 155.447 179.035C155.447 178.88 155.38 178.619 155.285 178.33C155.19 178.042 155.055 177.72 154.919 177.485C154.784 177.25 154.649 177.109 154.439 177.015C154.229 176.921 153.945 176.874 153.62 176.847C153.295 176.82 152.937 176.807 152.707 176.874C152.476 176.941 152.375 177.096 152.328 177.169C152.296 177.219 152.273 177.29 152.26 177.384L152.253 177.371Z" fill="#F2EBFF"/>
<path d="M157.944 179.471C157.836 179.538 157.606 179.665 157.477 179.82C157.342 179.974 157.308 180.148 157.268 180.37C157.234 180.591 157.2 180.846 157.18 181.088C157.166 181.322 157.166 181.53 157.213 181.685C157.261 181.832 157.362 181.926 157.518 181.98C157.674 182.034 157.883 182.054 158.134 182.06C158.378 182.06 158.662 182.06 158.932 182.054C159.196 182.054 159.447 182.04 159.677 182.013C159.9 181.987 160.096 181.933 160.239 181.886C160.374 181.839 160.455 181.792 160.482 181.671C160.509 181.557 160.489 181.363 160.469 181.114C160.448 180.866 160.421 180.551 160.367 180.296C160.32 180.048 160.245 179.853 160.015 179.679C159.792 179.497 159.406 179.33 159.108 179.256C158.811 179.182 158.594 179.202 158.432 179.243C158.269 179.283 158.168 179.35 158.114 179.383C158.059 179.417 158.059 179.417 157.951 179.484L157.944 179.471Z" fill="#F2EBFF"/>
<path d="M165.137 178.162C165.299 178.236 165.624 178.377 165.827 178.511C166.03 178.639 166.118 178.759 166.186 178.961C166.254 179.162 166.301 179.451 166.24 179.826C166.179 180.202 166.017 180.672 165.834 181.135C165.651 181.598 165.448 182.047 165.286 182.289C165.13 182.53 165.015 182.564 164.805 182.55C164.596 182.544 164.298 182.49 163.959 182.443C163.621 182.403 163.242 182.369 162.944 182.342C162.647 182.315 162.423 182.295 162.173 182.255C161.922 182.215 161.658 182.154 161.483 182.081C161.313 182 161.239 181.906 161.205 181.785C161.171 181.665 161.171 181.53 161.205 181.161C161.246 180.792 161.327 180.189 161.374 179.752C161.422 179.316 161.442 179.041 161.503 178.82C161.564 178.598 161.658 178.437 161.909 178.31C162.153 178.182 162.552 178.082 162.978 178.008C163.405 177.934 163.858 177.887 164.196 177.907C164.535 177.921 164.758 178.001 164.873 178.042C164.95 178.068 165.04 178.106 165.144 178.156L165.137 178.162Z" fill="#F2EBFF"/>
<path d="M112.16 197.941L112.16 65.8808L197.836 65.8808L197.836 197.941L112.16 197.941ZM112.522 66.2093L112.522 197.613L197.474 197.613L197.474 66.2093L112.522 66.2093Z" fill="#E2E2E2"/>
<path d="M199 182.565C199 182.229 198.703 181.953 198.327 181.953C197.95 181.953 197.653 182.223 197.653 182.565L197.653 197.777L181.957 197.777C181.588 197.777 181.284 198.047 181.284 198.389C181.284 198.73 181.581 199 181.957 199L198.993 199L198.993 182.571L199 182.565Z" fill="white"/>
<path d="M112.338 74.1413L112.338 66.0518L120.186 66.0518C120.555 66.0518 120.859 65.7824 120.859 65.4406C120.859 65.0989 120.563 64.8295 120.186 64.8295L110.999 64.8295L110.999 74.1413C110.999 74.4764 111.296 74.7524 111.672 74.7524C112.049 74.7524 112.345 74.483 112.345 74.1413L112.338 74.1413Z" fill="white"/>
<path d="M199 64.8294L199 81.2581C199 81.5933 198.703 81.8693 198.327 81.8693C197.95 81.8693 197.653 81.5998 197.653 81.2581L197.653 66.0451L181.957 66.0451C181.588 66.0451 181.284 65.7757 181.284 65.434C181.284 65.0923 181.581 64.8228 181.957 64.8228L198.993 64.8228L199 64.8294Z" fill="white"/>
<path d="M112.338 189.681L112.338 197.771L120.186 197.771C120.555 197.771 120.859 198.04 120.859 198.382C120.859 198.723 120.563 198.993 120.186 198.993L110.999 198.993L110.999 189.681C110.999 189.346 111.296 189.07 111.672 189.07C112.049 189.07 112.345 189.339 112.345 189.681L112.338 189.681Z" fill="white"/>
<path d="M139.476 239.625C140.415 235.628 137.935 231.626 133.937 230.688C129.939 229.75 125.938 232.23 125 236.227C124.061 240.225 126.541 244.226 130.539 245.164C134.536 246.103 138.538 243.623 139.476 239.625Z" stroke="#C7C7C7" stroke-width="0.5" stroke-miterlimit="10"/>
<path d="M128.887 237.935C128.887 236.084 130.388 234.588 132.233 234.588C134.078 234.588 135.58 236.09 135.58 237.935C135.58 239.78 134.078 241.281 132.233 241.281C130.388 241.281 128.887 239.78 128.887 237.935Z" stroke="#C7C7C7" stroke-width="0.75" stroke-miterlimit="10"/>
<path d="M132.242 240.724V240.411H134.498C134.375 240.521 134.24 240.632 134.099 240.724H132.242Z" fill="#C7C7C7"/>
<path d="M132.241 239.964V239.651H135.109C135.054 239.761 134.98 239.865 134.901 239.964H132.234H132.241Z" fill="#C7C7C7"/>
<path d="M132.242 239.216V238.903H135.448C135.417 239.008 135.38 239.118 135.338 239.216H132.242Z" fill="#C7C7C7"/>
<path d="M132.242 238.462V238.149H135.583C135.583 238.253 135.57 238.364 135.546 238.462H132.242Z" fill="#C7C7C7"/>
<path d="M132.242 237.714V237.401H135.546C135.57 237.499 135.583 237.61 135.583 237.714H132.242Z" fill="#C7C7C7"/>
<path d="M132.242 236.966V236.654H135.338C135.38 236.752 135.417 236.862 135.448 236.966H132.242Z" fill="#C7C7C7"/>
<path d="M132.242 236.213V235.9H134.902C134.982 235.998 135.056 236.108 135.117 236.213H132.248H132.242Z" fill="#C7C7C7"/>
<path d="M132.242 235.465V235.153H134.099C134.24 235.244 134.375 235.355 134.498 235.465H132.242Z" fill="#C7C7C7"/>
<path d="M143.535 222.734C143.535 221.931 144.209 221.281 145.025 221.275C145.38 221.275 145.705 221.392 145.962 221.594C146.06 221.674 146.079 221.815 146.005 221.919C145.926 222.023 145.772 222.035 145.68 221.962C145.503 221.815 145.282 221.741 145.031 221.741C144.749 221.741 144.491 221.851 144.301 222.035C144.117 222.219 144.007 222.464 144.007 222.74C144.007 223.016 144.124 223.267 144.301 223.445C144.491 223.623 144.749 223.739 145.031 223.739C145.282 223.739 145.503 223.666 145.68 223.519C145.772 223.451 145.926 223.463 146.005 223.561C146.079 223.666 146.06 223.807 145.962 223.886C145.705 224.082 145.386 224.205 145.025 224.205C144.216 224.205 143.541 223.555 143.535 222.746V222.734Z" fill="#263238"/>
<path d="M148.942 221.71C149.193 221.98 149.352 222.336 149.352 222.734C149.352 223.132 149.193 223.494 148.942 223.758C148.703 224.021 148.347 224.193 147.973 224.193C147.599 224.193 147.226 224.021 146.98 223.758C146.729 223.494 146.582 223.132 146.582 222.734C146.582 222.336 146.729 221.974 146.98 221.71C147.226 221.441 147.581 221.275 147.973 221.275C148.366 221.275 148.703 221.441 148.942 221.71ZM148.887 222.734C148.887 222.458 148.776 222.201 148.611 222.023C148.439 221.839 148.212 221.735 147.973 221.735C147.716 221.735 147.489 221.839 147.318 222.023C147.146 222.201 147.042 222.458 147.042 222.734C147.042 223.01 147.146 223.267 147.318 223.439C147.489 223.623 147.716 223.733 147.973 223.733C148.219 223.733 148.445 223.623 148.611 223.439C148.776 223.267 148.887 223.01 148.887 222.734Z" fill="#263238"/>
<path d="M150.484 223.966C150.484 224.089 150.38 224.187 150.264 224.187C150.141 224.187 150.043 224.089 150.043 223.966V221.613C150.043 221.539 150.074 221.466 150.135 221.423C150.239 221.355 150.374 221.374 150.441 221.472L151.747 223.28V221.613C151.747 221.496 151.845 221.392 151.968 221.392C152.09 221.392 152.188 221.496 152.188 221.613V223.966C152.188 224.089 152.084 224.187 151.968 224.187C151.9 224.187 151.845 224.156 151.802 224.107C151.796 224.101 151.784 224.089 151.784 224.083L150.49 222.287V223.966H150.484Z" fill="#263238"/>
<path d="M154.857 221.809H154.213V223.972C154.213 224.095 154.115 224.193 153.993 224.193C153.87 224.193 153.772 224.095 153.772 223.972V221.809H153.135C153.012 221.809 152.914 221.705 152.914 221.582C152.914 221.459 153.012 221.361 153.135 221.361H154.863C154.986 221.361 155.084 221.459 155.084 221.582C155.084 221.705 154.98 221.809 154.863 221.809H154.857Z" fill="#263238"/>
<path d="M157.626 223.856C157.669 223.972 157.602 224.101 157.485 224.138C157.467 224.138 157.436 224.15 157.393 224.15C157.35 224.15 157.295 224.144 157.234 224.107C157.179 224.077 157.136 224.022 157.105 223.966C157.05 223.85 157.019 223.703 157.019 223.482C157.019 223.402 157.001 223.353 156.97 223.311C156.946 223.268 156.897 223.225 156.848 223.194C156.762 223.139 156.658 223.108 156.621 223.096H156.143V223.972C156.143 224.095 156.039 224.193 155.916 224.193C155.793 224.193 155.695 224.095 155.695 223.972V221.582C155.695 221.453 155.793 221.361 155.916 221.361H156.639C157.123 221.361 157.503 221.748 157.503 222.232C157.503 222.501 157.381 222.734 157.185 222.894C157.234 222.937 157.283 222.98 157.326 223.041C157.405 223.157 157.461 223.311 157.461 223.476C157.461 223.599 157.467 223.672 157.479 223.715C157.546 223.733 157.595 223.782 157.62 223.85L157.626 223.856ZM157.062 222.226C157.062 221.993 156.878 221.803 156.645 221.803H156.149V222.636H156.645C156.878 222.636 157.062 222.452 157.062 222.226Z" fill="#263238"/>
<path d="M159.73 223.525H158.744L158.547 224.052C158.511 224.138 158.425 224.193 158.339 224.193C158.308 224.193 158.284 224.193 158.259 224.181C158.143 224.138 158.088 224.009 158.125 223.887L159.019 221.502C159.056 221.41 159.142 221.355 159.234 221.361C159.326 221.361 159.412 221.417 159.449 221.502L160.343 223.887C160.386 224.003 160.325 224.132 160.209 224.181C160.19 224.187 160.16 224.193 160.135 224.193C160.043 224.193 159.963 224.138 159.927 224.052L159.73 223.525ZM159.565 223.078L159.234 222.207L158.903 223.078H159.559H159.565Z" fill="#263238"/>
<path d="M160.741 223.488C160.814 223.402 160.949 223.39 161.035 223.457C161.213 223.604 161.519 223.776 161.807 223.77C162.01 223.77 162.194 223.708 162.316 223.623C162.439 223.537 162.488 223.433 162.488 223.328C162.488 223.273 162.475 223.237 162.451 223.2C162.426 223.157 162.39 223.12 162.328 223.077C162.212 223.004 162.01 222.93 161.771 222.887H161.764C161.574 222.85 161.397 222.801 161.243 222.728C161.09 222.654 160.955 222.556 160.87 222.409C160.808 222.311 160.778 222.201 160.778 222.078C160.778 221.833 160.912 221.625 161.102 221.49C161.293 221.355 161.538 221.275 161.801 221.275C162.187 221.275 162.475 221.465 162.684 221.6C162.776 221.667 162.806 221.796 162.739 221.888C162.678 221.986 162.549 222.011 162.451 221.949C162.243 221.808 162.046 221.692 161.801 221.692C161.617 221.692 161.458 221.747 161.348 221.827C161.237 221.906 161.194 221.998 161.194 222.084C161.194 222.133 161.201 222.164 161.225 222.201C161.243 222.231 161.28 222.268 161.335 222.305C161.44 222.378 161.623 222.44 161.844 222.483H161.85C162.059 222.526 162.249 222.575 162.408 222.654C162.574 222.734 162.721 222.838 162.813 222.991C162.874 223.089 162.911 223.212 162.911 223.335C162.911 223.592 162.764 223.819 162.561 223.96C162.365 224.107 162.102 224.193 161.814 224.193C161.378 224.193 161.011 223.972 160.778 223.788C160.686 223.715 160.673 223.58 160.747 223.494L160.741 223.488Z" fill="#263238"/>
<path d="M165.201 221.809H164.557V223.972C164.557 224.095 164.459 224.193 164.337 224.193C164.214 224.193 164.116 224.095 164.116 223.972V221.809H163.478C163.356 221.809 163.258 221.705 163.258 221.582C163.258 221.459 163.356 221.361 163.478 221.361H165.207C165.33 221.361 165.428 221.459 165.428 221.582C165.428 221.705 165.33 221.809 165.207 221.809H165.201Z" fill="#263238"/>
<path d="M112.894 244.787C116.683 243.204 118.471 238.849 116.888 235.06C115.304 231.271 110.949 229.484 107.161 231.067C103.372 232.65 101.584 237.005 103.168 240.794C104.751 244.582 109.106 246.37 112.894 244.787Z" stroke="#C7C7C7" stroke-width="0.5" stroke-miterlimit="10"/>
<path d="M110.019 241.282C111.867 241.282 113.365 239.784 113.365 237.935C113.365 236.087 111.867 234.589 110.019 234.589C108.17 234.589 106.672 236.087 106.672 237.935C106.672 239.784 108.17 241.282 110.019 241.282Z" stroke="#C7C7C7" stroke-width="0.75" stroke-miterlimit="10"/>
<path d="M110.02 234.582C111.871 234.582 113.366 236.084 113.366 237.929C113.366 239.774 111.864 241.276 110.02 241.276V234.576V234.582Z" fill="#C7C7C7"/>
<path d="M110.021 235.146V235.459H107.766C107.888 235.349 108.023 235.238 108.164 235.146H110.021Z" fill="#C7C7C7"/>
<path d="M110.021 235.906V236.219H107.152C107.208 236.108 107.281 236.004 107.361 235.906H110.027H110.021Z" fill="#C7C7C7"/>
<path d="M110.022 236.654V236.967H106.816C106.847 236.862 106.884 236.752 106.927 236.654H110.022Z" fill="#C7C7C7"/>
<path d="M110.02 237.408V237.721H106.68C106.68 237.617 106.692 237.506 106.716 237.408H110.02Z" fill="#C7C7C7"/>
<path d="M110.02 238.156V238.469H106.716C106.692 238.371 106.68 238.26 106.68 238.156H110.02Z" fill="#C7C7C7"/>
<path d="M110.022 238.904V239.216H106.927C106.884 239.118 106.847 239.008 106.816 238.904H110.022Z" fill="#C7C7C7"/>
<path d="M110.019 239.657V239.97H107.359C107.279 239.872 107.206 239.762 107.145 239.657H110.013H110.019Z" fill="#C7C7C7"/>
<path d="M110.021 240.405V240.718H108.164C108.023 240.626 107.888 240.516 107.766 240.405H110.021Z" fill="#C7C7C7"/>
<path d="M157.012 244.926C160.867 243.51 162.844 239.238 161.428 235.384C160.012 231.529 155.74 229.552 151.885 230.968C148.031 232.384 146.054 236.656 147.47 240.511C148.886 244.365 153.158 246.342 157.012 244.926Z" stroke="#263238" stroke-width="0.5" stroke-miterlimit="10"/>
<path d="M154.456 241.282C156.304 241.282 157.803 239.784 157.803 237.936C157.803 236.087 156.304 234.589 154.456 234.589C152.608 234.589 151.109 236.087 151.109 237.936C151.109 239.784 152.608 241.282 154.456 241.282Z" stroke="#263238" stroke-width="0.75" stroke-miterlimit="10"/>
<path d="M154.457 234.582C156.308 234.582 157.804 236.084 157.804 237.929C157.804 239.774 156.302 241.275 154.457 241.275V234.576V234.582Z" fill="#263238"/>
<path d="M181.936 243.19C184.839 240.287 184.839 235.579 181.936 232.676C179.032 229.772 174.325 229.772 171.421 232.676C168.518 235.579 168.518 240.287 171.421 243.19C174.325 246.094 179.032 246.094 181.936 243.19Z" stroke="#C7C7C7" stroke-width="0.5" stroke-miterlimit="10"/>
<path d="M178.333 237.935C178.333 238.849 177.592 239.59 176.678 239.59C175.765 239.59 175.023 238.849 175.023 237.935C175.023 237.022 175.765 236.281 176.678 236.281C177.592 236.281 178.333 237.022 178.333 237.935Z" fill="#C7C7C7"/>
<path d="M177.057 235.067C177.057 235.275 176.885 235.447 176.677 235.447C176.468 235.447 176.297 235.275 176.297 235.067C176.297 234.858 176.468 234.687 176.677 234.687C176.885 234.687 177.057 234.858 177.057 235.067Z" fill="#C7C7C7"/>
<path d="M174.919 235.637C175.066 235.784 175.066 236.029 174.919 236.176C174.772 236.323 174.527 236.323 174.38 236.176C174.233 236.029 174.233 235.784 174.38 235.637C174.527 235.49 174.772 235.49 174.919 235.637Z" fill="#C7C7C7"/>
<path d="M173.81 237.555C174.018 237.555 174.19 237.727 174.19 237.935C174.19 238.144 174.018 238.315 173.81 238.315C173.601 238.315 173.43 238.144 173.43 237.935C173.43 237.727 173.601 237.555 173.81 237.555Z" fill="#C7C7C7"/>
<path d="M174.38 239.695C174.527 239.548 174.772 239.548 174.919 239.695C175.066 239.842 175.066 240.087 174.919 240.234C174.772 240.381 174.527 240.381 174.38 240.234C174.233 240.087 174.233 239.842 174.38 239.695Z" fill="#C7C7C7"/>
<path d="M176.297 240.804C176.297 240.595 176.468 240.424 176.677 240.424C176.885 240.424 177.057 240.595 177.057 240.804C177.057 241.012 176.885 241.184 176.677 241.184C176.468 241.184 176.297 241.012 176.297 240.804Z" fill="#C7C7C7"/>
<path d="M178.438 240.234C178.291 240.087 178.291 239.842 178.438 239.695C178.586 239.548 178.831 239.548 178.978 239.695C179.125 239.842 179.125 240.087 178.978 240.234C178.831 240.381 178.586 240.381 178.438 240.234Z" fill="#C7C7C7"/>
<path d="M179.548 238.315C179.34 238.315 179.168 238.144 179.168 237.935C179.168 237.727 179.34 237.555 179.548 237.555C179.756 237.555 179.928 237.727 179.928 237.935C179.928 238.144 179.756 238.315 179.548 238.315Z" fill="#C7C7C7"/>
<path d="M178.978 236.176C178.831 236.323 178.586 236.323 178.438 236.176C178.291 236.029 178.291 235.784 178.438 235.637C178.586 235.49 178.831 235.49 178.978 235.637C179.125 235.784 179.125 236.029 178.978 236.176Z" fill="#C7C7C7"/>
<path d="M201.769 244.782C205.558 243.198 207.346 238.844 205.763 235.055C204.179 231.266 199.824 229.478 196.036 231.062C192.247 232.645 190.459 237 192.043 240.788C193.626 244.577 197.981 246.365 201.769 244.782Z" stroke="#C7C7C7" stroke-width="0.5" stroke-miterlimit="10"/>
<path d="M198.896 240.804C200.48 240.804 201.764 239.52 201.764 237.935C201.764 236.351 200.48 235.067 198.896 235.067C197.312 235.067 196.027 236.351 196.027 237.935C196.027 239.52 197.312 240.804 198.896 240.804Z" fill="#C7C7C7"/>
<path d="M198.896 238.67C199.302 238.67 199.631 238.341 199.631 237.935C199.631 237.529 199.302 237.199 198.896 237.199C198.489 237.199 198.16 237.529 198.16 237.935C198.16 238.341 198.489 238.67 198.896 238.67Z" fill="white"/>
<path d="M203.139 255.171H105.786C105.309 255.171 104.922 255.558 104.922 256.035V256.164C104.922 256.641 105.309 257.028 105.786 257.028H203.139C203.616 257.028 204.003 256.641 204.003 256.164V256.035C204.003 255.558 203.616 255.171 203.139 255.171Z" fill="#263238"/>
<path d="M154.675 247.754H154.246V257.028H154.675V247.754Z" fill="#263238"/>
<path d="M105.051 259.921V260.252H107.466V259.921H105.051Z" fill="#263238"/>
<path d="M202.956 258.873H202.625V261.288H202.956V258.873Z" fill="#263238"/>
<path d="M201.582 259.921V260.252H203.997V259.921H201.582Z" fill="#263238"/>
<path d="M167.973 256.097C167.973 257.004 167.237 257.739 166.33 257.739C165.423 257.739 164.688 257.004 164.688 256.097C164.688 255.19 165.423 254.454 166.33 254.454C167.237 254.454 167.973 255.19 167.973 256.097Z" fill="#FFC727"/>
<path d="M153.207 260.08C153.207 259.627 153.323 259.216 153.544 258.897C153.753 258.578 154.071 258.346 154.464 258.346C154.856 258.346 155.168 258.578 155.377 258.897C155.591 259.216 155.708 259.627 155.708 260.08C155.708 260.534 155.591 260.944 155.377 261.263C155.168 261.576 154.844 261.815 154.464 261.815C154.084 261.815 153.753 261.576 153.544 261.263C153.323 260.944 153.213 260.528 153.207 260.08ZM155.162 260.08C155.162 259.725 155.064 259.412 154.923 259.197C154.782 258.989 154.617 258.891 154.464 258.897C154.31 258.897 154.145 258.989 153.992 259.197C153.851 259.412 153.753 259.725 153.753 260.08C153.753 260.436 153.851 260.748 153.992 260.957C154.139 261.171 154.31 261.263 154.464 261.263C154.617 261.263 154.782 261.171 154.923 260.957C155.064 260.748 155.162 260.429 155.162 260.08Z" fill="#263238"/>
<path d="M99.8086 268.349C127.054 268.276 181.875 268.276 209.107 268.349C181.862 268.423 127.041 268.423 99.8086 268.349Z" fill="#263238"/>
<path d="M102.84 277.647C102.84 276.93 103.441 276.354 104.164 276.348C104.483 276.348 104.771 276.452 104.997 276.63C105.083 276.704 105.095 276.826 105.034 276.918C104.961 277.01 104.826 277.022 104.746 276.961C104.587 276.832 104.391 276.765 104.164 276.765C103.912 276.765 103.686 276.869 103.514 277.022C103.349 277.188 103.251 277.402 103.251 277.654C103.251 277.905 103.349 278.126 103.514 278.279C103.686 278.438 103.912 278.536 104.164 278.536C104.391 278.536 104.581 278.469 104.746 278.34C104.832 278.279 104.961 278.291 105.034 278.377C105.102 278.469 105.083 278.597 104.997 278.665C104.771 278.843 104.483 278.947 104.164 278.947C103.441 278.947 102.84 278.365 102.84 277.647Z" fill="black"/>
<path d="M107.224 278.046V278.75C107.224 278.855 107.138 278.941 107.034 278.941C106.942 278.941 106.869 278.873 106.844 278.787C106.709 278.885 106.544 278.941 106.366 278.941C106.121 278.941 105.906 278.836 105.753 278.677C105.6 278.511 105.508 278.285 105.508 278.039C105.508 277.794 105.6 277.568 105.753 277.402C105.906 277.237 106.121 277.132 106.366 277.132C106.544 277.132 106.709 277.194 106.844 277.292C106.869 277.2 106.936 277.132 107.034 277.132C107.138 277.132 107.224 277.218 107.224 277.328V278.039V278.046ZM106.844 278.046C106.844 277.892 106.789 277.764 106.703 277.672C106.617 277.574 106.495 277.525 106.366 277.525C106.237 277.525 106.115 277.574 106.029 277.672C105.943 277.764 105.894 277.892 105.894 278.046C105.894 278.199 105.943 278.321 106.029 278.42C106.115 278.511 106.237 278.56 106.366 278.56C106.495 278.56 106.617 278.511 106.703 278.42C106.789 278.328 106.844 278.193 106.844 278.046Z" fill="black"/>
<path d="M109.404 277.892V278.756C109.404 278.861 109.318 278.946 109.214 278.946C109.11 278.946 109.024 278.861 109.024 278.756V277.892C109.024 277.69 108.852 277.531 108.65 277.531C108.448 277.531 108.288 277.69 108.288 277.892V278.756C108.288 278.756 108.288 278.781 108.282 278.793C108.264 278.879 108.184 278.946 108.092 278.946C107.982 278.946 107.902 278.861 107.902 278.756V277.334C107.902 277.23 107.988 277.144 108.092 277.144C108.166 277.144 108.239 277.187 108.27 277.255C108.38 277.187 108.509 277.144 108.65 277.144C109.067 277.144 109.404 277.488 109.404 277.898V277.892Z" fill="black"/>
<path d="M109.988 278.046C109.988 277.543 110.405 277.145 110.908 277.139C111.122 277.139 111.324 277.218 111.484 277.335C111.57 277.402 111.582 277.525 111.521 277.605C111.447 277.69 111.331 277.709 111.251 277.641C111.159 277.574 111.043 277.525 110.908 277.525C110.613 277.525 110.374 277.764 110.374 278.046C110.374 278.328 110.613 278.561 110.908 278.561C111.036 278.561 111.159 278.512 111.251 278.444C111.331 278.383 111.447 278.395 111.521 278.481C111.576 278.561 111.564 278.677 111.484 278.751C111.331 278.861 111.128 278.941 110.908 278.941C110.411 278.941 109.988 278.536 109.988 278.04V278.046Z" fill="black"/>
<path d="M111.992 278.04C111.992 277.549 112.378 277.139 112.875 277.139C113.347 277.139 113.715 277.488 113.745 277.979V277.997C113.745 277.997 113.745 278.021 113.745 278.028C113.733 278.113 113.659 278.175 113.555 278.175H112.409C112.427 278.26 112.464 278.352 112.532 278.414C112.605 278.5 112.752 278.567 112.881 278.579C113.01 278.591 113.169 278.555 113.255 278.487C113.328 278.408 113.482 278.42 113.525 278.475C113.574 278.524 113.61 278.634 113.525 278.708C113.347 278.867 113.132 278.947 112.881 278.947C112.384 278.947 112.004 278.536 111.998 278.046L111.992 278.04ZM112.384 277.862H113.408C113.371 277.715 113.187 277.507 112.875 277.482C112.568 277.494 112.415 277.715 112.384 277.862Z" fill="black"/>
<path d="M114.54 276.415C114.65 276.415 114.742 276.507 114.742 276.611V278.738C114.742 278.849 114.65 278.934 114.54 278.934C114.43 278.934 114.344 278.842 114.344 278.738V276.611C114.344 276.501 114.436 276.415 114.54 276.415Z" fill="black"/>
<path d="M197.441 278.744V276.617C197.441 276.507 197.527 276.421 197.638 276.421H198.067C198.765 276.421 199.329 276.985 199.329 277.684C199.329 278.383 198.765 278.953 198.067 278.953H197.638C197.527 278.953 197.441 278.861 197.441 278.757V278.744ZM197.84 278.542H198.067C198.545 278.542 198.925 278.156 198.925 277.678C198.925 277.2 198.545 276.82 198.067 276.82H197.84V278.548V278.542Z" fill="#FF7D4F"/>
<path d="M200.161 278.683C200.008 278.524 199.91 278.303 199.91 278.045C199.91 277.788 200.002 277.586 200.161 277.414C200.327 277.243 200.535 277.138 200.781 277.138C201.026 277.138 201.234 277.243 201.381 277.414C201.541 277.586 201.633 277.8 201.633 278.045C201.633 278.291 201.541 278.524 201.381 278.683C201.234 278.855 201.02 278.959 200.781 278.959C200.541 278.959 200.321 278.855 200.161 278.683ZM200.309 278.045C200.309 278.199 200.358 278.327 200.437 278.426C200.529 278.511 200.646 278.56 200.787 278.56C200.915 278.56 201.026 278.511 201.118 278.426C201.21 278.321 201.259 278.199 201.259 278.045C201.259 277.892 201.21 277.77 201.118 277.672C201.026 277.592 200.909 277.537 200.787 277.537C200.652 277.537 200.529 277.592 200.437 277.672C200.351 277.77 200.309 277.898 200.309 278.045Z" fill="#FF7D4F"/>
<path d="M203.76 277.892V278.756C203.76 278.861 203.674 278.946 203.57 278.946C203.465 278.946 203.379 278.861 203.379 278.756V277.892C203.379 277.69 203.208 277.531 203.006 277.531C202.803 277.531 202.644 277.69 202.644 277.892V278.756C202.644 278.756 202.644 278.781 202.638 278.793C202.619 278.879 202.54 278.946 202.448 278.946C202.337 278.946 202.258 278.861 202.258 278.756V277.334C202.258 277.23 202.344 277.144 202.448 277.144C202.521 277.144 202.595 277.187 202.626 277.255C202.736 277.187 202.865 277.144 203.006 277.144C203.422 277.144 203.76 277.488 203.76 277.898V277.892Z" fill="#FF7D4F"/>
<path d="M204.344 278.039C204.344 277.549 204.73 277.138 205.226 277.138C205.723 277.138 206.066 277.488 206.097 277.978V277.996C206.097 277.996 206.097 278.021 206.097 278.027C206.084 278.113 206.011 278.174 205.907 278.174H204.761C204.779 278.26 204.816 278.352 204.883 278.413C204.957 278.499 205.104 278.566 205.232 278.579C205.361 278.591 205.521 278.554 205.606 278.487C205.68 278.407 205.833 278.419 205.876 278.475C205.925 278.524 205.962 278.634 205.876 278.707C205.698 278.867 205.484 278.947 205.232 278.947C204.736 278.947 204.356 278.536 204.35 278.045L204.344 278.039ZM204.736 277.862H205.76C205.723 277.715 205.539 277.506 205.226 277.482C204.92 277.494 204.767 277.715 204.742 277.862H204.736Z" fill="#FF7D4F"/>
<path d="M156.138 276.728C156.138 277.641 155.396 278.383 154.483 278.383C153.57 278.383 152.828 277.641 152.828 276.728C152.828 275.815 153.57 275.073 154.483 275.073C155.396 275.073 156.138 275.815 156.138 276.728Z" stroke="#263238" stroke-width="0.5" stroke-miterlimit="10"/>
<path d="M152.455 277.31C153.245 276.85 154.263 277.126 154.716 277.917C155.176 278.707 154.9 279.725 154.109 280.178C153.319 280.638 152.301 280.362 151.848 279.572C151.388 278.781 151.664 277.763 152.455 277.31Z" stroke="#263238" stroke-width="0.5" stroke-miterlimit="10"/>
<path d="M154.802 280.209C154.012 279.749 153.736 278.738 154.195 277.947C154.655 277.156 155.666 276.881 156.457 277.34C157.248 277.8 157.524 278.811 157.064 279.602C156.604 280.393 155.593 280.669 154.802 280.209Z" stroke="#263238" stroke-width="0.5" stroke-miterlimit="10"/>
<path d="M141.177 277.751C141.177 278.664 140.435 279.406 139.522 279.406C138.609 279.406 137.867 278.664 137.867 277.751C137.867 276.838 138.609 276.096 139.522 276.096C140.435 276.096 141.177 276.838 141.177 277.751Z" fill="#263238"/>
<path d="M139.901 274.877C139.901 275.085 139.729 275.257 139.521 275.257C139.312 275.257 139.141 275.085 139.141 274.877C139.141 274.669 139.312 274.497 139.521 274.497C139.729 274.497 139.901 274.669 139.901 274.877Z" fill="#263238"/>
<path d="M137.763 275.453C137.91 275.6 137.91 275.845 137.763 275.992C137.616 276.139 137.371 276.139 137.224 275.992C137.077 275.845 137.077 275.6 137.224 275.453C137.371 275.306 137.616 275.306 137.763 275.453Z" fill="#263238"/>
<path d="M136.646 277.366C136.854 277.366 137.026 277.537 137.026 277.746C137.026 277.954 136.854 278.126 136.646 278.126C136.437 278.126 136.266 277.954 136.266 277.746C136.266 277.537 136.437 277.366 136.646 277.366Z" fill="#263238"/>
<path d="M137.224 279.511C137.371 279.364 137.616 279.364 137.763 279.511C137.91 279.658 137.91 279.903 137.763 280.05C137.616 280.197 137.371 280.197 137.224 280.05C137.077 279.903 137.077 279.658 137.224 279.511Z" fill="#263238"/>
<path d="M139.141 280.62C139.141 280.412 139.312 280.24 139.521 280.24C139.729 280.24 139.901 280.412 139.901 280.62C139.901 280.829 139.729 281 139.521 281C139.312 281 139.141 280.829 139.141 280.62Z" fill="#263238"/>
<path d="M141.278 280.05C141.131 279.903 141.131 279.658 141.278 279.511C141.425 279.364 141.671 279.364 141.818 279.511C141.965 279.658 141.965 279.903 141.818 280.05C141.671 280.197 141.425 280.197 141.278 280.05Z" fill="#263238"/>
<path d="M142.388 278.131C142.179 278.131 142.008 277.96 142.008 277.751C142.008 277.543 142.179 277.371 142.388 277.371C142.596 277.371 142.768 277.543 142.768 277.751C142.768 277.96 142.596 278.131 142.388 278.131Z" fill="#263238"/>
<path d="M141.818 275.986C141.671 276.133 141.425 276.133 141.278 275.986C141.131 275.839 141.131 275.594 141.278 275.447C141.425 275.3 141.671 275.3 141.818 275.447C141.965 275.594 141.965 275.839 141.818 275.986Z" fill="#263238"/>
<path d="M139.683 277.945L139.488 277.75L138.17 279.067L138.365 279.262L139.683 277.945Z" fill="white"/>
<path d="M167.152 277.04H170.37V280.344" stroke="#263238" stroke-width="0.5" stroke-miterlimit="10"/>
<path d="M172.263 278.457H169.051V275.153" stroke="#263238" stroke-width="0.5" stroke-miterlimit="10"/>
<path d="M170.445 275.759C170.77 275.82 171.677 276.096 171.831 277.389" stroke="#263238" stroke-width="0.25" stroke-miterlimit="10"/>
<path d="M170.69 276.28L170.776 276.219L170.481 275.778L170.947 275.52L170.892 275.428L170.328 275.741L170.69 276.28Z" fill="#263238"/>
<path d="M168.979 279.737C168.654 279.676 167.747 279.4 167.594 278.107" stroke="#263238" stroke-width="0.25" stroke-miterlimit="10"/>
<path d="M168.734 279.216L168.642 279.278L168.936 279.719L168.477 279.976L168.532 280.068L169.089 279.756L168.734 279.216Z" fill="#263238"/>
<path d="M240.221 153.811C232.961 145.35 188.997 162.599 194.847 180.161C200.696 197.723 225.427 181.036 225.427 181.036V189.471C225.427 189.471 248.995 164.061 240.221 153.825V153.811Z" fill="#FFC6DA"/>
<path d="M240.361 188.935C233.101 180.474 189.138 197.723 194.987 215.285C200.837 232.847 225.567 216.16 225.567 216.16V224.595C225.567 224.595 249.136 199.185 240.361 188.948V188.935Z" fill="#FFC6DA"/>
<path fill-rule="evenodd" clip-rule="evenodd" d="M61.4176 367.775C36.7353 350.147 18.7372 326.91 9.02406 304.07C26.2873 265.422 42.7438 227.03 44.0999 218.209C47.0247 199.185 84.6034 150.207 84.6034 150.207C84.6034 150.207 146.547 149.424 146.547 175.773C146.547 202.123 100.181 191.089 100.181 191.089C100.181 191.089 105.103 243.149 85.5827 262.147C83.1148 263.557 85.0865 306.032 85.0865 306.032L61.4176 367.775Z" fill="#FFC6DA"/>
<path d="M216.063 150.886C228.589 150.886 238.744 145.315 238.744 138.443C238.744 131.57 228.589 125.999 216.063 125.999C203.537 125.999 193.383 131.57 193.383 138.443C193.383 145.315 203.537 150.886 216.063 150.886Z" fill="#FFC6DA"/>
<path d="M212.445 132.358L213.098 145.337C213.098 145.337 200.707 145.037 200.707 139.174C200.707 133.311 212.459 132.358 212.459 132.358H212.445Z" fill="#F2EBFF"/>
<path d="M203.619 168.448L213.086 178.424C213.086 178.424 206.544 184.535 200.694 180.147C194.845 175.76 203.619 168.435 203.619 168.435V168.448Z" fill="#F2EBFF"/>
<path d="M205.303 201.797L214.391 213.483C214.391 213.483 208.019 219.685 202.156 215.298C196.307 210.911 205.303 201.81 205.303 201.81V201.797Z" fill="#F2EBFF"/>
<path d="M127.522 165.523L124.598 184.548C124.598 184.548 134.848 187.473 137.772 178.698C140.697 169.924 127.522 165.523 127.522 165.523Z" fill="#F2EBFF"/>
<path d="M240.517 224.059C233.258 215.598 189.294 232.847 195.144 250.409C200.993 267.971 225.724 251.283 225.724 251.283V259.718C225.724 259.718 249.292 234.309 240.517 224.072V224.059Z" fill="#FFC6DA"/>
<path d="M214.392 247.21L203.359 239.427C203.359 239.427 197.77 247.484 202.157 251.871C206.544 256.258 214.392 247.223 214.392 247.223V247.21Z" fill="#F2EBFF"/>
<path d="M66.2836 277.633C66.7928 289.567 68.3727 301.606 73.3084 312.587C77.4997 321.91 84.2765 330.24 93.2729 335.241C95.7407 336.612 97.9604 332.826 95.4926 331.455C76.416 320.839 71.5326 297.702 70.6708 277.633C70.5533 274.813 66.1661 274.799 66.2836 277.633Z" fill="#604DA3"/>
<path d="M255.405 70.8989C254.974 70.6639 254.83 70.1286 255.065 69.6977L257.677 65.0624C257.912 64.6315 258.447 64.4878 258.878 64.7229C259.309 64.9579 259.453 65.4932 259.218 65.9241L256.606 70.5595C256.371 70.9903 255.836 71.134 255.405 70.8989Z" fill="#FFD852"/>
<path d="M250.704 70.6245C250.534 70.52 250.39 70.3633 250.312 70.1675L248.432 65.1927C248.262 64.7357 248.484 64.2264 248.941 64.0567C249.398 63.8869 249.907 64.1089 250.077 64.5659L251.957 69.5407C252.127 69.9977 251.905 70.5069 251.448 70.6767C251.2 70.7681 250.926 70.742 250.704 70.6245Z" fill="#FFD852"/>
<path d="M242.454 72.2827C242.088 72.0738 241.905 71.6299 242.049 71.2251C242.206 70.7681 242.715 70.52 243.172 70.6898L248.186 72.4525C248.643 72.6092 248.891 73.1184 248.721 73.5754C248.565 74.0324 248.055 74.2805 247.598 74.1108L242.584 72.348C242.584 72.348 242.493 72.3089 242.441 72.2827H242.454Z" fill="#FFD852"/>
<path d="M243.448 81.4225C243.318 81.3441 243.2 81.2397 243.122 81.1091C242.874 80.6913 243.017 80.1429 243.435 79.8948L248.005 77.1789C248.423 76.9308 248.971 77.0744 249.22 77.4923C249.468 77.9101 249.324 78.4585 248.906 78.7066L244.336 81.4225C244.049 81.5922 243.723 81.5792 243.448 81.4225Z" fill="#FFD852"/>
<path d="M252.835 86.7893C252.574 86.6456 252.391 86.3584 252.378 86.032L252.312 80.7177C252.312 80.2346 252.704 79.8298 253.187 79.8298C253.67 79.8298 254.075 80.2084 254.075 80.7046L254.141 86.0189C254.141 86.502 253.749 86.9068 253.266 86.9068C253.109 86.9068 252.952 86.8676 252.822 86.7893H252.835Z" fill="#FFD852"/>
<path d="M260.839 82.6109C260.839 82.6109 260.748 82.5586 260.709 82.5195L256.596 79.1507C256.217 78.8373 256.165 78.2889 256.478 77.9103C256.791 77.5316 257.34 77.4794 257.719 77.7928L261.832 81.1615C262.21 81.4749 262.262 82.0233 261.949 82.402C261.675 82.7414 261.205 82.8198 260.839 82.6109Z" fill="#FFD852"/>
<path d="M258.385 75.0246C258.176 74.9071 258.02 74.6982 257.954 74.4501C257.85 73.98 258.15 73.4969 258.62 73.3925L263.804 72.2042C264.274 72.0998 264.757 72.387 264.862 72.8702C264.966 73.3402 264.666 73.8233 264.196 73.9278L259.012 75.1029C258.79 75.1552 258.568 75.1029 258.385 75.0115V75.0246Z" fill="#FFD852"/>
<path d="M314.274 263.637C314.274 268.955 309.955 273.274 304.637 273.274C299.319 273.274 295 268.955 295 263.637C295 258.319 299.319 254 304.637 254C309.955 254 314.274 258.319 314.274 263.637Z" fill="#FF7D4F"/>
<path d="M261.188 289.594C261.188 292.141 259.14 294.188 256.594 294.188C254.047 294.188 252 292.141 252 289.594C252 287.047 254.047 285 256.594 285C259.14 285 261.188 287.047 261.188 289.594Z" fill="white"/>
<path d="M131.443 345.721C131.443 347.219 130.219 348.443 128.721 348.443C127.223 348.443 126 347.219 126 345.721C126 344.223 127.223 343 128.721 343C130.219 343 131.443 344.223 131.443 345.721Z" fill="white"/>
<path d="M21.3276 42.7444C21.3276 44.7917 19.6798 46.4395 17.6325 46.4395C15.5853 46.4395 13.9375 44.7917 13.9375 42.7444C13.9375 40.6971 15.5853 39.0493 17.6325 39.0493C19.6798 39.0493 21.3276 40.6971 21.3276 42.7444Z" fill="#FF7D4F"/>
<path d="M10.2364 204.118C10.2364 206.939 7.93948 209.236 5.11824 209.236C2.29699 209.236 0 206.939 0 204.118C0 201.297 2.29699 199 5.11824 199C7.93948 199 10.2364 201.297 10.2364 204.118Z" fill="#FF7D4F"/>
<path d="M287.135 112.568C287.135 115.639 284.639 118.135 281.568 118.135C278.497 118.135 276 115.639 276 112.568C276 109.497 278.497 107 281.568 107C284.639 107 287.135 109.497 287.135 112.568Z" fill="#FF7D4F"/>
<path d="M182.494 5.24701C182.494 6.49535 181.495 7.49403 180.247 7.49403C178.999 7.49403 178 6.49535 178 5.24701C178 3.99868 178.999 3 180.247 3C181.495 3 182.494 3.99868 182.494 5.24701Z" fill="#FFD852"/>
<path d="M53.3901 162.695C53.3901 164.742 51.7423 166.39 49.695 166.39C47.6478 166.39 46 164.742 46 162.695C46 160.648 47.6478 159 49.695 159C51.7423 159 53.3901 160.648 53.3901 162.695Z" fill="#FFD852"/>
<path d="M229.637 358.819C229.637 361.465 227.49 363.637 224.819 363.637C222.147 363.637 220 361.49 220 358.819C220 356.147 222.147 354 224.819 354C227.49 354 229.637 356.147 229.637 358.819Z" fill="#FFD852"/>
<path d="M67.5887 92.3843H24.3828V135.59H67.5887V92.3843Z" stroke="#DED3F2" stroke-miterlimit="10"/>
<path d="M26.7686 90H22V94.7686H26.7686V90Z" fill="white" stroke="#DED3F2" stroke-miterlimit="10"/>
<path d="M26.7686 133.212H22V137.981H26.7686V133.212Z" fill="white" stroke="#DED3F2" stroke-miterlimit="10"/>
<path d="M69.9757 90H65.207V94.7686H69.9757V90Z" fill="white" stroke="#DED3F2" stroke-miterlimit="10"/>
<path d="M69.9757 133.212H65.207V137.981H69.9757V133.212Z" fill="white" stroke="#DED3F2" stroke-miterlimit="10"/>
<path d="M314.87 159.451L261.449 152L253.998 205.421L307.42 212.872L314.87 159.451Z" fill="#DED3F2"/>
<path d="M301.488 201.96L262.695 196.548L267.384 162.916L306.177 168.328L301.488 201.96ZM265.57 194.378L299.318 199.085L303.302 170.498L269.554 165.79L265.57 194.378Z" fill="white"/>
<path d="M264.137 195.463L276.064 186.845L284.204 198.258L264.137 195.463Z" fill="white"/>
<path d="M277.652 197.345L292.351 183.296L300.405 200.52L277.652 197.345Z" fill="white"/>
<path d="M280.233 180.648C279.945 182.708 278.045 184.142 275.985 183.86C273.926 183.572 272.492 181.672 272.774 179.613C273.062 177.553 274.962 176.119 277.021 176.401C279.081 176.689 280.515 178.589 280.233 180.648Z" fill="white"/>
<path d="M109.609 38.2877C112.733 23.3888 103.187 8.77882 88.2878 5.65542C73.3888 2.53201 58.7788 12.0779 55.6554 26.9768C52.532 41.8758 62.078 56.4858 76.9769 59.6092C91.8758 62.7326 106.486 53.1866 109.609 38.2877Z" fill="url(#paint0_linear_138_840)" fill-opacity="0.6"/>
<path d="M83.5013 40.521C85.3242 40.521 86.8739 39.8832 88.1505 38.6077C89.426 37.3312 90.0638 35.7814 90.0638 33.9585C90.0638 32.1356 89.426 30.5859 88.1505 29.3094C86.8739 28.0338 85.3242 27.396 83.5013 27.396C81.6784 27.396 80.1287 28.0338 78.8521 29.3094C77.5766 30.5859 76.9388 32.1356 76.9388 33.9585C76.9388 35.7814 77.5766 37.3312 78.8521 38.6077C80.1287 39.8832 81.6784 40.521 83.5013 40.521ZM71.8346 45.6252C71.0326 45.6252 70.3462 45.3398 69.7755 44.7691C69.2038 44.1975 68.918 43.5106 68.918 42.7085V25.2085C68.918 24.4064 69.2038 23.72 69.7755 23.1493C70.3462 22.5777 71.0326 22.2918 71.8346 22.2918H76.4284L78.2513 20.3231C78.5187 20.0071 78.8405 19.7699 79.2167 19.6114C79.5939 19.4539 79.9891 19.3752 80.4023 19.3752H86.6003C87.0135 19.3752 87.4087 19.4539 87.7859 19.6114C88.1621 19.7699 88.4839 20.0071 88.7513 20.3231L90.5742 22.2918H95.168C95.9701 22.2918 96.6569 22.5777 97.2286 23.1493C97.7993 23.72 98.0846 24.4064 98.0846 25.2085V42.7085C98.0846 43.5106 97.7993 44.1975 97.2286 44.7691C96.6569 45.3398 95.9701 45.6252 95.168 45.6252H71.8346Z" fill="#FF7D4F"/>
<defs>
<filter id="filter0_d_138_840" x="134" y="48.8644" width="41.9883" height="138.138" filterUnits="userSpaceOnUse" color-interpolation-filters="sRGB">
<feFlood flood-opacity="0" result="BackgroundImageFix"/>
<feColorMatrix in="SourceAlpha" type="matrix" values="0 0 0 0 0 0 0 0 0 0 0 0 0 0 0 0 0 0 127 0" result="hardAlpha"/>
<feOffset/>
<feGaussianBlur stdDeviation="2"/>
<feComposite in2="hardAlpha" operator="out"/>
<feColorMatrix type="matrix" values="0 0 0 0 0 0 0 0 0 0 0 0 0 0 0 0 0 0 0.15 0"/>
<feBlend mode="normal" in2="BackgroundImageFix" result="effect1_dropShadow_138_840"/>
<feBlend mode="normal" in="SourceGraphic" in2="effect1_dropShadow_138_840" result="shape"/>
</filter>
<linearGradient id="paint0_linear_138_840" x1="55.6554" y1="26.9769" x2="109.609" y2="38.2877" gradientUnits="userSpaceOnUse">
<stop stop-color="#FFD9BC"/>
<stop offset="1" stop-color="#FFEADA"/>
</linearGradient>
</defs>
</svg>
