<svg width="281" height="397" viewBox="0 0 281 397" fill="none" xmlns="http://www.w3.org/2000/svg">
<circle cx="140.004" cy="256.751" r="140.004" fill="url(#paint0_linear_138_1635)" fill-opacity="0.6"/>
<path d="M185.938 18.6549H55.273C43.0388 18.6549 33.1211 28.5726 33.1211 40.8068V348.011C33.1211 360.246 43.0388 370.163 55.273 370.163H185.938C198.173 370.163 208.09 360.246 208.09 348.011V40.8068C208.09 28.5726 198.173 18.6549 185.938 18.6549Z" fill="#FAFAFA"/>
<path d="M203.645 44.6661V350.65C203.645 357.758 197.889 363.492 190.803 363.492H50.3694C43.2834 363.492 37.5273 357.758 37.5273 350.65V44.6661C37.5273 42.9437 37.8544 41.3084 38.4649 39.8258L38.6393 39.4551C40.6452 34.9419 45.1584 31.8241 50.3694 31.8241H190.803C196.014 31.8241 200.527 34.9419 202.533 39.4333L202.707 39.8258C203.318 41.3084 203.645 42.9437 203.645 44.6661Z" fill="#FFF3C7"/>
<path d="M141.306 54.5429H99.858C97.5469 54.5429 95.6719 52.6678 95.6719 50.3567C95.6719 48.0456 97.5469 46.1705 99.858 46.1705H141.306C143.617 46.1705 145.492 48.0456 145.492 50.3567C145.492 52.6678 143.617 54.5429 141.306 54.5429Z" fill="white"/>
<path d="M121.271 26.5912H113.378C112.68 26.5912 112.113 26.0243 112.113 25.3266C112.113 24.6289 112.68 24.062 113.378 24.062H121.271C121.968 24.062 122.535 24.6289 122.535 25.3266C122.535 26.0243 121.968 26.5912 121.271 26.5912ZM129.076 25.3266C129.076 24.6289 128.509 24.062 127.811 24.062H126.809C126.111 24.062 125.544 24.6289 125.544 25.3266C125.544 26.0243 126.111 26.5912 126.809 26.5912H127.811C128.509 26.5912 129.076 26.0243 129.076 25.3266Z" fill="#D9E3F7"/>
<path fill-rule="evenodd" clip-rule="evenodd" d="M174.349 392.401L173.035 350.649L237.943 338.657L242.185 352.399C217.419 378.795 186.578 389.935 174.349 392.401Z" fill="#072C5F"/>
<path d="M188.186 123.287H53.0292C49.4167 123.287 46.4883 126.215 46.4883 129.828V162.227C46.4883 165.839 49.4167 168.768 53.0292 168.768H188.186C191.799 168.768 194.727 165.839 194.727 162.227V129.828C194.727 126.215 191.799 123.287 188.186 123.287Z" fill="white"/>
<path d="M75.9325 162.014C84.8024 158.318 88.9969 148.131 85.3011 139.261C81.6052 130.391 71.4187 126.197 62.5487 129.893C53.6788 133.589 49.4843 143.775 53.1802 152.645C56.876 161.515 67.0626 165.709 75.9325 162.014Z" fill="#DED3F2"/>
<path d="M117.741 138.57H95.3925C94.1498 138.57 93.125 137.567 93.125 136.303C93.125 135.06 94.128 134.035 95.3925 134.035H117.741C118.983 134.035 120.008 135.038 120.008 136.303C120.008 137.545 119.005 138.57 117.741 138.57Z" fill="#FFD852"/>
<path d="M136.904 151.87H95.369C94.1263 151.87 93.1016 150.867 93.1016 149.603C93.1016 148.36 94.1045 147.335 95.369 147.335H136.904C138.147 147.335 139.171 148.338 139.171 149.603C139.171 150.845 138.168 151.87 136.904 151.87Z" fill="#FF7D4F"/>
<path d="M136.904 160.046H95.369C94.1263 160.046 93.1016 159.043 93.1016 157.778C93.1016 156.536 94.1045 155.511 95.369 155.511H136.904C138.147 155.511 139.171 156.514 139.171 157.778C139.171 159.021 138.168 160.046 136.904 160.046Z" fill="#FF7D4F"/>
<path d="M166.384 158.585V160.57H164.661V158.564C163.44 158.389 162.263 157.888 161.391 157.168L162.306 155.315C163.244 156.122 164.661 156.689 165.599 156.689C166.296 156.689 166.754 156.427 166.754 155.947C166.754 154.399 161.958 155.337 161.958 152.11C161.958 150.671 163.004 149.668 164.661 149.385V147.466H166.384V149.363C167.452 149.472 168.455 149.842 169.24 150.344L168.346 152.241C167.386 151.696 166.165 151.26 165.402 151.26C164.835 151.26 164.443 151.478 164.443 151.892C164.443 153.396 169.24 152.546 169.24 155.817C169.24 157.408 168.019 158.346 166.384 158.564V158.585Z" fill="#6CA8F7"/>
<path d="M175.126 158.586V160.57H173.403V158.564C172.182 158.389 171.005 157.888 170.133 157.168L171.049 155.315C171.986 156.122 173.403 156.689 174.341 156.689C175.038 156.689 175.496 156.427 175.496 155.947C175.496 154.399 170.7 155.337 170.7 152.11C170.7 150.671 171.746 149.668 173.403 149.385V147.466H175.126V149.363C176.194 149.472 177.197 149.843 177.982 150.344L177.088 152.241C176.129 151.696 174.908 151.26 174.145 151.26C173.578 151.26 173.185 151.478 173.185 151.892C173.185 153.396 177.982 152.546 177.982 155.817C177.982 157.408 176.761 158.346 175.126 158.564V158.586Z" fill="#6CA8F7"/>
<path d="M183.848 158.586V160.57H182.126V158.564C180.905 158.389 179.728 157.888 178.855 157.168L179.771 155.315C180.709 156.122 182.126 156.689 183.063 156.689C183.761 156.689 184.219 156.427 184.219 155.947C184.219 154.399 179.422 155.337 179.422 152.11C179.422 150.671 180.469 149.668 182.126 149.385V147.466H183.848V149.363C184.917 149.472 185.92 149.843 186.705 150.344L185.811 152.241C184.851 151.696 183.63 151.26 182.867 151.26C182.3 151.26 181.908 151.478 181.908 151.892C181.908 153.396 186.705 152.546 186.705 155.817C186.705 157.408 185.484 158.346 183.848 158.564V158.586Z" fill="#6CA8F7"/>
<path d="M165.401 131.005L166.579 133.403L169.217 133.796L167.32 135.649L167.756 138.287L165.401 137.044L163.047 138.287L163.483 135.649L161.586 133.796L164.224 133.403L165.401 131.005Z" fill="#FFD852"/>
<path d="M174.319 131.005L175.519 133.403L178.157 133.796L176.238 135.649L176.696 138.287L174.319 137.044L171.965 138.287L172.423 135.649L170.504 133.796L173.142 133.403L174.319 131.005Z" fill="#FFD852"/>
<path d="M182.084 133.403L179.445 133.796L181.342 135.649L180.906 138.287L183.261 137.044V131.005L182.084 133.403Z" fill="#FFD852"/>
<path d="M187.077 133.796L184.439 133.403L183.262 131.005V137.044L185.616 138.287L185.18 135.649L187.077 133.796Z" fill="#DED3F2"/>
<path d="M188.186 181.637H53.0292C49.4167 181.637 46.4883 184.565 46.4883 188.178V220.577C46.4883 224.189 49.4167 227.118 53.0292 227.118H188.186C191.799 227.118 194.727 224.189 194.727 220.577V188.178C194.727 184.565 191.799 181.637 188.186 181.637Z" fill="white"/>
<path d="M81.7937 150.522C81.7937 150.522 81.7937 143.689 79.7459 138.436C79.7459 138.436 74.2258 137.724 70.1969 136.232C70.1969 136.232 69.4624 144.446 66.8136 146.315C65.0552 147.562 62.5845 148.719 59.2679 149.142C58.066 149.298 57.1311 150.277 56.9531 151.479L56.7305 153.104L68.9727 152.859L76.5852 150.923L81.7937 150.522Z" fill="#92385B"/>
<path d="M56.1758 153.839H66.5483C69.0413 153.839 71.5342 153.505 73.9382 152.882L76.4534 152.214V153.839H82.3742V150.322H79.4806C78.1674 150.322 76.8318 150.5 75.5631 150.878L74.1608 151.279C71.5342 152.036 68.7965 152.437 66.0586 152.437H56.1758V153.839Z" fill="#1B38AD"/>
<path d="M117.741 196.921H95.3925C94.1498 196.921 93.125 195.918 93.125 194.654C93.125 193.411 94.128 192.386 95.3925 192.386H117.741C118.983 192.386 120.008 193.389 120.008 194.654C120.008 195.896 119.005 196.921 117.741 196.921Z" fill="#FFD852"/>
<path d="M136.904 210.22H95.369C94.1263 210.22 93.1016 209.217 93.1016 207.953C93.1016 206.71 94.1045 205.685 95.369 205.685H136.904C138.147 205.685 139.171 206.688 139.171 207.953C139.171 209.195 138.168 210.22 136.904 210.22Z" fill="#FF7D4F"/>
<path d="M136.904 218.396H95.369C94.1263 218.396 93.1016 217.393 93.1016 216.129C93.1016 214.886 94.1045 213.861 95.369 213.861H136.904C138.147 213.861 139.171 214.864 139.171 216.129C139.171 217.371 138.168 218.396 136.904 218.396Z" fill="#FF7D4F"/>
<path d="M166.384 216.936V218.92H164.661V216.914C163.44 216.739 162.263 216.238 161.391 215.519L162.306 213.665C163.244 214.472 164.661 215.039 165.599 215.039C166.296 215.039 166.754 214.777 166.754 214.298C166.754 212.75 161.958 213.687 161.958 210.46C161.958 209.021 163.004 208.018 164.661 207.735V205.816H166.384V207.713C167.452 207.822 168.455 208.193 169.24 208.694L168.346 210.591C167.386 210.046 166.165 209.61 165.402 209.61C164.835 209.61 164.443 209.828 164.443 210.242C164.443 211.747 169.24 210.896 169.24 214.167C169.24 215.758 168.019 216.696 166.384 216.914V216.936Z" fill="#6CA8F7"/>
<path d="M175.126 216.935V218.92H173.403V216.914C172.182 216.739 171.005 216.238 170.133 215.518L171.049 213.665C171.986 214.472 173.403 215.039 174.341 215.039C175.038 215.039 175.496 214.777 175.496 214.297C175.496 212.749 170.7 213.687 170.7 210.46C170.7 209.021 171.746 208.018 173.403 207.735V205.816H175.126V207.713C176.194 207.822 177.197 208.192 177.982 208.694L177.088 210.591C176.129 210.046 174.908 209.61 174.145 209.61C173.578 209.61 173.185 209.828 173.185 210.242C173.185 211.746 177.982 210.896 177.982 214.166C177.982 215.758 176.761 216.696 175.126 216.914V216.935Z" fill="#6CA8F7"/>
<path d="M183.848 216.935V218.92H182.126V216.914C180.905 216.739 179.728 216.238 178.855 215.518L179.771 213.665C180.709 214.472 182.126 215.039 183.063 215.039C183.761 215.039 184.219 214.777 184.219 214.297C184.219 212.749 179.422 213.687 179.422 210.46C179.422 209.021 180.469 208.018 182.126 207.735V205.816H183.848V207.713C184.917 207.822 185.92 208.192 186.705 208.694L185.811 210.591C184.851 210.046 183.63 209.61 182.867 209.61C182.3 209.61 181.908 209.828 181.908 210.242C181.908 211.746 186.705 210.896 186.705 214.166C186.705 215.758 185.484 216.696 183.848 216.914V216.935Z" fill="#6CA8F7"/>
<path d="M165.401 189.376L166.579 191.775L169.217 192.145L167.32 194.02L167.756 196.637L165.401 195.394L163.047 196.637L163.483 194.02L161.586 192.145L164.224 191.775L165.401 189.376Z" fill="#FFD852"/>
<path d="M174.319 189.376L175.519 191.775L178.157 192.145L176.238 194.02L176.696 196.637L174.319 195.394L171.965 196.637L172.423 194.02L170.504 192.145L173.142 191.775L174.319 189.376Z" fill="#FFD852"/>
<path d="M182.084 191.775L179.445 192.145L181.342 194.02L180.906 196.637L183.261 195.394V189.376L182.084 191.775Z" fill="#FFD852"/>
<path d="M187.073 192.145L184.435 191.775L183.258 189.376V195.394L185.613 196.637L185.176 194.02L187.073 192.145Z" fill="#6CA8F7"/>
<path d="M188.186 239.955H53.0292C49.4167 239.955 46.4883 242.884 46.4883 246.496V278.896C46.4883 282.508 49.4167 285.437 53.0292 285.437H188.186C191.799 285.437 194.727 282.508 194.727 278.896V246.496C194.727 242.884 191.799 239.955 188.186 239.955Z" fill="white"/>
<path d="M69.227 280.095C78.8361 280.095 86.6258 272.305 86.6258 262.696C86.6258 253.087 78.8361 245.297 69.227 245.297C59.6179 245.297 51.8281 253.087 51.8281 262.696C51.8281 272.305 59.6179 280.095 69.227 280.095Z" fill="#DED3F2"/>
<path d="M117.741 255.217H95.3925C94.1498 255.217 93.125 254.214 93.125 252.95C93.125 251.707 94.128 250.682 95.3925 250.682H117.741C118.983 250.682 120.008 251.685 120.008 252.95C120.008 254.192 119.005 255.217 117.741 255.217Z" fill="#FFD852"/>
<path d="M136.904 268.517H95.369C94.1263 268.517 93.1016 267.514 93.1016 266.25C93.1016 265.007 94.1045 263.982 95.369 263.982H136.904C138.147 263.982 139.171 264.985 139.171 266.25C139.171 267.492 138.168 268.517 136.904 268.517Z" fill="#FF7D4F"/>
<path d="M136.904 276.694H95.369C94.1263 276.694 93.1016 275.691 93.1016 274.426C93.1016 273.183 94.1045 272.159 95.369 272.159H136.904C138.147 272.159 139.171 273.161 139.171 274.426C139.171 275.669 138.168 276.694 136.904 276.694Z" fill="#FF7D4F"/>
<path d="M166.384 275.233V277.217H164.661V275.211C163.44 275.036 162.263 274.535 161.391 273.815L162.306 271.962C163.244 272.769 164.661 273.336 165.599 273.336C166.296 273.336 166.754 273.074 166.754 272.595C166.754 271.047 161.958 271.984 161.958 268.757C161.958 267.318 163.004 266.315 164.661 266.032V264.113H166.384V266.01C167.452 266.119 168.455 266.49 169.24 266.991L168.346 268.888C167.386 268.343 166.165 267.907 165.402 267.907C164.835 267.907 164.443 268.125 164.443 268.539C164.443 270.044 169.24 269.193 169.24 272.464C169.24 274.055 168.019 274.993 166.384 275.211V275.233Z" fill="#6CA8F7"/>
<path d="M175.126 275.232V277.217H173.403V275.211C172.182 275.036 171.005 274.535 170.133 273.815L171.049 271.962C171.986 272.769 173.403 273.336 174.341 273.336C175.038 273.336 175.496 273.074 175.496 272.594C175.496 271.046 170.7 271.984 170.7 268.757C170.7 267.318 171.746 266.315 173.403 266.032V264.113H175.126V266.01C176.194 266.119 177.197 266.489 177.982 266.991L177.088 268.888C176.129 268.343 174.908 267.907 174.145 267.907C173.578 267.907 173.185 268.125 173.185 268.539C173.185 270.043 177.982 269.193 177.982 272.463C177.982 274.055 176.761 274.993 175.126 275.211V275.232Z" fill="#6CA8F7"/>
<path d="M183.848 275.232V277.217H182.126V275.211C180.905 275.036 179.728 274.535 178.855 273.815L179.771 271.962C180.709 272.769 182.126 273.336 183.063 273.336C183.761 273.336 184.219 273.074 184.219 272.594C184.219 271.046 179.422 271.984 179.422 268.757C179.422 267.318 180.469 266.315 182.126 266.032V264.113H183.848V266.01C184.917 266.119 185.92 266.489 186.705 266.991L185.811 268.888C184.851 268.343 183.63 267.907 182.867 267.907C182.3 267.907 181.908 268.125 181.908 268.539C181.908 270.043 186.705 269.193 186.705 272.463C186.705 274.055 185.484 274.993 183.848 275.211V275.232Z" fill="#6CA8F7"/>
<path d="M165.401 247.674L166.579 250.072L169.217 250.443L167.32 252.318L167.756 254.956L165.401 253.714L163.047 254.956L163.483 252.318L161.586 250.443L164.224 250.072L165.401 247.674Z" fill="#FFD852"/>
<path d="M174.319 247.674L175.519 250.072L178.157 250.443L176.238 252.318L176.696 254.956L174.319 253.714L171.965 254.956L172.423 252.318L170.504 250.443L173.142 250.072L174.319 247.674Z" fill="#FFD852"/>
<path d="M182.084 250.072L179.445 250.443L181.342 252.318L180.906 254.956L183.261 253.714V247.674L182.084 250.072Z" fill="#FFD852"/>
<path d="M187.073 250.443L184.435 250.072L183.258 247.674V253.714L185.613 254.956L185.176 252.318L187.073 250.443Z" fill="#6CA8F7"/>
<path d="M152.208 265.138L144.359 239.214C144.359 239.214 158.401 222.513 185.044 219.395C196.338 218.065 215.219 222.077 220.365 226.001L228.89 268.125C228.89 268.125 238.679 310.837 243.301 329.326C244.893 335.649 237.938 338.679 237.938 338.679L173.052 350.693C168.365 351.565 163.895 348.338 163.241 343.628L152.23 265.181L152.208 265.138Z" fill="#FFBA52"/>
<path d="M247.553 331.637L245.438 339.094C245.438 339.094 250.998 339.683 252.241 345.417L255.25 344C255.25 344 253.309 339.247 254.661 338.636C256.013 338.047 259.785 343.803 260.155 345.264C260.526 346.725 251.565 354.814 248.556 355.621C245.526 356.449 236.761 351.064 235.104 349.93C233.447 348.796 235.104 329.98 235.104 329.98L247.553 331.637Z" fill="#FFC6DA"/>
<path d="M220.342 225.979C226.687 228.399 261.812 269.345 262.727 274.12C263.643 278.895 249.733 331.92 249.733 331.92L231.004 329.435L239.464 278.961L213.082 255.283L220.342 225.979Z" fill="#FFBA52"/>
<path d="M118.852 294.485C133.242 299.129 159.471 265.836 159.471 265.836L145.713 245.036L118.852 294.485Z" fill="#FFBA52"/>
<path d="M147.479 222.36C147.479 222.36 124.586 255.283 115.886 271.919C110.217 282.755 114.665 308.679 132.653 284.957C150.575 261.322 161.454 231.888 161.454 231.888L147.457 222.339L147.479 222.36Z" fill="#FFBA52"/>
<path d="M159.446 185.469C159.446 185.469 149.983 179.081 148.152 188.02C146.168 197.832 159.707 195.106 159.707 195.106L159.446 185.491V185.469Z" fill="#FFB7D0"/>
<path d="M189.336 221.292L194.46 194.801C194.46 194.801 204.816 198.53 205.754 190.027C206.583 182.461 198.341 181.763 194.329 185.274C194.329 185.274 201.808 158.914 178.936 156.494C170.826 155.643 164.612 157.322 161.123 162.402C159.379 164.953 159.074 166.915 158.027 172.715C156.523 181.022 155.345 189.503 155.258 193.035C154.931 206.401 164.437 212.942 171.371 213.705L170.717 221.903C170.717 221.903 170.062 229.076 176.8 229.425C185.782 229.904 189.336 221.27 189.336 221.27V221.292Z" fill="#FFC6DA"/>
<path d="M189.229 186.69C190.799 183.769 192.412 180.825 193.219 177.62C194.048 174.415 194.026 170.861 192.478 167.94C190.254 163.754 185.457 161.682 180.879 160.483C175.646 159.131 170.239 158.63 164.832 158.848C163.371 159.764 162.106 160.919 161.103 162.402C159.555 164.669 159.119 166.501 158.312 170.949C167.601 174.982 178.502 175.157 187.856 171.254C185.108 176.029 185.675 182.482 189.207 186.69H189.229Z" fill="#604DA3"/>
<path d="M189.227 170.775C189.227 170.775 183.406 183.813 189.358 186.669C189.358 186.669 186.066 195.282 188.006 196.023C189.947 196.742 194.307 185.296 194.307 185.296C194.307 185.296 196.27 183.682 199.824 183.268C199.824 183.268 209.831 177.141 208.61 173.435C207.389 169.728 201.546 169.728 201.546 169.728C201.546 169.728 203.138 162.904 201.284 159.655C199.431 156.407 193.959 157.301 193.959 157.301L194.787 140.229C194.787 140.229 189.816 143.783 187.766 154.466C187.766 154.466 187.614 149.452 189.271 145.069L166.487 133.797C166.487 133.797 156.872 135.585 152.903 145.331C148.935 155.077 154.56 162.904 157.068 165.084C157.068 165.084 153.536 167.723 153.121 171.407C152.707 175.092 155.433 177.403 155.433 177.403L156.109 184.62L159.684 169.227C159.684 169.227 173.529 176.814 189.249 170.775H189.227Z" fill="#604DA3"/>
<path d="M171.352 213.727C176.628 214.664 181.992 213.858 181.992 213.858C181.992 213.858 176.824 217.673 171.199 217.15L171.352 213.727Z" fill="#604DA3"/>
<path d="M165.266 178.122C165.702 179.758 164.437 181.327 162.715 181.24C161.69 181.175 160.774 180.433 160.512 179.431C160.076 177.795 161.341 176.225 163.063 176.313C164.088 176.378 165.004 177.119 165.266 178.122Z" fill="#604DA3"/>
<path d="M176.498 179.54C176.673 180.892 175.713 182.113 174.361 182.287C173.01 182.461 171.789 181.502 171.614 180.15C171.44 178.798 172.399 177.577 173.751 177.403C175.103 177.229 176.324 178.188 176.498 179.54Z" fill="#604DA3"/>
<path d="M196.16 191.269C196.16 191.269 196.117 191.269 196.095 191.269C195.768 191.247 195.528 190.942 195.572 190.615C195.724 189.089 196.64 187.694 197.97 186.93C199.3 186.167 200.979 186.102 202.352 186.756C202.657 186.887 202.767 187.257 202.636 187.541C202.505 187.846 202.134 187.955 201.851 187.824C200.804 187.345 199.54 187.388 198.559 187.955C197.556 188.522 196.88 189.59 196.749 190.724C196.727 191.029 196.465 191.247 196.16 191.247V191.269Z" fill="#604DA3"/>
<path d="M199.279 190.506C199.104 190.506 198.908 190.419 198.799 190.266L197.36 188.326C197.164 188.064 197.229 187.694 197.491 187.497C197.753 187.301 198.123 187.367 198.32 187.628L199.759 189.569C199.955 189.83 199.889 190.201 199.628 190.397C199.519 190.484 199.388 190.506 199.279 190.506Z" fill="#604DA3"/>
<path d="M182.642 175.485C182.533 175.485 182.424 175.463 182.315 175.397C180.222 174.024 177.301 173.893 175.055 175.027C174.771 175.179 174.401 175.07 174.248 174.765C174.096 174.46 174.205 174.111 174.51 173.958C177.148 172.607 180.462 172.759 182.948 174.373C183.209 174.547 183.296 174.918 183.122 175.201C183.013 175.376 182.817 175.463 182.621 175.463L182.642 175.485Z" fill="#604DA3"/>
<path d="M167.906 174.306C167.754 174.306 167.601 174.241 167.492 174.132C165.769 172.431 162.695 172.344 160.886 173.979C160.646 174.197 160.275 174.175 160.057 173.935C159.839 173.696 159.861 173.325 160.101 173.107C162.346 171.101 166.184 171.188 168.32 173.303C168.56 173.543 168.56 173.914 168.32 174.132C168.211 174.241 168.059 174.306 167.906 174.306Z" fill="#604DA3"/>
<path d="M167.037 190.747C166.819 190.747 166.601 190.616 166.514 190.42C166.035 189.46 166.187 188.763 166.383 188.326C166.754 187.563 167.539 187.193 167.997 187.04L169.632 182.505C169.741 182.2 170.09 182.047 170.395 182.156C170.7 182.265 170.853 182.614 170.744 182.919L169 187.738C168.934 187.934 168.76 188.065 168.564 188.108C168.324 188.152 167.648 188.392 167.43 188.85C167.299 189.111 167.343 189.482 167.561 189.896C167.713 190.18 167.583 190.55 167.299 190.681C167.212 190.725 167.125 190.747 167.037 190.747Z" fill="#001A2D"/>
<path d="M169.108 197.221C168.432 197.221 167.756 197.134 167.146 197.025C166.753 196.96 166.491 196.589 166.557 196.197C166.622 195.804 167.015 195.564 167.385 195.608C170.307 196.109 171.942 195.434 172.836 193.362C172.989 192.992 173.403 192.839 173.774 192.992C174.144 193.144 174.297 193.58 174.144 193.929C173.011 196.546 170.983 197.2 169.086 197.2L169.108 197.221Z" fill="#001A2D"/>
<path d="M167.276 222.513C167.276 222.513 166.208 214.926 171.266 215.82L170.917 219.308C170.917 219.308 180.903 222.121 190.3 216.408L190.998 212.462C190.998 212.462 195.271 212.92 195.337 215.514C195.402 218.109 193.396 229.468 189.384 232.39C185.373 235.333 171.571 233.589 168.933 232.237C166.295 230.886 167.276 222.513 167.276 222.513Z" fill="#FFBA52"/>
<path d="M179.224 230.078C175.453 230.078 171.659 229.315 168.17 227.789C167.8 227.614 167.625 227.178 167.778 226.808C167.952 226.437 168.388 226.241 168.759 226.415C175.845 229.511 184.196 229.271 191.107 225.739C191.478 225.543 191.914 225.696 192.11 226.066C192.306 226.437 192.154 226.895 191.783 227.069C187.88 229.053 183.541 230.056 179.203 230.056L179.224 230.078Z" fill="#FFA810"/>
<path d="M186.79 223.843C186.79 223.843 186.703 223.843 186.66 223.843C186.245 223.778 185.984 223.385 186.049 222.971L186.442 220.725C186.507 220.311 186.899 220.05 187.314 220.115C187.728 220.18 187.99 220.573 187.924 220.987L187.837 221.489L187.532 223.233C187.466 223.603 187.161 223.843 186.79 223.843Z" fill="#FFA810"/>
<path d="M190.168 221.903C190.168 221.903 190.168 221.903 190.146 221.903C189.732 221.903 189.405 221.532 189.427 221.118L189.492 219.504C189.492 219.09 189.776 218.785 190.277 218.785C190.691 218.785 191.018 219.155 190.997 219.57L190.931 221.183C190.931 221.597 190.582 221.903 190.19 221.903H190.168Z" fill="#FFA810"/>
<path d="M174.142 215.122C174.382 214.882 174.622 214.577 174.818 214.206C177.522 209.628 174.666 208.276 174.666 208.276C174.666 208.276 177.325 205.224 176.366 204.417C175.407 202.891 160.494 210.26 159.709 211.132C159.578 211.285 159.469 211.416 159.338 211.546C159.447 209.279 159.338 206.27 158.161 204.897C156.656 203.109 155.762 207.578 155.065 211.067C154.672 212.985 152.862 220.791 152.862 220.791L151.445 225.021L159.796 230.711L173.009 220.595C173.009 220.595 175.429 218.632 174.84 217.695C174.251 216.757 172.943 216.474 172.943 216.474C172.943 216.474 173.597 215.929 174.164 215.1L174.142 215.122Z" fill="#FFC6DA"/>
<path d="M175.015 213.967C174.841 213.967 174.645 213.88 174.536 213.727C174.339 213.465 174.405 213.095 174.666 212.898C175.429 212.353 176.541 211.241 176.476 210.653C176.389 209.933 175.342 208.734 174.71 208.167C174.601 208.058 174.514 207.906 174.514 207.753C174.514 207.6 174.579 207.426 174.688 207.317C175.451 206.554 176.193 205.442 176.127 205.028C175.211 204.744 168.998 207.121 163.809 209.519C163.503 209.65 163.154 209.519 163.024 209.236C162.893 208.93 163.024 208.581 163.307 208.451C167.689 206.445 175.233 203.196 176.607 203.937C176.978 204.134 177.217 204.461 177.283 204.875C177.435 205.834 176.498 207.077 175.909 207.753C176.498 208.363 177.501 209.541 177.632 210.566C177.806 212.048 175.757 213.618 175.342 213.901C175.233 213.967 175.124 214.01 174.993 214.01L175.015 213.967Z" fill="#604DA3"/>
<path d="M174.491 219.483C174.491 219.483 174.47 219.483 174.448 219.483C174.121 219.461 173.881 219.178 173.903 218.851C173.968 218.044 173.379 217.237 172.616 217.019C172.289 216.932 172.115 216.605 172.202 216.3C172.289 215.995 172.594 215.798 172.921 215.886C174.251 216.234 175.189 217.586 175.102 218.938C175.08 219.243 174.818 219.483 174.513 219.483H174.491Z" fill="#604DA3"/>
<path d="M163.899 187.716C159.822 187.716 156.508 184.402 156.508 180.325C156.508 176.248 159.822 172.933 163.899 172.933C167.976 172.933 171.29 176.248 171.29 180.325C171.29 184.402 167.976 187.716 163.899 187.716ZM163.899 175.114C161.021 175.114 158.688 177.447 158.688 180.325C158.688 183.203 161.021 185.536 163.899 185.536C166.777 185.536 169.11 183.203 169.11 180.325C169.11 177.447 166.777 175.114 163.899 175.114Z" fill="white"/>
<path d="M176.567 189.002C172.49 189.002 169.176 185.688 169.176 181.611C169.176 177.534 172.49 174.22 176.567 174.22C180.644 174.22 183.958 177.534 183.958 181.611C183.958 185.688 180.644 189.002 176.567 189.002ZM176.567 176.4C173.689 176.4 171.356 178.733 171.356 181.611C171.356 184.489 173.689 186.822 176.567 186.822C179.445 186.822 181.778 184.489 181.778 181.611C181.778 178.733 179.445 176.4 176.567 176.4Z" fill="white"/>
<path d="M194.334 185.275L182.691 183.247L183.04 181.089L197.19 183.683L194.334 185.275Z" fill="white"/>
<path d="M225.339 267.013C225.165 267.013 224.99 266.947 224.838 266.817L216.204 259.055C215.898 258.771 215.877 258.313 216.138 257.986C216.422 257.681 216.879 257.659 217.206 257.921L225.84 265.683C226.146 265.966 226.168 266.424 225.906 266.751C225.753 266.926 225.557 266.991 225.339 266.991V267.013Z" fill="#FFA810"/>
<path d="M130.557 288.358C130.361 288.358 130.165 288.271 130.012 288.119C129.729 287.813 129.75 287.334 130.056 287.05C148.588 269.63 157.549 237.797 157.637 237.47C157.746 237.078 158.16 236.838 158.552 236.947C158.945 237.056 159.185 237.47 159.076 237.863C158.988 238.19 149.94 270.415 131.08 288.14C130.928 288.271 130.753 288.337 130.557 288.337V288.358Z" fill="#FFA810"/>
<path d="M216.508 325.488C216.399 325.488 216.268 325.467 216.159 325.401C194.378 313.78 175.91 296.599 162.741 275.712C162.523 275.363 162.632 274.905 162.981 274.687C163.33 274.469 163.788 274.578 164.006 274.927C177.044 295.597 195.315 312.603 216.857 324.093C217.227 324.289 217.358 324.747 217.162 325.118C217.031 325.379 216.769 325.51 216.508 325.51V325.488Z" fill="#FFA810"/>
<path d="M198.653 328.476C198.522 328.476 198.37 328.433 198.261 328.367C188.646 322.284 180.251 314.043 173.994 304.515C173.776 304.166 173.863 303.708 174.212 303.468C174.561 303.25 175.019 303.338 175.258 303.686C181.385 313.018 189.627 321.107 199.067 327.081C199.416 327.299 199.525 327.757 199.307 328.106C199.155 328.324 198.915 328.455 198.675 328.455L198.653 328.476Z" fill="#FFA810"/>
<path d="M23.0948 188.042C33.7635 188.042 42.4123 179.393 42.4123 168.725C42.4123 158.056 33.7635 149.407 23.0948 149.407C12.426 149.407 3.77734 158.056 3.77734 168.725C3.77734 179.393 12.426 188.042 23.0948 188.042Z" fill="#FF7D4F"/>
<path d="M29.5718 160.047C29.5718 163.623 26.672 166.523 23.0963 166.523C19.5206 166.523 16.6208 163.623 16.6208 160.047C16.6208 156.472 19.5206 153.572 23.0963 153.572C26.672 153.572 29.5718 156.472 29.5718 160.047ZM23.0963 168.747C17.4712 168.747 12.3692 170.883 8.48828 174.35C10.734 180.237 16.4246 184.401 23.0963 184.401C29.7681 184.401 35.4587 180.215 37.7044 174.35C33.8234 170.883 28.7215 168.747 23.0963 168.747Z" fill="white"/>
<path d="M232.336 210.194C232.336 214.838 228.564 218.61 223.92 218.61C219.276 218.61 215.504 214.838 215.504 210.194C215.504 205.55 219.276 201.778 223.92 201.778C228.564 201.778 232.336 205.55 232.336 210.194Z" fill="#FF7D4F"/>
<path d="M210.443 128.084C216.271 128.084 220.996 123.359 220.996 117.531C220.996 111.703 216.271 106.978 210.443 106.978C204.615 106.978 199.891 111.703 199.891 117.531C199.891 123.359 204.615 128.084 210.443 128.084Z" fill="#FFD852"/>
<path d="M211.447 121.782V123.636H209.834V121.761C208.7 121.608 207.588 121.128 206.781 120.474L207.632 118.752C208.504 119.493 209.834 120.038 210.706 120.038C211.36 120.038 211.774 119.798 211.774 119.34C211.774 117.901 207.305 118.774 207.305 115.765C207.305 114.413 208.264 113.497 209.834 113.236V111.448H211.447V113.214C212.45 113.323 213.388 113.672 214.107 114.13L213.279 115.896C212.385 115.394 211.251 114.98 210.531 114.98C210.008 114.98 209.637 115.176 209.637 115.569C209.637 116.964 214.107 116.179 214.107 119.231C214.107 120.714 212.973 121.586 211.447 121.804V121.782Z" fill="white"/>
<path d="M44.6978 308.7C44.6978 315.088 39.5087 320.277 33.1204 320.277C26.7321 320.277 21.543 315.088 21.543 308.7C21.543 302.311 26.7321 297.122 33.1204 297.122C39.5087 297.122 44.6978 302.311 44.6978 308.7Z" fill="white"/>
<path d="M33.1177 301.984L35.1018 306.018L39.5496 306.672L36.3228 309.811L37.0859 314.259L33.1177 312.166L29.1277 314.259L29.8909 309.811L26.6641 306.672L31.1118 306.018L33.1177 301.984Z" fill="#FFD852"/>
<path d="M188.178 64.9635H53.0214C49.4089 64.9635 46.4805 67.892 46.4805 71.5044V103.904C46.4805 107.516 49.4089 110.445 53.0214 110.445H188.178C191.791 110.445 194.719 107.516 194.719 103.904V71.5044C194.719 67.892 191.791 64.9635 188.178 64.9635Z" fill="white"/>
<path d="M75.9052 103.707C84.7751 100.012 88.9695 89.825 85.2737 80.9551C81.5779 72.0851 71.3913 67.8907 62.5214 71.5865C53.6515 75.2824 49.457 85.4689 53.1528 94.3389C56.8487 103.209 67.0352 107.403 75.9052 103.707Z" fill="#DED3F2"/>
<path d="M117.733 80.2257H95.3847C94.1419 80.2257 93.1172 79.2227 93.1172 77.9582C93.1172 76.7154 94.1201 75.6907 95.3847 75.6907H117.733C118.976 75.6907 120 76.6936 120 77.9582C120 79.2009 118.997 80.2257 117.733 80.2257Z" fill="#FFD852"/>
<path d="M136.9 93.5472H95.3651C94.1224 93.5472 93.0977 92.5443 93.0977 91.2797C93.0977 90.0369 94.1005 89.0122 95.3651 89.0122H136.9C138.143 89.0122 139.167 90.0151 139.167 91.2797C139.167 92.5225 138.164 93.5472 136.9 93.5472Z" fill="#FF7D4F"/>
<path d="M136.9 101.702H95.3651C94.1224 101.702 93.0977 100.699 93.0977 99.4343C93.0977 98.1915 94.1005 97.1667 95.3651 97.1667H136.9C138.143 97.1667 139.167 98.1697 139.167 99.4343C139.167 100.677 138.164 101.702 136.9 101.702Z" fill="#FF7D4F"/>
<path d="M166.376 100.262V102.247H164.653V100.241C163.432 100.066 162.255 99.5648 161.383 98.8453L162.299 96.992C163.236 97.7988 164.653 98.3656 165.591 98.3656C166.289 98.3656 166.746 98.104 166.746 97.6243C166.746 96.0763 161.95 97.0138 161.95 93.787C161.95 92.348 162.996 91.3451 164.653 91.0616V89.1429H166.376V91.0398C167.444 91.1488 168.447 91.5195 169.232 92.0209L168.338 93.9178C167.379 93.3727 166.158 92.9367 165.395 92.9367C164.828 92.9367 164.435 93.1547 164.435 93.569C164.435 95.0734 169.232 94.2231 169.232 97.4935C169.232 99.0851 168.011 100.023 166.376 100.241V100.262Z" fill="#FF7D4F"/>
<path d="M175.118 100.262V102.246H173.395V100.241C172.174 100.066 170.997 99.5647 170.125 98.8452L171.041 96.9919C171.978 97.7986 173.395 98.3655 174.333 98.3655C175.031 98.3655 175.489 98.1039 175.489 97.6242C175.489 96.0762 170.692 97.0137 170.692 93.7869C170.692 92.3479 171.738 91.3449 173.395 91.0615V89.1428H175.118V91.0397C176.186 91.1487 177.189 91.5193 177.974 92.0208L177.08 93.9177C176.121 93.3726 174.9 92.9366 174.137 92.9366C173.57 92.9366 173.177 93.1546 173.177 93.5688C173.177 95.0732 177.974 94.2229 177.974 97.4934C177.974 99.085 176.753 100.023 175.118 100.241V100.262Z" fill="#FF7D4F"/>
<path d="M183.841 100.262V102.246H182.118V100.241C180.897 100.066 179.72 99.5647 178.848 98.8452L179.763 96.9919C180.701 97.7986 182.118 98.3655 183.056 98.3655C183.753 98.3655 184.211 98.1039 184.211 97.6242C184.211 96.0762 179.415 97.0137 179.415 93.7869C179.415 92.3479 180.461 91.3449 182.118 91.0615V89.1428H183.841V91.0397C184.909 91.1487 185.912 91.5193 186.697 92.0208L185.803 93.9177C184.843 93.3726 183.623 92.9366 182.859 92.9366C182.293 92.9366 181.9 93.1546 181.9 93.5688C181.9 95.0732 186.697 94.2229 186.697 97.4934C186.697 99.085 185.476 100.023 183.841 100.241V100.262Z" fill="#FF7D4F"/>
<path d="M165.394 72.6821L166.571 75.0805L169.209 75.4729L167.312 77.3262L167.748 79.9643L165.394 78.7216L163.039 79.9643L163.475 77.3262L161.578 75.4729L164.216 75.0805L165.394 72.6821Z" fill="#FFD852"/>
<path d="M174.312 72.6821L175.511 75.0805L178.149 75.4729L176.23 77.3262L176.688 79.9643L174.312 78.7216L171.957 79.9643L172.415 77.3262L170.496 75.4729L173.134 75.0805L174.312 72.6821Z" fill="#FFD852"/>
<path d="M182.076 75.0805L179.438 75.4729L181.334 77.3262L180.898 79.9643L183.253 78.7216V72.6821L182.076 75.0805Z" fill="#FFD852"/>
<path d="M187.069 75.4729L184.431 75.0805L183.254 72.6821V78.7216L185.609 79.9643L185.173 77.3262L187.069 75.4729Z" fill="#DED3F2"/>
<path d="M67.6103 33.4359C70.3379 20.425 62.0016 7.6664 48.9907 4.93879C35.9797 2.21118 23.2211 10.5474 20.4935 23.5584C17.7659 36.5693 26.1022 49.328 39.1131 52.0556C52.1241 54.7832 64.8827 46.4469 67.6103 33.4359Z" fill="url(#paint1_linear_138_1635)" fill-opacity="0.6"/>
<path d="M43.9598 40.589L40.2097 38.1253C40.0135 37.9945 38.3128 36.8607 36.5686 35.3999C34.0176 33.2632 31.0742 30.2762 31.0742 26.2208C31.0742 22.3835 34.1702 19.2875 38.0076 19.2875C40.6457 19.2875 42.9569 20.7701 44.1124 22.9286C45.2898 20.8137 47.5573 19.3747 50.1737 19.3747C54.011 19.3747 57.107 22.4707 57.107 26.3081C57.107 30.4288 54.0982 33.394 51.4601 35.5307C49.6722 36.9697 47.9279 38.0817 47.7317 38.2125L43.938 40.6108L43.9598 40.589Z" fill="#FF7D4F"/>
<path d="M120.596 353.462C134.335 353.462 145.473 342.324 145.473 328.584C145.473 314.845 134.335 303.707 120.596 303.707C106.857 303.707 95.7188 314.845 95.7188 328.584C95.7188 342.324 106.857 353.462 120.596 353.462Z" fill="#FFD852"/>
<path d="M112.16 327.602C111.92 327.602 111.68 327.537 111.462 327.428C110.743 327.036 110.481 326.142 110.874 325.422L115.191 317.464C115.583 316.745 116.477 316.483 117.197 316.875C117.916 317.268 118.178 318.162 117.785 318.881L113.468 326.839C113.207 327.341 112.683 327.624 112.16 327.624V327.602Z" fill="white"/>
<path d="M129.038 327.603C128.515 327.603 127.991 327.32 127.73 326.818L123.413 318.86C123.02 318.141 123.282 317.247 124.001 316.854C124.721 316.462 125.615 316.745 126.007 317.443L130.324 325.401C130.717 326.12 130.455 327.014 129.736 327.407C129.518 327.538 129.278 327.581 129.038 327.581V327.603Z" fill="white"/>
<path d="M108.563 328.89H132.633C134.029 328.89 135.184 327.756 135.184 326.339C135.184 324.943 134.05 323.788 132.633 323.788H108.563C107.167 323.788 106.012 324.922 106.012 326.339C106.012 327.734 107.146 328.89 108.563 328.89Z" fill="white"/>
<path d="M109.191 330.045L111.001 338.527C111.241 339.661 112.244 340.489 113.421 340.489H127.789C128.945 340.489 129.97 339.682 130.21 338.527L132.019 330.045H109.213H109.191ZM116.561 337.742C116.452 337.785 116.321 337.786 116.212 337.786C115.667 337.786 115.187 337.437 115.035 336.892L114.097 333.643C113.901 332.989 114.293 332.313 114.947 332.117C115.602 331.92 116.277 332.313 116.474 332.967L117.411 336.216C117.607 336.87 117.215 337.546 116.561 337.742ZM121.837 336.565C121.837 337.24 121.292 337.807 120.594 337.807C119.897 337.807 119.352 337.262 119.352 336.565V333.316C119.352 332.64 119.897 332.073 120.594 332.073C121.292 332.073 121.837 332.618 121.837 333.316V336.565ZM127.092 333.665L126.154 336.913C126.002 337.458 125.5 337.807 124.977 337.807C124.868 337.807 124.759 337.807 124.628 337.764C123.974 337.567 123.603 336.892 123.778 336.237L124.715 332.989C124.911 332.335 125.587 331.942 126.241 332.139C126.895 332.335 127.266 333.011 127.092 333.665Z" fill="white"/>
<path d="M25.3618 202.693C25.3618 205.113 23.3996 207.054 21.0012 207.054C18.6029 207.054 16.6406 205.091 16.6406 202.693C16.6406 200.295 18.6029 198.333 21.0012 198.333C23.3996 198.333 25.3618 200.295 25.3618 202.693Z" fill="white"/>
<path d="M225.34 78.4815C225.34 79.6807 224.381 80.64 223.182 80.64C221.983 80.64 221.023 79.6807 221.023 78.4815C221.023 77.2823 221.983 76.323 223.182 76.323C224.381 76.323 225.34 77.2823 225.34 78.4815Z" fill="white"/>
<path d="M245.965 228.966C245.965 231.19 244.177 232.977 241.953 232.977C239.729 232.977 237.941 231.19 237.941 228.966C237.941 226.742 239.729 224.954 241.953 224.954C244.177 224.954 245.965 226.742 245.965 228.966Z" fill="white"/>
<path d="M14.4601 287.79C14.4601 289.098 13.3917 290.167 12.0836 290.167C10.7754 290.167 9.70703 289.098 9.70703 287.79C9.70703 286.482 10.7754 285.414 12.0836 285.414C13.3917 285.414 14.4601 286.482 14.4601 287.79Z" fill="white"/>
<path d="M102.961 387.256C104.948 387.256 106.558 385.645 106.558 383.659C106.558 381.672 104.948 380.061 102.961 380.061C100.974 380.061 99.3633 381.672 99.3633 383.659C99.3633 385.645 100.974 387.256 102.961 387.256Z" fill="white"/>
<path d="M23.0943 55.1084C23.0943 56.8963 21.6553 58.3353 19.8674 58.3353C18.0796 58.3353 16.6406 56.8963 16.6406 55.1084C16.6406 53.3206 18.0796 51.8816 19.8674 51.8816C21.6553 51.8816 23.0943 53.3206 23.0943 55.1084Z" fill="#FF7D4F"/>
<path d="M203.642 6.53127C203.642 8.99501 201.637 11.0009 199.173 11.0009C196.709 11.0009 194.703 8.99501 194.703 6.53127C194.703 4.06753 196.709 2.06165 199.173 2.06165C201.637 2.06165 203.642 4.06753 203.642 6.53127Z" fill="#FF7D4F"/>
<path d="M155.244 388.52C155.244 391.202 153.063 393.382 150.382 393.382C147.7 393.382 145.52 391.202 145.52 388.52C145.52 385.838 147.7 383.658 150.382 383.658C153.063 383.658 155.244 385.838 155.244 388.52Z" fill="#FF7D4F"/>
<path d="M24.4265 341.077C24.4265 344.478 21.6574 347.248 18.2562 347.248C14.8549 347.248 12.0859 344.478 12.0859 341.077C12.0859 337.676 14.8549 334.907 18.2562 334.907C21.6574 334.907 24.4265 337.676 24.4265 341.077Z" fill="#FF7D4F"/>
<path d="M221.285 192.271C222.321 192.271 223.16 191.432 223.16 190.396C223.16 189.361 222.321 188.521 221.285 188.521C220.25 188.521 219.41 189.361 219.41 190.396C219.41 191.432 220.25 192.271 221.285 192.271Z" fill="#FFD852"/>
<path d="M179.444 8.20971C179.444 9.14724 178.68 9.88855 177.765 9.88855C176.849 9.88855 176.086 9.12544 176.086 8.20971C176.086 7.29398 176.849 6.53088 177.765 6.53088C178.68 6.53088 179.444 7.29398 179.444 8.20971Z" fill="#FFD852"/>
<path d="M73.155 10.1719C73.155 11.262 72.2829 12.1341 71.1927 12.1341C70.1026 12.1341 69.2305 11.262 69.2305 10.1719C69.2305 9.08172 70.1026 8.20959 71.1927 8.20959C72.2829 8.20959 73.155 9.08172 73.155 10.1719Z" fill="#FFD852"/>
<path d="M23.0943 137.894C23.0943 139.682 21.6553 141.121 19.8674 141.121C18.0796 141.121 16.6406 139.682 16.6406 137.894C16.6406 136.106 18.0796 134.667 19.8674 134.667C21.6553 134.667 23.0943 136.106 23.0943 137.894Z" fill="#FFD852"/>
<path d="M29.916 274.992C29.916 277.303 28.041 279.2 25.708 279.2C23.3751 279.2 21.5 277.325 21.5 274.992C21.5 272.659 23.3751 270.784 25.708 270.784C28.041 270.784 29.916 272.659 29.916 274.992Z" fill="#FFD852"/>
<path d="M79.8547 80.617C79.8547 80.617 71.1891 88.2274 68.9023 81.4069C68.9023 81.4069 63.3117 86.593 55.2962 89.9456L81.2719 89.8752C80.9625 87.1504 80.4676 83.3943 79.8547 80.617Z" fill="#0D2589"/>
<path d="M55.3088 89.9488L55.3243 93.4466L81.6486 93.3685C81.6486 93.3685 81.5173 91.9186 81.2844 89.8784L55.3088 89.9488Z" fill="#E6F9FF"/>
<path d="M56.7003 268.692L56.7002 272.067L58.7548 272.062L60.8094 272.058L62.864 272.053L64.9186 272.048L66.9732 272.035L69.0278 272.03L71.0824 272.025L73.137 272.015L75.1917 272.011L77.2463 272.007L79.3009 271.995L81.3555 271.993C81.3555 271.993 81.5735 270.119 81.3554 268.208L56.7003 268.692Z" fill="#E6F9FF"/>
<path d="M81.42 268.399C81.42 268.399 81.2802 259.599 79.2725 254.558C79.2725 254.558 75.7987 254.119 72.386 253.209C71.1196 252.871 69.7783 253.719 69.5494 255.009C69.1116 257.477 68.2212 260.995 66.5931 262.12C64.869 263.316 62.4466 264.427 59.1949 264.833C58.0164 264.982 57.0999 265.922 56.9253 267.075L56.707 268.635L68.7099 268.4H76.2827L81.42 268.399Z" fill="#92385B"/>
<path d="M75.9247 220.369C84.7946 216.673 88.9891 206.487 85.2933 197.617C81.5974 188.747 71.4108 184.552 62.5409 188.248C53.671 191.944 49.4765 202.131 53.1724 211.001C56.8682 219.871 67.0548 224.065 75.9247 220.369Z" fill="#DED3F2"/>
<path d="M80.1825 197.362C73.9845 197.362 71.9851 203.204 69.2527 198.028C65.4761 207.581 56.3013 204.182 56.168 208.603C63.0324 210.713 77.139 205.404 81.9375 207.714C81.6487 205.337 80.76 199.805 80.1602 197.362H80.1825Z" fill="#1B38AD"/>
<path d="M75.4715 205.115C64.9637 209.98 56.2109 208.603 56.2109 208.603V209.824H70.1843C71.6504 208.825 74.4495 207.536 77.0487 209.824H82.1137C82.6913 208.136 82.1804 206.248 81.514 204.337C81.514 204.337 79.6701 203.182 75.4937 205.115H75.4715Z" fill="#E6F9FF"/>
<defs>
<linearGradient id="paint0_linear_138_1635" x1="140.004" y1="116.746" x2="140.004" y2="396.755" gradientUnits="userSpaceOnUse">
<stop stop-color="#FFD9BC"/>
<stop offset="1" stop-color="#FFEADA"/>
</linearGradient>
<linearGradient id="paint1_linear_138_1635" x1="20.4935" y1="23.5584" x2="67.6103" y2="33.436" gradientUnits="userSpaceOnUse">
<stop stop-color="#FFD9BC"/>
<stop offset="1" stop-color="#FFEADA"/>
</linearGradient>
</defs>
</svg>
