<?xml version="1.0" encoding="iso-8859-1"?>
<!-- Uploaded to: SVG Repo, www.svgrepo.com, Generator: SVG Repo Mixer Tools -->
<svg height="800px" width="800px" version="1.1" id="Capa_1" xmlns="http://www.w3.org/2000/svg" xmlns:xlink="http://www.w3.org/1999/xlink" 
	 viewBox="0 0 60.842 60.842" xml:space="preserve">
<g>
	<g>
		<path fill="currentColor" d="M45.593,19.407v-0.002l-2.289,26.929h-8.569v-1.106v-9.041h1.086v8.972
			c1.844-0.25,3.837-1.199,4.716-3.169c0.036-0.19,0.314-1.084,0.424-1.354c3.055-7.687,2.035-15.611-1.434-22.951
			c-3.053-6.452-14.871-0.806-11.837,5.61c0.281,0.594,0.521,1.188,0.732,1.781c-2.329-0.905-4.684-1.744-7.048-2.563l0.571-1.112
			l-10.874-5.586l-0.82,1.596l9.266,4.761c-3.066,0.296-3.977,5.473-0.383,6.714c3.417,1.179,6.828,2.375,10.14,3.818
			c-0.162,1.367-0.469,2.736-0.952,4.116c-3.389,0.018-6.563,0.564-9.587,1.664c-1.442,0.523-2.443,1.845-2.561,3.374
			c-0.572,7.392,2.179,12.828,4.942,17.172c0.746,1.172,2.011,1.812,3.303,1.812c0.717,0,1.445-0.196,2.095-0.611
			c1.823-1.16,2.358-3.575,1.201-5.398c-2.361-3.709-3.518-6.641-3.754-9.734c1.5-0.327,2.737-0.479,4.389-0.465v-5.187h1.169v6.89
			h-4.126v3.691h17.595h3.639h1.358l2.607-30.62L45.593,19.407L45.593,19.407z"/>
		<circle fill="currentColor" cx="26.475" cy="7.152" r="7.152"/>
	</g>
</g>
</svg>