<svg width="20" height="34" viewBox="0 0 20 34" fill="none" xmlns="http://www.w3.org/2000/svg">
<path fill-rule="evenodd" clip-rule="evenodd" d="M15.4261 19.4169L3.54757 19.4169C3.00086 19.4169 2.55769 18.7744 2.55769 17.9817C2.55769 17.1891 3.00086 16.5465 3.54757 16.5465L15.4261 16.5465C15.9728 16.5465 16.416 17.1891 16.416 17.9817C16.416 18.7744 15.9728 19.4169 15.4261 19.4169ZM15.4261 26.2874L3.54757 26.2874C3.00086 26.2874 2.55769 25.6449 2.55769 24.8522C2.55769 24.0595 3.00086 23.417 3.54757 23.417L15.4261 23.417C15.9728 23.417 16.416 24.0595 16.416 24.8522C16.416 25.6449 15.9728 26.2874 15.4261 26.2874ZM3.54757 33.158H15.4261C15.9728 33.158 16.416 32.5154 16.416 31.7227C16.416 30.9301 15.9728 30.2875 15.4261 30.2875L3.54757 30.2875C3.00086 30.2875 2.55769 30.9301 2.55769 31.7227C2.55769 32.5154 3.00086 33.158 3.54757 33.158ZM8.40513 0.539314C9.0048 -0.179756 10.1094 -0.179756 10.7091 0.539318L18.7633 10.1973C19.578 11.1742 18.8834 12.658 17.6114 12.658L1.50287 12.658C0.230853 12.658 -0.463794 11.1742 0.350884 10.1973L8.40513 0.539314Z" fill="url(#paint0_linear_483_1864)"/>
<defs>
<linearGradient id="paint0_linear_483_1864" x1="9.55826" y1="35.158" x2="9.55826" y2="-3.1223" gradientUnits="userSpaceOnUse">
<stop stop-color="#FF7D4F" stop-opacity="0.2"/>
<stop offset="0.5" stop-color="#FF7D4F"/>
</linearGradient>
</defs>
</svg>
