<svg width="34" height="20" viewBox="0 0 34 20" fill="none" xmlns="http://www.w3.org/2000/svg">
<path fill-rule="evenodd" clip-rule="evenodd" d="M19.4152 3.68812L19.4152 15.5667C19.4152 16.1134 18.7727 16.5566 17.98 16.5566C17.1873 16.5566 16.5448 16.1134 16.5448 15.5667L16.5448 3.68812C16.5448 3.14141 17.1873 2.69824 17.98 2.69824C18.7727 2.69824 19.4152 3.14141 19.4152 3.68812ZM26.2857 3.68812L26.2857 15.5667C26.2857 16.1134 25.6432 16.5566 24.8505 16.5566C24.0578 16.5566 23.4153 16.1134 23.4153 15.5667L23.4153 3.68812C23.4153 3.14141 24.0578 2.69824 24.8505 2.69824C25.6432 2.69824 26.2857 3.14141 26.2857 3.68812ZM33.1563 15.5667L33.1563 3.68812C33.1563 3.14141 32.5137 2.69824 31.721 2.69824C30.9284 2.69824 30.2858 3.14141 30.2858 3.68812L30.2858 15.5667C30.2858 16.1134 30.9284 16.5566 31.721 16.5566C32.5137 16.5566 33.1563 16.1134 33.1563 15.5667ZM0.537606 10.7091C-0.181465 10.1095 -0.181465 9.00483 0.53761 8.40516L10.1956 0.350909C11.1724 -0.463769 12.6562 0.230878 12.6562 1.50289L12.6563 17.6114C12.6563 18.8834 11.1724 19.5781 10.1956 18.7634L0.537606 10.7091Z" fill="url(#paint0_linear_483_1854)"/>
<defs>
<linearGradient id="paint0_linear_483_1854" x1="35.1563" y1="9.556" x2="-3.12401" y2="9.556" gradientUnits="userSpaceOnUse">
<stop stop-color="#FF7D4F" stop-opacity="0.2"/>
<stop offset="0.5" stop-color="#FF7D4F"/>
</linearGradient>
</defs>
</svg>
