<svg width="34" height="20" viewBox="0 0 34 20" fill="none" xmlns="http://www.w3.org/2000/svg">
<path fill-rule="evenodd" clip-rule="evenodd" d="M13.741 3.68812L13.741 15.5667C13.741 16.1134 14.3836 16.5566 15.1762 16.5566C15.9689 16.5566 16.6114 16.1134 16.6114 15.5667L16.6114 3.68812C16.6114 3.14141 15.9689 2.69824 15.1762 2.69824C14.3836 2.69824 13.741 3.14141 13.741 3.68812ZM6.87053 3.68812L6.87053 15.5667C6.87053 16.1134 7.51307 16.5566 8.30575 16.5566C9.09842 16.5566 9.74096 16.1134 9.74096 15.5667L9.74097 3.68812C9.74097 3.14141 9.09842 2.69824 8.30575 2.69824C7.51308 2.69824 6.87053 3.14141 6.87053 3.68812ZM-1.55069e-07 15.5667L-6.74291e-07 3.68812C-6.98188e-07 3.14141 0.642548 2.69824 1.43522 2.69824C2.22789 2.69824 2.87044 3.14141 2.87044 3.68812L2.87044 15.5667C2.87044 16.1134 2.22789 16.5566 1.43522 16.5566C0.642546 16.5566 -1.31172e-07 16.1134 -1.55069e-07 15.5667ZM32.6186 10.7091C33.3377 10.1095 33.3377 9.00483 32.6186 8.40516L22.9607 0.350909C21.9838 -0.463769 20.5 0.230878 20.5 1.50289L20.5 17.6114C20.5 18.8834 21.9838 19.578 22.9607 18.7634L32.6186 10.7091Z" fill="url(#paint0_linear_483_1844)"/>
<defs>
<linearGradient id="paint0_linear_483_1844" x1="-2" y1="9.556" x2="36.2803" y2="9.556" gradientUnits="userSpaceOnUse">
<stop stop-color="#FF7D4F" stop-opacity="0.2"/>
<stop offset="0.5" stop-color="#FF7D4F"/>
</linearGradient>
</defs>
</svg>
