<svg width="20" height="34" viewBox="0 0 20 34" fill="none" xmlns="http://www.w3.org/2000/svg">
<path fill-rule="evenodd" clip-rule="evenodd" d="M15.4261 13.741L3.54757 13.741C3.00086 13.741 2.55769 14.3836 2.55769 15.1762C2.55769 15.9689 3.00086 16.6114 3.54757 16.6114L15.4261 16.6115C15.9728 16.6115 16.416 15.9689 16.416 15.1762C16.416 14.3836 15.9728 13.741 15.4261 13.741ZM15.4261 6.87053L3.54757 6.87053C3.00086 6.87053 2.55769 7.51307 2.55769 8.30575C2.55769 9.09842 3.00086 9.74096 3.54757 9.74096L15.4261 9.74097C15.9728 9.74097 16.416 9.09842 16.416 8.30575C16.416 7.51308 15.9728 6.87053 15.4261 6.87053ZM3.54757 0H15.4261C15.9728 0 16.416 0.642549 16.416 1.43522C16.416 2.22789 15.9728 2.87044 15.4261 2.87044L3.54757 2.87044C3.00086 2.87044 2.55769 2.22789 2.55769 1.43522C2.55769 0.642546 3.00086 0 3.54757 0ZM8.40513 32.6186C9.0048 33.3377 10.1094 33.3377 10.7091 32.6186L18.7633 22.9607C19.578 21.9838 18.8834 20.5 17.6114 20.5L1.50287 20.5C0.230855 20.5 -0.463793 21.9838 0.350885 22.9607L8.40513 32.6186Z" fill="url(#paint0_linear_483_1834)"/>
<defs>
<linearGradient id="paint0_linear_483_1834" x1="9.55826" y1="-2" x2="9.55826" y2="36.2803" gradientUnits="userSpaceOnUse">
<stop stop-color="#FF7D4F" stop-opacity="0.2"/>
<stop offset="0.5" stop-color="#FF7D4F"/>
</linearGradient>
</defs>
</svg>
