<svg width="282" height="255" viewBox="0 0 282 255" fill="none" xmlns="http://www.w3.org/2000/svg">
<g clip-path="url(#clip0_12_346)">
<circle cx="141.157" cy="152.142" r="103.105" transform="rotate(-30 141.157 152.142)" fill="url(#paint0_linear_12_346)"/>
<path d="M243.591 169.478C243.591 172.898 240.813 175.676 237.393 175.676C233.973 175.676 231.195 172.898 231.195 169.478C231.195 166.058 233.973 163.28 237.393 163.28C240.813 163.28 243.591 166.058 243.591 169.478Z" fill="#FF7D4F"/>
<path d="M209.448 186.172C209.448 187.809 208.132 189.126 206.494 189.126C204.856 189.126 203.539 187.809 203.539 186.172C203.539 184.534 204.856 183.217 206.494 183.217C208.132 183.217 209.448 184.534 209.448 186.172Z" fill="white"/>
<path d="M126.008 222.268C126.008 223.232 125.222 224.018 124.258 224.018C123.295 224.018 122.508 223.232 122.508 222.268C122.508 221.305 123.295 220.518 124.258 220.518C125.222 220.518 126.008 221.305 126.008 222.268Z" fill="white"/>
<path d="M230.753 116.377C230.753 117.693 229.693 118.753 228.377 118.753C227.06 118.753 226 117.693 226 116.377C226 115.06 227.06 114 228.377 114C229.693 114 230.753 115.06 230.753 116.377Z" fill="#FF7D4F"/>
<path d="M48.0565 131.2C48.0565 133.015 46.5792 134.492 44.7646 134.492C42.95 134.492 41.4727 133.015 41.4727 131.2C41.4727 129.386 42.95 127.908 44.7646 127.908C46.5792 127.908 48.0565 129.386 48.0565 131.2Z" fill="#FF7D4F"/>
<path d="M226.135 72.3223C226.135 74.2974 224.529 75.9033 222.554 75.9033C220.578 75.9033 218.973 74.2974 218.973 72.3223C218.973 70.3471 220.578 68.7413 222.554 68.7413C224.529 68.7413 226.135 70.3471 226.135 72.3223Z" fill="#FF7D4F"/>
<path d="M158.89 55.4452C158.89 56.2481 158.248 56.8905 157.445 56.8905C156.642 56.8905 156 56.2481 156 55.4452C156 54.6423 156.642 54 157.445 54C158.248 54 158.89 54.6423 158.89 55.4452Z" fill="#FFD852"/>
<path d="M75.8079 104.56C75.8079 105.877 74.748 106.937 73.4313 106.937C72.1145 106.937 71.0547 105.877 71.0547 104.56C71.0547 103.243 72.1145 102.184 73.4313 102.184C74.748 102.184 75.8079 103.243 75.8079 104.56Z" fill="#FFD852"/>
<path d="M189.156 230.691C189.156 232.394 187.775 233.791 186.056 233.791C184.338 233.791 182.957 232.41 182.957 230.691C182.957 228.973 184.338 227.592 186.056 227.592C187.775 227.592 189.156 228.973 189.156 230.691Z" fill="#FFD852"/>
<path d="M111.965 24.551C113.974 14.9692 107.834 5.57328 98.2526 3.56455C88.6707 1.55582 79.2748 7.69499 77.266 17.2768C75.2573 26.8586 81.3965 36.2546 90.9783 38.2633C100.56 40.2721 109.956 34.1329 111.965 24.551Z" fill="url(#paint1_linear_12_346)"/>
<path d="M80.7969 77.333L80.7969 96.957L80.7969 206.653L80.7969 226.269L201.519 226.268L201.519 175.915L201.519 127.692L201.519 77.3383L80.7969 77.333Z" fill="white"/>
<path d="M155.918 216.569C158.311 215.129 165.602 208.612 165.602 195.748C165.602 178.373 157.808 165.825 159.405 146.004C161.343 121.95 154.336 113.653 153.64 100.945C153.04 89.9979 135.147 92.669 137.682 104.223C139.457 112.313 140.829 119.089 140.057 119.368C138.623 119.882 137.419 107.349 133.872 104.826C131.121 102.868 126.09 105.013 127.56 110.257C128.909 115.076 132.189 123.174 130.58 123.739C129.548 124.1 127.675 109.846 121.603 111.851C114.483 114.203 124.123 127.703 122.552 128.789C121.467 129.54 118.58 116.09 113.377 118.495C108.233 120.873 116.678 133.453 115.5 134.193C114.323 134.932 111.596 126.05 108.937 126.541C105.02 127.265 105.934 133.767 111.67 142.99C121.916 159.466 122.532 186.886 131.121 203.513C136.387 213.703 149.887 220.204 155.921 216.569H155.918Z" fill="#FFC6DA"/>
<path d="M149.308 97.9282C147.746 97.8868 143.918 97.9963 141.428 99.8125C140.931 100.173 140.667 100.777 140.712 101.389C140.866 103.522 141.806 108.467 147.216 107.524C152.505 106.601 150.94 100.635 150.254 98.6234C150.115 98.2152 149.74 97.9401 149.308 97.9282Z" fill="#F2EBFF"/>
<path d="M132.458 105.507C132.704 105.512 132.925 105.678 133.008 105.909C133.357 106.867 134.047 109.349 132.106 110.089C129.683 111.012 128.816 107.888 128.816 107.403C128.816 106.918 129.914 105.453 132.458 105.509V105.507Z" fill="#F2EBFF"/>
<path d="M123.706 113.076C123.922 113.082 124.114 113.227 124.188 113.428C124.495 114.265 125.096 116.437 123.398 117.084C121.277 117.892 120.52 115.159 120.52 114.733C120.52 114.307 121.481 113.026 123.709 113.076H123.706Z" fill="#F2EBFF"/>
<path d="M115.46 119.631C115.652 119.619 115.839 119.737 115.918 119.912C116.256 120.642 116.954 122.554 115.472 123.258C113.62 124.136 112.744 121.734 112.712 121.35C112.682 120.983 113.454 119.743 115.46 119.628V119.631Z" fill="#F2EBFF"/>
<path d="M109.677 127.925C109.816 127.925 109.94 128.02 109.991 128.15C110.192 128.691 110.588 130.096 109.491 130.519C108.121 131.049 107.621 129.283 107.621 129.008C107.621 128.744 108.236 127.898 109.68 127.925H109.677Z" fill="#F2EBFF"/>
<path d="M157.807 210.088L152.635 254.365C134.757 256.735 122.936 254.365 108.395 250.503L129.428 197.801C129.428 197.801 150.022 185.224 157.807 210.085V210.088Z" fill="#FFC6DA"/>
<path d="M157.807 165.825C161.801 181.718 166.093 200.188 160.372 212.304C162.984 208.881 165.599 203.457 165.599 195.751C165.599 178.376 157.805 165.828 159.402 146.004C159.683 142.534 159.775 139.393 159.727 136.515C157.947 142.768 155.707 157.475 157.805 165.825H157.807Z" fill="#FFB7D0"/>
<path d="M137.682 104.226C139.456 112.316 140.829 119.092 140.054 119.368C140.548 119.684 141.84 114.756 140.705 110.994C139.048 105.507 138.77 97.8927 138.752 97.6709C137.608 99.3332 137.096 101.54 137.682 104.226Z" fill="#FFB7D0"/>
<path d="M127.557 110.254C128.906 115.075 132.184 123.171 130.577 123.739C132.252 123.662 132.287 118.882 130.237 115.152C128.184 111.425 128.045 105.906 128.045 105.906C127.33 106.941 127.037 108.402 127.557 110.254Z" fill="#FFB7D0"/>
<path d="M122.549 128.786C124.229 128.274 122.59 123.592 121.315 121.264C120.04 118.936 119.472 113.52 119.472 113.52C119.47 113.52 119.467 113.523 119.464 113.523C117.068 117.889 123.895 127.857 122.552 128.786H122.549Z" fill="#FFB7D0"/>
<path d="M115.498 134.193C116.997 133.705 115.823 130.519 114.051 127.638C112.3 124.798 112.288 119.533 112.288 119.388C112.288 119.388 112.285 119.388 112.282 119.391C109.694 123.083 116.566 133.521 115.498 134.196V134.193Z" fill="#FFB7D0"/>
<path d="M111.669 142.99C112.802 144.806 113.81 146.758 114.733 148.814C114.366 146.187 113.58 142.626 111.947 140.833C109.199 137.819 106.729 128.925 106.688 128.789C106.049 131.557 107.714 136.624 111.669 142.99Z" fill="#FFB7D0"/>
<path d="M155.373 208.363C157.607 201.652 153.542 193.509 153.542 193.509C153.542 193.509 161.196 201.116 156.236 211.126C149.153 225.422 154.08 210.488 155.373 208.363Z" fill="#604DA3"/>
<path fill-rule="evenodd" clip-rule="evenodd" d="M150.581 85.1388L146.138 85.1388C145.933 85.1388 145.768 85.3791 145.768 85.6756C145.768 85.972 145.933 86.2124 146.138 86.2124L150.581 86.2124C150.785 86.2124 150.951 85.972 150.951 85.6756C150.951 85.3791 150.785 85.1388 150.581 85.1388ZM150.581 82.5694L146.138 82.5694C145.934 82.5694 145.768 82.8097 145.768 83.1061C145.768 83.4026 145.934 83.6429 146.138 83.6429L150.581 83.6429C150.785 83.6429 150.951 83.4026 150.951 83.1061C150.951 82.8097 150.785 82.5694 150.581 82.5694ZM146.138 80L150.581 80C150.785 80 150.951 80.2403 150.951 80.5368C150.951 80.8332 150.785 81.0736 150.581 81.0736L146.138 81.0736C145.934 81.0736 145.768 80.8332 145.768 80.5368C145.768 80.2403 145.934 80 146.138 80ZM147.998 92.2547C148.198 92.4944 148.566 92.4944 148.766 92.2547L151.909 88.4863C152.18 88.1607 151.949 87.6661 151.525 87.6661L145.239 87.6661C144.815 87.6661 144.584 88.1607 144.855 88.4863L147.998 92.2547Z" fill="url(#paint2_linear_12_346)"/>
<path fill-rule="evenodd" clip-rule="evenodd" d="M93.0195 17.2494L93.0195 23.237C93.0195 23.5125 93.3434 23.7359 93.743 23.7359C94.1425 23.7359 94.4664 23.5125 94.4664 23.237L94.4664 17.2494C94.4664 16.9739 94.1425 16.7505 93.743 16.7505C93.3434 16.7505 93.0195 16.9739 93.0195 17.2494ZM89.5547 17.2494L89.5547 23.237C89.5547 23.5125 89.8786 23.7359 90.2781 23.7359C90.6777 23.7359 91.0016 23.5125 91.0016 23.237L91.0016 17.2494C91.0016 16.9739 90.6777 16.7505 90.2781 16.7505C89.8786 16.7505 89.5547 16.9739 89.5547 17.2494ZM86.0898 23.237L86.0898 17.2494C86.0898 16.9739 86.4137 16.7505 86.8133 16.7505C87.2128 16.7505 87.5367 16.9739 87.5367 17.2494L87.5367 23.237C87.5367 23.5125 87.2128 23.7359 86.8133 23.7359C86.4137 23.7359 86.0898 23.5125 86.0898 23.237ZM101.847 21.3584C102.566 20.7587 102.566 19.6541 101.847 19.0544L98.8846 16.5842C97.9078 15.7695 96.4239 16.4641 96.4239 17.7361L96.4239 22.6767C96.4239 23.9487 97.9078 24.6433 98.8846 23.8286L101.847 21.3584Z" fill="url(#paint3_linear_12_346)"/>
<path fill-rule="evenodd" clip-rule="evenodd" d="M160.475 218.376L164.965 218.376C165.172 218.376 165.339 218.133 165.339 217.834C165.339 217.534 165.172 217.291 164.965 217.291L160.475 217.291C160.269 217.291 160.101 217.534 160.101 217.834C160.101 218.133 160.269 218.376 160.475 218.376ZM160.475 220.973L164.965 220.973C165.172 220.973 165.339 220.73 165.339 220.43C165.339 220.131 165.172 219.888 164.965 219.888L160.475 219.888C160.269 219.888 160.101 220.131 160.101 220.43C160.101 220.73 160.269 220.973 160.475 220.973ZM164.965 223.57L160.475 223.57C160.269 223.57 160.101 223.327 160.101 223.027C160.101 222.727 160.269 222.485 160.475 222.485L164.965 222.485C165.172 222.485 165.339 222.727 165.339 223.027C165.339 223.327 165.172 223.57 164.965 223.57ZM163.071 211.18C162.871 210.94 162.503 210.94 162.303 211.18L159.115 215.002C158.844 215.327 159.075 215.822 159.499 215.822L165.874 215.822C166.298 215.822 166.53 215.327 166.258 215.002L163.071 211.18Z" fill="url(#paint4_linear_12_346)"/>
<path fill-rule="evenodd" clip-rule="evenodd" d="M105.191 146.72L105.191 151.21C105.191 151.417 105.434 151.584 105.734 151.584C106.033 151.584 106.276 151.417 106.276 151.21L106.276 146.72C106.276 146.514 106.033 146.346 105.734 146.346C105.434 146.346 105.191 146.514 105.191 146.72ZM102.602 146.72L102.602 151.21C102.602 151.417 102.844 151.584 103.144 151.584C103.444 151.584 103.687 151.417 103.687 151.21L103.687 146.72C103.687 146.514 103.444 146.346 103.144 146.346C102.844 146.346 102.602 146.514 102.602 146.72ZM100 151.21L100 146.72C100 146.514 100.243 146.346 100.542 146.346C100.842 146.346 101.085 146.514 101.085 146.72L101.085 151.21C101.085 151.417 100.842 151.584 100.542 151.584C100.243 151.584 100 151.417 100 151.21ZM112.394 149.322C112.634 149.122 112.634 148.754 112.394 148.554L108.572 145.367C108.246 145.095 107.752 145.327 107.752 145.751L107.752 152.125C107.752 152.549 108.246 152.781 108.572 152.509L112.394 149.322Z" fill="url(#paint5_linear_12_346)"/>
<path fill-rule="evenodd" clip-rule="evenodd" d="M168.379 146.471L168.379 150.96C168.379 151.167 168.136 151.335 167.836 151.335C167.537 151.335 167.294 151.167 167.294 150.96L167.294 146.471C167.294 146.264 167.537 146.097 167.836 146.097C168.136 146.097 168.379 146.264 168.379 146.471ZM170.969 146.471L170.969 150.96C170.969 151.167 170.726 151.335 170.426 151.335C170.127 151.335 169.884 151.167 169.884 150.96L169.884 146.471C169.884 146.264 170.127 146.097 170.426 146.097C170.726 146.097 170.969 146.264 170.969 146.471ZM173.57 150.96L173.57 146.471C173.57 146.264 173.327 146.097 173.028 146.097C172.728 146.097 172.485 146.264 172.485 146.471L172.485 150.96C172.485 151.167 172.728 151.335 173.028 151.335C173.327 151.335 173.57 151.167 173.57 150.96ZM161.18 149.072C160.94 148.872 160.94 148.504 161.18 148.304L165.002 145.117C165.328 144.845 165.822 145.077 165.822 145.501L165.822 151.876C165.822 152.3 165.328 152.531 165.002 152.26L161.18 149.072Z" fill="url(#paint6_linear_12_346)"/>
</g>
<defs>
<linearGradient id="paint0_linear_12_346" x1="141.157" y1="49.0368" x2="141.157" y2="255.247" gradientUnits="userSpaceOnUse">
<stop stop-color="#FFD9BC"/>
<stop offset="1" stop-color="#FFEADA"/>
</linearGradient>
<linearGradient id="paint1_linear_12_346" x1="77.266" y1="17.2768" x2="111.965" y2="24.5511" gradientUnits="userSpaceOnUse">
<stop stop-color="#FFD9BC"/>
<stop offset="1" stop-color="#FFEADA"/>
</linearGradient>
<linearGradient id="paint2_linear_12_346" x1="148.382" y1="79.25" x2="148.382" y2="93.6053" gradientUnits="userSpaceOnUse">
<stop stop-color="#FF7D4F" stop-opacity="0.2"/>
<stop offset="0.5" stop-color="#FF7D4F"/>
</linearGradient>
<linearGradient id="paint3_linear_12_346" x1="85.1069" y1="20.2059" x2="103.921" y2="20.2059" gradientUnits="userSpaceOnUse">
<stop stop-color="#FF7D4F" stop-opacity="0.2"/>
<stop offset="0.5" stop-color="#FF7D4F"/>
</linearGradient>
<linearGradient id="paint4_linear_12_346" x1="162.686" y1="224.328" x2="162.686" y2="209.816" gradientUnits="userSpaceOnUse">
<stop stop-color="#FF7D4F" stop-opacity="0.2"/>
<stop offset="0.5" stop-color="#FF7D4F"/>
</linearGradient>
<linearGradient id="paint5_linear_12_346" x1="99.2416" y1="148.937" x2="113.758" y2="148.937" gradientUnits="userSpaceOnUse">
<stop stop-color="#FF7D4F" stop-opacity="0.2"/>
<stop offset="0.5" stop-color="#FF7D4F"/>
</linearGradient>
<linearGradient id="paint6_linear_12_346" x1="174.328" y1="148.688" x2="159.817" y2="148.688" gradientUnits="userSpaceOnUse">
<stop stop-color="#FF7D4F" stop-opacity="0.2"/>
<stop offset="0.5" stop-color="#FF7D4F"/>
</linearGradient>
<clipPath id="clip0_12_346">
<rect width="282" height="255" fill="white"/>
</clipPath>
</defs>
</svg>
