<svg width="282" height="282" viewBox="0 0 282 282" fill="none" xmlns="http://www.w3.org/2000/svg">
<circle cx="141.157" cy="141.142" r="103.105" transform="rotate(-30 141.157 141.142)" fill="url(#paint0_linear_901_19)"/>
<path d="M243.118 158.55C243.118 161.971 240.341 164.748 236.921 164.748C233.5 164.748 230.723 161.971 230.723 158.55C230.723 155.13 233.5 152.353 236.921 152.353C240.341 152.353 243.118 155.13 243.118 158.55Z" fill="#FF7D4F"/>
<path d="M208.976 175.244C208.976 176.882 207.659 178.199 206.021 178.199C204.383 178.199 203.066 176.882 203.066 175.244C203.066 173.606 204.383 172.289 206.021 172.289C207.659 172.289 208.976 173.606 208.976 175.244Z" fill="white"/>
<path d="M125.536 211.341C125.536 212.304 124.749 213.091 123.785 213.091C122.822 213.091 122.035 212.304 122.035 211.341C122.035 210.377 122.822 209.59 123.785 209.59C124.749 209.59 125.536 210.377 125.536 211.341Z" fill="white"/>
<path d="M230.281 105.449C230.281 106.766 229.221 107.826 227.904 107.826C226.587 107.826 225.527 106.766 225.527 105.449C225.527 104.132 226.587 103.073 227.904 103.073C229.221 103.073 230.281 104.132 230.281 105.449Z" fill="#FF7D4F"/>
<path d="M47.5839 120.273C47.5839 122.087 46.1065 123.565 44.292 123.565C42.4774 123.565 41 122.087 41 120.273C41 118.458 42.4774 116.981 44.292 116.981C46.1065 116.981 47.5839 118.458 47.5839 120.273Z" fill="#FF7D4F"/>
<path d="M225.662 61.3948C225.662 63.37 224.056 64.9758 222.081 64.9758C220.106 64.9758 218.5 63.37 218.5 61.3948C218.5 59.4197 220.106 57.8138 222.081 57.8138C224.056 57.8138 225.662 59.4197 225.662 61.3948Z" fill="#FF7D4F"/>
<path d="M158.418 44.5178C158.418 45.3207 157.775 45.963 156.973 45.963C156.17 45.963 155.527 45.3207 155.527 44.5178C155.527 43.7149 156.17 43.0726 156.973 43.0726C157.775 43.0726 158.418 43.7149 158.418 44.5178Z" fill="#FFD852"/>
<path d="M75.3352 93.6327C75.3352 94.9495 74.2754 96.0093 72.9586 96.0093C71.6418 96.0093 70.582 94.9495 70.582 93.6327C70.582 92.3159 71.6418 91.2561 72.9586 91.2561C74.2754 91.2561 75.3352 92.3159 75.3352 93.6327Z" fill="#FFD852"/>
<path d="M188.683 219.764C188.683 221.466 187.302 222.863 185.584 222.863C183.865 222.863 182.484 221.482 182.484 219.764C182.484 218.046 183.865 216.665 185.584 216.665C187.302 216.665 188.683 218.046 188.683 219.764Z" fill="#FFD852"/>
<path d="M82 66.9993L82 86.6232L82 196.319L82 215.935L202.722 215.935L202.722 165.581L202.722 117.358L202.722 67.0045L82 66.9993Z" fill="white"/>
<path d="M145.798 202.41C148.405 201.407 156.717 196.255 158.951 183.587C161.968 166.475 156.471 152.765 161.486 133.522C167.571 110.17 162.111 100.782 163.633 88.1469C164.943 77.2615 146.858 76.785 147.348 88.6034C147.691 96.8787 147.866 103.791 147.058 103.931C145.555 104.188 146.546 91.6368 143.491 88.5361C141.122 86.13 135.795 87.3682 136.332 92.7883C136.824 97.7678 138.648 106.313 136.965 106.59C135.886 106.766 136.517 92.4034 130.188 93.3239C122.768 94.4035 129.918 109.372 128.182 110.169C126.983 110.72 126.475 96.9734 120.934 98.4381C115.455 99.887 121.587 113.743 120.299 114.266C119.011 114.79 117.868 105.569 115.164 105.591C111.181 105.624 110.952 112.186 114.999 122.265C122.229 140.269 118.073 167.38 123.646 185.246C127.061 196.195 139.227 204.942 145.801 202.41L145.798 202.41Z" fill="#FFC6DA"/>
<path d="M159.891 84.4233C158.36 84.1113 154.571 83.5544 151.803 84.9105C151.251 85.1796 150.887 85.7282 150.825 86.3389C150.606 88.4659 150.673 93.4998 156.165 93.51C161.534 93.5195 161.029 87.3722 160.702 85.2722C160.636 84.8461 160.314 84.5099 159.891 84.4233Z" fill="#F2EBFF"/>
<path d="M141.985 88.9608C142.225 89.0092 142.415 89.2109 142.457 89.4525C142.634 90.4571 142.882 93.021 140.842 93.4124C138.296 93.9006 137.985 90.6736 138.069 90.1959C138.153 89.7181 139.489 88.4666 141.984 88.9637L141.985 88.9608Z" fill="#F2EBFF"/>
<path d="M132.048 94.8951C132.259 94.9384 132.423 95.1145 132.461 95.3255C132.619 96.2034 132.833 98.446 131.048 98.7892C128.819 99.2162 128.548 96.3928 128.622 95.9733C128.696 95.5537 129.865 94.4592 132.05 94.8956L132.048 94.8951Z" fill="#F2EBFF"/>
<path d="M122.789 99.9182C122.98 99.94 123.143 100.089 123.192 100.275C123.397 101.053 123.752 103.056 122.171 103.492C120.194 104.036 119.749 101.518 119.784 101.134C119.818 100.767 120.794 99.6807 122.789 99.9153L122.789 99.9182Z" fill="#F2EBFF"/>
<path d="M115.657 107.083C115.794 107.107 115.9 107.222 115.927 107.359C116.031 107.927 116.178 109.379 115.023 109.605C113.583 109.889 113.397 108.063 113.445 107.792C113.49 107.533 114.243 106.806 115.66 107.083L115.657 107.083Z" fill="#F2EBFF"/>
<path d="M134.938 199.275L86.2036 226.313C74.3575 214.074 70.6169 203.219 66.999 189.202L132.815 168.588C132.815 168.588 156.695 175.779 134.941 199.273L134.938 199.275Z" fill="#FFC6DA"/>
<path d="M156.474 152.765C157.647 169.11 158.667 188.044 150.929 198.983C154.096 196.066 157.613 191.178 158.951 183.589C161.968 166.478 156.471 152.768 161.486 133.522C162.366 130.154 163.001 127.076 163.455 124.233C160.615 130.082 155.856 144.177 156.471 152.765L156.474 152.765Z" fill="#FFB7D0"/>
<path d="M147.348 88.6064C147.691 96.8817 147.866 103.794 147.055 103.93C147.487 104.328 149.615 99.6989 149.15 95.7963C148.472 90.105 149.52 82.5586 149.541 82.3371C148.125 83.7754 147.238 85.8597 147.348 88.6064Z" fill="#FFB7D0"/>
<path d="M136.333 92.7853C136.825 97.7678 138.646 106.31 136.966 106.59C138.628 106.805 139.493 102.104 138.122 98.0746C136.748 94.0478 137.569 88.5879 137.569 88.5879C136.684 89.4832 136.142 90.8713 136.333 92.7853Z" fill="#FFB7D0"/>
<path d="M128.179 110.165C129.923 109.953 129.122 105.057 128.271 102.543C127.419 100.029 127.8 94.5967 127.8 94.5967C127.798 94.5962 127.794 94.5986 127.791 94.5981C124.674 98.4817 129.666 109.484 128.182 110.166L128.179 110.165Z" fill="#FFB7D0"/>
<path d="M120.299 114.266C121.861 114.046 121.257 110.704 120.013 107.559C118.781 104.459 119.684 99.2715 119.709 99.1287C119.709 99.1287 119.706 99.1282 119.703 99.1306C116.513 102.317 121.467 113.79 120.298 114.269L120.299 114.266Z" fill="#FFB7D0"/>
<path d="M115 122.264C115.8 124.25 116.455 126.347 117.007 128.532C117.102 125.882 116.945 122.238 115.648 120.189C113.466 116.743 112.578 107.555 112.561 107.414C111.451 110.03 112.211 115.309 115 122.264Z" fill="#FFB7D0"/>
<path d="M134.289 191.088C137.621 186.449 136.663 179.433 136.663 179.433C136.663 179.433 140.405 186.776 134.233 193.363C125.419 202.768 132.802 192.437 134.289 191.088Z" fill="#604DA3"/>
<path fill-rule="evenodd" clip-rule="evenodd" d="M157.842 73.1385L153.399 73.1385C153.195 73.1385 153.029 73.3788 153.029 73.6753C153.029 73.9718 153.195 74.2121 153.399 74.2121L157.842 74.2121C158.046 74.2121 158.212 73.9718 158.212 73.6753C158.212 73.3788 158.046 73.1385 157.842 73.1385ZM157.842 70.5691L153.399 70.5691C153.195 70.5691 153.029 70.8094 153.029 71.1059C153.029 71.4023 153.195 71.6426 153.399 71.6426L157.842 71.6426C158.046 71.6426 158.212 71.4023 158.212 71.1059C158.212 70.8094 158.046 70.5691 157.842 70.5691ZM153.399 67.9997H157.842C158.046 67.9997 158.212 68.24 158.212 68.5365C158.212 68.833 158.046 69.0733 157.842 69.0733L153.399 69.0733C153.195 69.0733 153.029 68.833 153.029 68.5365C153.029 68.24 153.195 67.9997 153.399 67.9997ZM155.26 80.2544C155.459 80.4941 155.828 80.4941 156.028 80.2544L159.17 76.486C159.442 76.1604 159.21 75.6658 158.786 75.6658L152.501 75.6658C152.077 75.6658 151.845 76.1604 152.117 76.486L155.26 80.2544Z" fill="url(#paint1_linear_901_19)"/>
<path fill-rule="evenodd" clip-rule="evenodd" d="M141.477 210.375L145.966 210.375C146.173 210.375 146.34 210.133 146.34 209.833C146.34 209.533 146.173 209.291 145.966 209.291L141.477 209.291C141.27 209.291 141.102 209.533 141.102 209.833C141.102 210.133 141.27 210.375 141.477 210.375ZM141.477 212.972L145.966 212.972C146.173 212.972 146.341 212.729 146.341 212.43C146.341 212.13 146.173 211.887 145.966 211.887L141.477 211.887C141.27 211.887 141.102 212.13 141.102 212.43C141.102 212.729 141.27 212.972 141.477 212.972ZM145.966 215.569H141.477C141.27 215.569 141.102 215.326 141.102 215.026C141.102 214.727 141.27 214.484 141.477 214.484L145.966 214.484C146.173 214.484 146.341 214.727 146.341 215.026C146.341 215.326 146.173 215.569 145.966 215.569ZM144.071 203.179C143.871 202.939 143.503 202.939 143.303 203.179L140.115 207.001C139.844 207.327 140.075 207.821 140.499 207.821L146.874 207.821C147.298 207.821 147.53 207.327 147.258 207.001L144.071 203.179Z" fill="url(#paint2_linear_901_19)"/>
<path fill-rule="evenodd" clip-rule="evenodd" d="M109.604 126.589L110.348 130.808C110.382 131.003 110.638 131.12 110.919 131.07C111.201 131.02 111.401 130.823 111.367 130.629L110.623 126.41C110.589 126.215 110.333 126.098 110.052 126.148C109.77 126.198 109.57 126.395 109.604 126.589ZM107.168 127.019L107.912 131.238C107.946 131.432 108.202 131.549 108.483 131.5C108.765 131.45 108.965 131.252 108.931 131.058L108.187 126.839C108.153 126.645 107.897 126.528 107.616 126.577C107.334 126.627 107.134 126.825 107.168 127.019ZM105.469 131.669L104.725 127.45C104.691 127.255 104.891 127.058 105.173 127.008C105.454 126.959 105.71 127.076 105.745 127.27L106.489 131.489C106.523 131.683 106.322 131.881 106.041 131.93C105.759 131.98 105.503 131.863 105.469 131.669ZM116.781 127.862C116.982 127.624 116.919 127.261 116.648 127.106L112.595 124.782C112.227 124.571 111.78 124.885 111.853 125.303L112.893 131.197C112.966 131.614 113.494 131.756 113.767 131.432L116.781 127.862Z" fill="url(#paint3_linear_901_19)"/>
<path fill-rule="evenodd" clip-rule="evenodd" d="M171.06 113.34L171.685 117.786C171.714 117.99 171.497 118.19 171.2 118.232C170.903 118.273 170.639 118.141 170.611 117.937L169.986 113.491C169.957 113.286 170.174 113.086 170.471 113.045C170.768 113.003 171.031 113.135 171.06 113.34ZM173.626 112.979L174.251 117.425C174.28 117.63 174.063 117.829 173.766 117.871C173.469 117.913 173.206 117.781 173.177 117.576L172.552 113.13C172.523 112.925 172.74 112.726 173.037 112.684C173.334 112.642 173.598 112.774 173.626 112.979ZM176.826 117.063L176.201 112.617C176.173 112.412 175.909 112.28 175.612 112.322C175.316 112.364 175.098 112.563 175.127 112.768L175.752 117.214C175.781 117.419 176.045 117.551 176.341 117.509C176.638 117.467 176.855 117.268 176.826 117.063ZM164.292 116.918C164.027 116.753 163.976 116.389 164.185 116.157L167.526 112.469C167.811 112.155 168.333 112.315 168.392 112.735L169.279 119.048C169.338 119.468 168.881 119.766 168.52 119.542L164.292 116.918Z" fill="url(#paint4_linear_901_19)"/>
<defs>
<linearGradient id="paint0_linear_901_19" x1="141.157" y1="38.0368" x2="141.157" y2="244.247" gradientUnits="userSpaceOnUse">
<stop stop-color="#FFD9BC"/>
<stop offset="1" stop-color="#FFEADA"/>
</linearGradient>
<linearGradient id="paint1_linear_901_19" x1="155.644" y1="67.2497" x2="155.644" y2="81.6051" gradientUnits="userSpaceOnUse">
<stop stop-color="#FF7D4F" stop-opacity="0.2"/>
<stop offset="0.5" stop-color="#FF7D4F"/>
</linearGradient>
<linearGradient id="paint2_linear_901_19" x1="143.686" y1="216.327" x2="143.686" y2="201.816" gradientUnits="userSpaceOnUse">
<stop stop-color="#FF7D4F" stop-opacity="0.2"/>
<stop offset="0.5" stop-color="#FF7D4F"/>
</linearGradient>
<linearGradient id="paint3_linear_901_19" x1="104.381" y1="129.659" x2="118.002" y2="127.257" gradientUnits="userSpaceOnUse">
<stop stop-color="#FF7D4F" stop-opacity="0.2"/>
<stop offset="0.5" stop-color="#FF7D4F"/>
</linearGradient>
<linearGradient id="paint4_linear_901_19" x1="177.261" y1="114.707" x2="162.888" y2="116.727" gradientUnits="userSpaceOnUse">
<stop stop-color="#FF7D4F" stop-opacity="0.2"/>
<stop offset="0.5" stop-color="#FF7D4F"/>
</linearGradient>
</defs>
</svg>
